<?xml version="1.0" standalone="no"?>
<!DOCTYPE svg PUBLIC "-//W3C//DTD SVG 1.1//EN" "http://www.w3.org/Graphics/SVG/1.1/DTD/svg11.dtd" >
<svg>
<metadata>
Created by FontForge 20090622 at Tue Oct 29 04:21:57 2013
 By nodejs
2002 Iconian Fonts - www.iconian.com
</metadata>
<defs>
<font id="KnightsTemplar" horiz-adv-x="430" >
  <font-face 
    font-family="Knights Templar"
    font-weight="400"
    font-stretch="normal"
    units-per-em="800"
    panose-1="0 0 0 0 0 0 0 0 0 0"
    ascent="640"
    descent="-160"
    x-height="312"
    cap-height="483"
    bbox="-178 -213 829 784"
    underline-thickness="50"
    underline-position="-75"
    unicode-range="U+0020-U+2122"
  />
<missing-glyph horiz-adv-x="400" 
 />
    <glyph glyph-name=".notdef" horiz-adv-x="400" 
 />
    <glyph glyph-name=".null" horiz-adv-x="0" 
 />
    <glyph glyph-name="nonmarkingreturn" horiz-adv-x="400" 
 />
    <glyph glyph-name="space" unicode=" " horiz-adv-x="320" 
 />
    <glyph glyph-name="exclam" unicode="!" horiz-adv-x="160" 
d="M10 250q0 -8 2.5 -24t8.5 -31.5t16.5 -27t27.5 -11.5q1 0 3 0.5l2 0.5q3 3 10.5 12.5t9.5 12.5l3.5 40l5.5 59.5t6 58.5t5 38q2 15 5.5 27.5t7.5 23.5t6.5 23t7.5 12q4 0 13 5q8 0 8 8t-7 15l-10 5q-6 3 -8.5 4l-2.5 1l-80 31q-1 0 -4.5 -3t-5.5 -4q-6 -8 -10.5 -30
t-8 -50t-5.5 -59t-3.5 -58.5t-2 -49t-0.5 -29.5zM9 35q0 12 8.5 25.5t22 24.5t28.5 18t27 7q17 0 21.5 -7.5t4.5 -21.5q0 -13 -6 -27.5t-16 -26.5t-23 -20t-27 -8q-7 0 -11.5 1.5t-8.5 5.5t-8 10t-11 14l-0.5 1.5t-0.5 3.5z" />
    <glyph glyph-name="quotedbl" unicode="&#x22;" horiz-adv-x="306" 
d="M162 446q0 12 12.5 22.5t28.5 19.5t31.5 15.5t20.5 12.5l28 -30v-100q0 -9 -8.5 -21.5t-21 -23.5t-26 -18.5t-23.5 -7.5q-2 0 -7 0.5t-7 0.5q0 5 -1 16t-3 24t-3.5 24t-2.5 16q0 2 -3 9.5l-6 15.5l-6 15.5t-3 9.5zM10 442q0 12 12.5 22.5t28.5 19.5t31.5 15.5t20.5 12.5
l28 -30v-100q0 -9 -8.5 -21.5t-21 -23.5t-26 -18.5t-23.5 -7.5q-2 0 -7 0.5t-7 0.5q0 5 -1 16t-3 24t-3.5 24t-2.5 16q0 2 -3 9.5l-6 15.5l-6 15.5t-3 9.5z" />
    <glyph glyph-name="FL0023h" unicode="#" horiz-adv-x="498" 
d="M2 298q0 6 10.5 8.5t18.5 7.5q13 8 27 14l24 10q-2 6 -3 13t-2 13t-2.5 10t-4.5 4q-1 0 -13 4q-8 0 -8 10t7 19l101 51q1 0 4.5 -4t5.5 -6q7 -11 11 -42t8 -72h100q-2 7 -3 14t-9 28q-4 0 -13 5q-8 0 -8 9q0 11 7 20q102 51 106 47q1 -2 2.5 -3.5t2.5 -3.5
q7 -11 11.5 -43t7.5 -73h6q26 0 48 -4q18 -4 37 -28q-4 -14 -5.5 -17.5t-3.5 -3t-4 2.5t-7 -2q-8 -5 -16 -9t-20 -8l-30 -1q2 -21 2.5 -40.5t1.5 -37.5q14 0 25 -1t20 -3q18 -4 37 -28q-3 -13 -20 -20q-8 -5 -16 -9t-20 -8l-24 -1v-3q0 -11 -2.5 -29.5t-8.5 -37.5
t-16.5 -32.5t-27.5 -13.5q-28 42 -28 65q-1 11 -2 24l-2 26l-117 -2v-3q0 -10 -2.5 -29t-8.5 -37t-16.5 -32t-27.5 -14h-5q-23 41 -23 63q-1 11 -1.5 24t-2.5 26l-58 -1q-18 0 -26 8l-24 24v4q0 6 2 8q2 0 8 2t19 6q17 11 35.5 18t27.5 7h11l-3.5 41.5t-3.5 30.5l-46 -1
q-18 0 -26 8l-24 24v4zM191 265q2 -20 2.5 -39t1.5 -36h115q-2 24 -4.5 44t-3.5 32z" />
    <glyph glyph-name="dollar" unicode="$" horiz-adv-x="510" 
d="M401 446q0 -23 -15 -34.5t-34 -11.5q-23 0 -45 5q-21 6 -8 -143q39 4 66 6t45 3q6 -1 21 -4.5t30.5 -9.5t27.5 -15t12 -21t-6 -28.5t-16.5 -34.5t-24.5 -37t-30 -36.5t-33 -33t-34.5 -27t-34 -17.5t-32.5 -5l-4 -52l-44 -4l-4 60q-28 5 -52.5 11.5t-48 12t-47 9
t-50.5 2.5q0 1 -0.5 2.5t-0.5 2.5q0 12 11.5 24t28 21t33.5 14.5t28 5.5l102 -9v84q-21 -1 -34.5 -2t-21.5 -1.5t-11.5 -1t-4.5 -0.5q-20 0 -48 2t-53 10t-42.5 24t-17.5 44q0 21 10.5 40.5t26.5 36.5l16 17.5l16 16.5q18 15 46 48q29 34 96 61l26 9v44h44l4 -52l76 -1
q12 -9 18 -16.5t12 -13.5l0.5 -2t0.5 -3zM242 418q-1 1 -8 2.5t-18 4.5q-22 5 -67 -33t-34 -66q11 -26 32 -43q21 -15 37 -17q8 -1 22.5 -2t35.5 -2v156zM294 102l38.5 -1.5t24.5 -0.5q20 0 27.5 7t11 17l7.5 20.5t17 16.5q-16 3 -30.5 8l-29 10.5t-30 9t-34.5 3.5
q-7 0 -2 -90z" />
    <glyph glyph-name="FL0025h" unicode="%" horiz-adv-x="614" 
d="M139 52l-1 13l201 317l59 88q0 9 7 18t17 15.5t20 11t16 5.5q10 2 17.5 -5t12.5 -18t7.5 -21.5t2.5 -15.5q-5 -24 -154 -213l-114 -146t-43 -61q-8 -18 -19.5 -29.5t-29.5 -11.5q-2 0 -5.5 0.5t-4.5 0.5q1 2 2 6t2 9q4 12 5.5 18.5t1.5 18.5zM209 298
q-15 -25 -27.5 -32.5t-35.5 -7.5q-10 0 -23.5 0.5t-24.5 7.5q-16 9 -32.5 28.5t-30 44.5t-22.5 52t-9 51q0 12 6.5 26t15.5 24.5t20 18t20 7.5q28 0 54 -16t46 -42t31.5 -60t11.5 -70v-8v-16v-8zM148 392q0 30 -6 46t-28 21q-12 3 -22.5 4.5t-18 -3t-12.5 -15.5t-5 -31
q0 -9 3 -20.5t6.5 -23t7 -20t5.5 -11.5q6 -4 20.5 -12.5t25.5 -8.5q14 2 19 13.5t5 31.5v29zM586 46q-15 -26 -27.5 -33.5t-35.5 -7.5q-10 0 -23.5 0.5t-24.5 7.5q-16 9 -32.5 29t-30.5 44.5t-22.5 51.5t-8.5 51q0 13 6.5 26.5t15.5 24t20 18t19 7.5q29 0 55 -15.5
t45.5 -41.5t31.5 -60t12 -71v-8v-16v-7zM525 139q0 31 -6 46.5t-28 20.5q-12 4 -22.5 5t-18.5 -3.5t-12.5 -15t-4.5 -30.5q0 -10 2.5 -21.5t6.5 -23t7.5 -20t4.5 -11.5l21.5 -12t25.5 -8q14 1 19 12.5t5 31.5v29z" />
    <glyph glyph-name="ampersand" unicode="&#x26;" horiz-adv-x="508" 
d="M6 106q0 25 10 56.5t26 63t37 59.5t43 45l-3 10l-0.5 0.5t-0.5 1.5l-18 16q-2 11 -2.5 13t-0.5 3q1 20 17 39.5t38 34.5t46 24.5t40 9.5h8q15 0 30 -6t15 -25q0 -23 -15 -35t-35 -17q-7 -1 -12.5 -2t-9.5 -2q-9 -1 -13.5 -20.5t0.5 -24.5q14 1 21 2.5t22 5.5
q20 6 33.5 9.5t13.5 -8.5q0 -13 -7 -24t-18.5 -21t-26.5 -19.5l-32 -20.5l-37 -23t-35 -26t-26 -30t-10 -35q0 -20 10 -33t25.5 -21t35 -11t36.5 -3q11 0 31 3.5t40 10t37.5 16t23.5 21.5q-3 2 -5 2.5t-3 1.5q-2 1 -6.5 1.5t-8.5 1.5h1q-10 3 -21.5 5.5t-26 9t-15.5 9
t-1 8.5v2q0 10 5 18t12.5 14t15.5 9.5t12 4.5h7q14 0 27 -0.5t22 -0.5q13 0 23 0.5t20 0.5h3q14 1 40 1.5t49 0.5q0 -23 -3.5 -36.5t-8.5 -21.5q-3 -4 -5.5 -6t-7 -4t-12 -5l-19.5 -8q0 -1 -1.5 -6t-3.5 -7q-16 -21 -47.5 -45.5t-69 -45t-75 -34t-66.5 -13.5q-22 0 -51 4
t-55 15.5t-44 32.5t-18 54z" />
    <glyph glyph-name="quotesingle" unicode="'" horiz-adv-x="150" 
d="M10 442q0 12 12.5 22.5t28.5 19.5t31.5 15.5t20.5 12.5l28 -30v-100q0 -9 -8.5 -21.5t-21 -23.5t-26 -18.5t-23.5 -7.5q-2 0 -7 0.5t-7 0.5q0 5 -1 16t-3 24t-3.5 24t-2.5 16q0 2 -3 9.5l-6 15.5l-6 15.5t-3 9.5z" />
    <glyph glyph-name="parenleft" unicode="(" horiz-adv-x="280" 
d="M158 428q13 13 23.5 24.5t22.5 22.5q13 11 26 20t20 16h11q-4 -13 -9 -27t-10 -31q-10 -33 -29 -35q-19 0 -67 -74q-48 -73 -44 -114q4 -38 21 -72q18 -34 38.5 -65t36.5 -47h44q12 -64 -6 -67q-18 -2 -36 -5t-40 -3q-34 0 -56.5 13.5t-39.5 36.5t-29.5 54t-24.5 66v6
q0 14 6.5 36t13.5 49q9 29 34 71q27 46 94 125z" />
    <glyph glyph-name="parenright" unicode=")" horiz-adv-x="280" 
d="M113 428q-13 13 -23.5 24.5t-23.5 22.5q-12 11 -25 20t-20 16h-11q4 -13 9 -27t10 -31q10 -33 29 -35q19 0 67 -74q48 -73 44 -114q-3 -39 -22 -72q-17 -34 -37.5 -65t-36.5 -47h-44q-12 -64 5 -67q19 -2 37 -5t40 -3q34 0 56.5 13.5t39.5 36.5t29.5 54t24.5 66v6
q0 14 -6.5 36l-14.5 49q-7 28 -34 71q-25 44 -93 125z" />
    <glyph glyph-name="asterisk" unicode="*" horiz-adv-x="317" 
d="M118 510q6 0 9.5 3.5t6 9t5 12t6.5 13.5q8 14 13.5 25.5t7.5 11.5q8 0 12.5 -3.5t8 -8.5t5.5 -11t6 -12q6 -11 4.5 -28.5t-1.5 -36.5q53 -14 86 -48l-1 -13q-16 0 -29.5 4.5t-30.5 4.5q-4 0 -16 -0.5t-16 -0.5q-8 -6 -12 -15t-6 -19.5l-4 -21t-6 -19.5l-32.5 38t-35.5 37
q-11 -2 -26.5 -3.5t-29.5 1.5q-4 1 -7 1.5t-6 0.5q-9 0 -12 3t1 15q21 16 42 25l13 3l-16 29l-37 61h22l34 -18l18 -15t9 -8q5 -4 15 -17z" />
    <glyph glyph-name="plus" unicode="+" horiz-adv-x="282" 
d="M9 207v-5q8 -8 13.5 -14t9.5 -10q8 -7 26 -7l40 3l8 -68q45 -16 60 8l8 64q20 2 30 4t16 4t9 4.5t7 5.5q9 6 15 16t14 38q-19 24 -37 28q-9 2 -21 3t-28 1l-13 76q-44 20 -56 -4l-12 -72q-16 0 -25.5 -7t-26.5 -18q-16 -11 -26.5 -24.5t-10.5 -25.5z" />
    <glyph glyph-name="comma" unicode="," horiz-adv-x="130" 
d="M9 42q0 13 8 26t20.5 22.5t28 15.5t30.5 6q10 0 12.5 -10.5t2.5 -22.5v-12q0 -9 -2.5 -28.5t-9.5 -38.5q-4 -10 -8.5 -18t-10.5 -16t-14.5 -18l-19.5 -22q-28 0 -16 24q10 24 0 41q-12 17 -16.5 32t-4.5 19z" />
    <glyph glyph-name="minus" unicode="-" horiz-adv-x="282" 
d="M9 207q0 12 10.5 25.5t26.5 24.5q17 11 35.5 18t27.5 7h70q31 0 49 -4q16 -3 37 -28q-8 -28 -14 -38t-15 -16q-8 -6 -16 -10t-21 -8l-141 -7q-18 0 -26 7q-4 4 -9.5 10t-13.5 14v5z" />
    <glyph glyph-name="period" unicode="." horiz-adv-x="154" 
d="M9 35q0 12 8.5 25.5t22 24.5t28.5 18t27 7q17 0 21.5 -7.5t4.5 -21.5q0 -13 -6 -27.5t-16 -26.5t-23 -20t-27 -8q-7 0 -11.5 1.5t-8.5 5.5t-8 10t-11 14l-0.5 1.5t-0.5 3.5z" />
    <glyph glyph-name="slash" unicode="/" horiz-adv-x="412" 
d="M30 48l-1 13l201 317l59 88q0 9 7 18t17 15.5t20 11t16 5.5q10 2 17.5 -5t12.5 -18t7.5 -21.5t2.5 -15.5q-5 -25 -154 -213l-114 -146t-43 -61q-8 -18 -19.5 -29.5t-29.5 -11.5q-2 0 -5.5 0.5t-4.5 0.5q1 2 2 6t2 9q4 12 5.5 18.5t1.5 18.5z" />
    <glyph glyph-name="zero" unicode="0" 
d="M419 82v12q0 8 0.5 18t0.5 16v14q0 76 -23 144.5t-62.5 120t-91.5 82t-110 30.5q-18 0 -39.5 -13.5t-40.5 -35t-31.5 -49t-12.5 -54.5q0 -31 8.5 -66t22.5 -69.5t32.5 -67.5t40 -61.5t43.5 -51t43 -35.5q10 -6 22.5 -9t25 -5t25.5 -2.5t23 -0.5q23 0 39.5 3.5t30.5 12.5
t27 25.5t27 41.5zM296 269q0 -31 -0.5 -57t-4.5 -46t-13.5 -32t-27.5 -12q-10 -1 -23.5 3.5t-27 11.5t-25.5 14t-17 12t-12.5 22t-14.5 39t-11.5 46t-4.5 44q0 40 9 61.5t25 30t37.5 6.5t45.5 -9q20 -6 33 -16.5t20 -27t9.5 -39t2.5 -51.5z" />
    <glyph glyph-name="one" unicode="1" horiz-adv-x="260" 
d="M188 491l2 -66q0 -12 0.5 -42t0.5 -64q0 -33 -0.5 -63t-0.5 -42q0 -8 -3 -25.5t-3 -49.5q0 -23 7.5 -30t19.5 -11.5t23.5 -5.5t15.5 -1q-14 -23 -35.5 -40t-47 -28.5t-52 -17.5t-50.5 -6q-3 0 -11 1.5t-16 1.5q-9 0 -17 0.5t-11 0.5q8 23 22.5 37t29 26t26.5 24.5
t16 29.5l-4 131.5t0 128.5q-6 12 -16.5 18t-22.5 11t-23.5 10.5t-17.5 16.5q12 12 21 26t18.5 26t21 20t29.5 8q27 0 50 -10q25 -10 28 -15z" />
    <glyph glyph-name="two" unicode="2" horiz-adv-x="510" 
d="M50 472q-36 -57 27 -50q31 3 51.5 4t29.5 1q34 0 68.5 8.5t67.5 17.5q23 6 67 -35q45 -40 33 -70q-10 -30 -31.5 -46t-52.5 -20q-15 -1 -31 -2.5t-33 -0.5q-22 1 -46 -3.5t-47 -13.5t-44 -22.5t-38 -29.5q-41 -41 -43 -116q-2 -76 18 -82q11 -3 31.5 -5t54.5 -3.5
t54 -2.5t29 -1q34 0 65 7t61.5 15.5t62 15.5t66.5 6q0 1 0.5 2.5t0.5 3.5q0 12 -10.5 22.5t-25.5 18t-31.5 11.5t-26.5 4l-156 -8q-20 -2 -38 3.5t-30 5.5q-12 2 -16 0t-4.5 -5.5t1 -5t1.5 1.5q0 8 12.5 21.5t31.5 26t40 21.5t39 9q3 0 15 3l26 6.5t26 6t15 2.5q21 0 48.5 2
t52.5 10.5t42.5 25.5t17.5 47q0 22 -10.5 43t-26.5 40l-16 18t-17 17.5t-20 21t-25 30.5q-28 36 -96 65h-150q-1 0 -5 -4q-1 -2 -9 -4.5t-19 -7l-26 -10.5t-31 -16z" />
    <glyph glyph-name="three" unicode="3" horiz-adv-x="470" 
d="M318 399l-58 39t-36 23q-22 13 -42 35l-162 10q-8 1 -9.5 -7.5t-1.5 -12.5q0 -10 7.5 -18t18.5 -15l21.5 -13.5t17.5 -14.5q9 -1 32 -2.5t48.5 -3t48.5 -3t33 -1.5h7h4q2 1 13 -3.5t34 -22.5q23 -19 24 -30q0 -6 0.5 -13t0.5 -16q0 -15 -1.5 -25t-19.5 -10q-38 0 -73 5.5
t-74 5.5h-14q-10 0 -21.5 -0.5t-20.5 -0.5h-14q8 -29 28.5 -43t47.5 -20t55.5 -8.5t52.5 -7.5t39 -16.5t15 -36.5q0 -11 -1 -21t-11 -19q-4 -3 -16 -9l-26 -13t-26.5 -12.5t-17.5 -6.5q-1 0 -10 -0.5t-15 -0.5q-32 0 -63 8.5t-63 12.5q-2 0 -6.5 -4t-4.5 -6l4 -10l7 -10
t8 -8q8 -9 19.5 -19t15.5 -14l50 -19t42.5 -13.5t40.5 -8t45 -2.5q36 0 65 13.5t49.5 36.5t31.5 52.5t11 62.5q0 7 -3.5 20.5t-9.5 30.5t-15 36.5t-19 38.5q-10 20 -21.5 37t-23 30.5t-21.5 24t-17 18.5z" />
    <glyph glyph-name="four" unicode="4" horiz-adv-x="480" 
d="M378 48l1 13q0 33 -10.5 69t-10.5 72q0 37 7 68.5t24 65.5q5 8 12 16l14 16.5t11 17.5t4 20q0 10 -8 19t-19.5 16t-24 11.5t-20.5 4.5q-15 0 -27.5 -11.5t-23 -29.5t-18.5 -40t-13.5 -43t-9.5 -39t-7 -28h-11q-8 0 -16.5 -0.5t-16.5 -0.5h-11h-14q-9 0 -18 0.5t-15 0.5
h-8q-3 0 -8.5 1.5t-10 3t-8 3t-3.5 2.5v190q0 9 -7 18t-17 15.5t-20 11t-16 5.5q-11 2 -18.5 -5t-12.5 -18t-7 -21.5t-2 -15.5q-1 -10 -2.5 -35.5t-3.5 -54.5t-3 -54.5t-1 -35.5q1 -67 64 -78q31 -6 56 -8.5t44 -2.5h22q19 0 39.5 -2.5t34.5 -8.5q13 -6 21.5 -21.5
t14.5 -35.5t11.5 -42t13.5 -40t19.5 -30t29.5 -12q2 0 5.5 0.5t4.5 0.5q-1 2 -2 6t-3 9q-3 12 -4.5 18.5t-1.5 18.5z" />
    <glyph glyph-name="five" unicode="5" horiz-adv-x="510" 
d="M109 38q0 24 15 36.5t34 12.5q23 0 45.5 -5l45.5 -10q11 -2 22 -5l23 -6q22 -6 67 34q44 41 33 71q-12 37 -43 52.5t-71.5 17.5t-87 -3.5t-92.5 -8.5q-6 2 -20.5 6t-30 10t-28 15.5t-12.5 22.5q0 19 10 42q11 26 9 100q-2 76 18 82q21 6 86 9q34 2 54 2.5t29 0.5
q34 0 65 -7.5t61.5 -16t62 -15t66.5 -5.5q0 -1 0.5 -2.5t0.5 -3.5q0 -12 -11.5 -24.5t-28 -22.5t-33.5 -16t-28 -6l-160 9q-20 2 -32.5 2.5t-24.5 0.5q-43 21 -45 5q-1 -8 -1.5 -15.5t-2.5 -14.5q-1 -8 -1 -14t-0.5 -10.5t-3 -8.5t-9.5 -7q16 -3 30.5 -8.5l29 -11t30 -9.5
t34.5 -4q4 0 9.5 0.5t10.5 0.5h10.5h5.5q4 0 17 2t28 3.5t28.5 3t16.5 1.5q21 0 48.5 -2t52.5 -10.5t42.5 -25.5t17.5 -47q0 -22 -10.5 -43t-26.5 -40q-8 -10 -16 -18.5l-17 -17.5q-9 -8 -20 -21l-25 -30q-28 -35 -96 -65h-150l-4 4l-9 9t-9.5 10.5t-7.5 8.5l-0.5 2.5
t-0.5 3.5z" />
    <glyph glyph-name="six" unicode="6" horiz-adv-x="390" 
d="M108 185q0 -34 14 -55t35 -32.5t46.5 -15.5t48.5 -4q5 0 16 1t12 1l10 11q1 1 1 17q1 8 1 14v10q0 6 -0.5 25t-4.5 38.5t-12.5 35t-24.5 15.5h-110q-11 0 -17.5 -7t-9.5 -16.5t-4 -20t-1 -17.5zM209 458q0 12 9 21.5t22 16t27 9.5t23 3h14q12 0 23 -4.5t13 -19.5
q2 -11 -2 -21t-11.5 -17.5t-17 -12t-18.5 -4.5q-2 0 -7.5 -0.5t-10 0.5t-8.5 3.5t-5 8.5q-2 -10 -10 -11t-15 -1q-17 0 -20 1q-5 0 -57 -56q-53 -55 -56 -63q-2 -7 -2 -10q0 -18 8.5 -20.5t20.5 -2.5q20 0 39.5 9t39 20t40.5 19.5t44 8.5q18 0 34 -4t28 -13t19 -23.5
t7 -35.5q0 -10 -1.5 -29.5t-4.5 -41t-6.5 -41t-7.5 -29.5q-1 -1 -6.5 -10.5t-16.5 -26.5q-22 -35 -55 -48l-29 -13l-24 -11q-22 -10 -53 -10q-77 0 -122 41.5t-45 126.5q0 24 9 54t23 61q13 32 31 57.5t46 56.5q46 39 91 62z" />
    <glyph glyph-name="seven" unicode="7" horiz-adv-x="522" 
d="M190 11q-18 65 97 214.5t115 166.5t-7.5 25.5t-19.5 12.5t-28 4.5t-33 0.5h-7t-8 -1q-9 0 -17 -3q-5 -1 -24.5 -3t-55.5 -6q-108 -30 -120 -40l-13 -10.5t-14 -12.5q-13 -13 -27 -25.5t-28 -17.5q19 51 62 89t97 63.5t113.5 37.5t112.5 12q10 0 29.5 -1.5t38.5 -7
t33 -16.5t14 -28q0 -14 -5 -25t-11 -22t-10.5 -21.5t-4.5 -23.5q-200 -353 -212 -362t-17 -11h-16q-11 0 -18 1.5t-16 9.5z" />
    <glyph glyph-name="eight" unicode="8" horiz-adv-x="406" 
d="M301 334q0 34 -13.5 55t-35 32.5t-47 15.5t-48.5 4q-5 0 -16 -1t-12 -1l-10 -11l-1 -18q-1 -8 -1 -13v-10v-9q0 -7 1 -16q0 -19 7 -27q7 -7 15 -19t28 -24q28 -12 48 -10t46 8q27 6 32 21q7 17 7 23zM340 267l3 -8q22 -14 36 -54q15 -39 11 -59q-3 -10 -4.5 -17.5
t-3.5 -13.5q0 -1 -6.5 -10.5l-17.5 -26.5q-23 -34 -52 -52q-28 -18 -54.5 -24.5t-58.5 -6.5q-77 0 -123.5 42t-46.5 128q0 24 59 81q-39 20 -52 59q-7 19 -9 33.5t-1 25t3 17.5t3 12q1 1 6.5 10t17.5 27q22 34 52 52q28 18 55 24t58 6q77 0 123.5 -41.5t46.5 -127.5
q0 -24 -14 -44t-31 -32zM104 169q0 -35 13 -56.5t33.5 -33.5t45 -16t46.5 -4q5 0 15.5 1.5t11.5 1.5l9 11l2 17q1 9 1 15v10v9t-1 16q-1 18 -7 27q-7 8 -15 20.5t-27 24.5q-40 12 -53 14q-13 3 -40 -4q-26 -6 -29 -15t-4 -20t-1 -18z" />
    <glyph glyph-name="nine" unicode="9" horiz-adv-x="390" 
d="M281 322q0 34 -13.5 55t-35 32.5t-47 15.5t-48.5 4q-5 0 -16 -1t-12 -1l-10 -11l-1 -18q-1 -8 -1 -13v-10q0 -6 0.5 -25t4.5 -38.5t12.5 -35t24.5 -15.5h110q11 0 17.5 7t9.5 16.5t4 20t1 17.5zM180 49q0 -12 -9 -21.5t-22 -15.5t-26.5 -9.5t-23.5 -3.5h-14
q-11 0 -21.5 4.5t-14.5 19.5q-2 11 2 21t11.5 18t17 12t18.5 4h8q4 0 9 -0.5t9 -3t5 -8.5q2 10 10 11t15 1h20q5 -1 57 54q53 57 55 63q3 8 3 11q0 18 -8.5 20.5t-20.5 2.5q-20 0 -39.5 -9t-39 -19.5t-41 -19.5t-43.5 -9q-35 0 -62 17q-26 17 -26 59q0 10 1.5 30t4.5 41
t6.5 40.5t7.5 29.5q1 1 6.5 10l16.5 27q24 36 54 48l30 14t25 10t24.5 7t27.5 3q77 0 122 -41.5t45 -126.5q0 -24 -9 -54t-22 -62q-14 -31 -32 -56.5t-46 -56.5q-45 -38 -91 -62z" />
    <glyph glyph-name="colon" unicode=":" horiz-adv-x="154" 
d="M9 235q0 12 8.5 25.5t22 24.5t28.5 18t27 7q17 0 21.5 -7.5t4.5 -21.5q0 -13 -6 -27.5t-16 -26.5t-23 -20t-27 -8q-7 0 -11.5 1.5t-8.5 5.5t-8 10t-11 14l-0.5 1.5t-0.5 3.5zM9 35q0 12 8.5 25.5t22 24.5t28.5 18t27 7q17 0 21.5 -7.5t4.5 -21.5q0 -13 -6 -27.5
t-16 -26.5t-23 -20t-27 -8q-7 0 -11.5 1.5t-8.5 5.5t-8 10t-11 14l-0.5 1.5t-0.5 3.5z" />
    <glyph glyph-name="semicolon" unicode=";" horiz-adv-x="154" 
d="M9 235q0 12 8.5 25.5t22 24.5t28.5 18t27 7q17 0 21.5 -7.5t4.5 -21.5q0 -13 -6 -27.5t-16 -26.5t-23 -20t-27 -8q-7 0 -11.5 1.5t-8.5 5.5t-8 10t-11 14l-0.5 1.5t-0.5 3.5zM9 42q0 13 8 26t20.5 22.5t28 15.5t30.5 6q10 0 12.5 -10.5t2.5 -22.5v-12q0 -9 -2.5 -28.5
t-9.5 -38.5q-4 -10 -8.5 -18t-10.5 -16t-14.5 -18l-19.5 -22q-28 0 -16 24q10 24 0 41q-12 17 -16.5 32t-4.5 19z" />
    <glyph glyph-name="less" unicode="&#x3c;" horiz-adv-x="280" 
d="M158 54q13 -13 23.5 -24.5t22.5 -22.5q13 -11 26 -20t20 -16h11q-4 13 -9 27.5t-10 31.5q-10 33 -29 33q-19 2 -67 75t-44 113q4 39 21 74q18 33 38.5 64t36.5 47h44q12 64 -6 66l-36 6t-40 3q-34 0 -56.5 -13t-39 -36.5t-29 -54.5l-25.5 -66v-6q0 -14 6.5 -36t13.5 -49
q8 -26 34 -72q14 -21 37 -52t57 -72z" />
    <glyph glyph-name="equal" unicode="=" horiz-adv-x="282" 
d="M9 275q0 12 10.5 25.5t26.5 24.5q17 11 35.5 18t27.5 7h70q31 0 49 -4q16 -3 37 -28q-8 -28 -14 -38t-15 -16q-8 -6 -16 -10t-21 -8l-141 -7q-18 0 -26 7q-4 4 -9.5 10t-13.5 14v5zM9 123q0 12 10.5 25.5t26.5 24.5q17 11 35.5 18t27.5 7h70q31 0 49 -4q16 -3 37 -28
q-8 -28 -14 -38t-15 -16q-8 -6 -16 -10t-21 -8l-141 -7q-18 0 -26 7q-4 4 -9.5 10t-13.5 14v5z" />
    <glyph glyph-name="greater" unicode="&#x3e;" horiz-adv-x="280" 
d="M113 54q-13 -13 -23.5 -24.5t-23.5 -22.5q-12 -11 -25 -20t-20 -16h-11q4 13 9 27.5t10 31.5q10 33 29 33q19 1 67 74.5t44 113.5t-22 74q-17 33 -37.5 64t-36.5 47h-44q-12 64 5 66l37 6t40 3q34 0 56.5 -13t39 -36.5t29 -54.5l25.5 -66v-6q0 -14 -6.5 -36l-14.5 -49
q-7 -27 -34 -72q-25 -44 -93 -124z" />
    <glyph glyph-name="question" unicode="?" horiz-adv-x="510" 
d="M50 472q-36 -57 27 -50q31 3 51.5 4t29.5 1q34 0 68.5 8.5t67.5 17.5q23 6 67 -35q45 -40 33 -70q-10 -30 -31.5 -46t-52.5 -20q-15 -1 -31 -2.5t-33 -0.5q-36 1 -84 -14q-50 -15 -91 -55.5t-20 -47.5q20 -6 41 -2q19 3 62 24t60 21h9q6 0 11.5 -0.5t9.5 -0.5h6
q4 0 17 -1.5t28 -3t28.5 -3.5t16.5 -2q21 0 48.5 2t52.5 10.5t42.5 25.5t17.5 47q0 22 -10.5 43l-22.5 45q-6 13 -13 25t-15 24q-15 23 -49 46q-33 22 -101 52h-150q-1 0 -5 -4q-1 -2 -9 -4.5t-19 -7l-26 -10.5t-31 -16zM9 35q0 12 8.5 25.5t22 24.5t28.5 18t27 7
q17 0 21.5 -7.5t4.5 -21.5q0 -13 -6 -27.5t-16 -26.5t-23 -20t-27 -8q-7 0 -11.5 1.5t-8.5 5.5t-8 10t-11 14l-0.5 1.5t-0.5 3.5z" />
    <glyph glyph-name="FL0040h" unicode="@" 
d="M10 76q15 -24 27.5 -39t26.5 -23t31 -11.5t39 -3.5q11 0 23.5 0.5t25.5 2.5q7 0 16 0.5t22 0.5q13 1 41 1.5t74 1.5q48 25 20 88q-21 12 -82 13q-31 1 -51 1h-30q-19 0 -33 1t-23 7.5t-13.5 22t-4.5 43.5q0 29 4 62.5t13.5 62.5t24 48.5t36.5 19.5q29 9 46 7t31 -13
q13 -11 20 -29.5t7 -57.5q-53 55 -86 13q-33 -41 -17 -91t60 -53t85 22q40 25 59 75q18 51 18 93q0 25 -12.5 50.5t-31 46t-40.5 33t-40 12.5q-58 0 -110 -28.5t-91.5 -76.5t-62.5 -112t-23 -134v-13q0 -6 0.5 -15.5t0.5 -16.5v-11z" />
    <glyph glyph-name="A" unicode="A" horiz-adv-x="460" 
d="M9 39q0 -23 3.5 -31.5t27.5 -8.5q12 0 26 4.5t26 12.5t20.5 19t8.5 25q0 10 -3.5 16t-8 12t-8 13.5t-3.5 20.5q0 22 20 36.5t46.5 23.5t53.5 13t42 5q13 1 21 -4t13.5 -13.5l11 -17.5t14.5 -15l20 -120q2 -10 16.5 -15.5t24.5 -5.5q2 0 5.5 0.5l3.5 0.5l60 60q0 1 1 6
t1 7q0 3 -1 9.5t-1 7.5l-25.5 90l-24.5 90q-9 32 -28 66t-32 64q-1 2 -3.5 11l-5.5 19.5t-6.5 19t-4.5 10.5q-39 42 -90 42q-11 0 -23.5 -3.5t-25.5 -9.5t-24 -13.5t-17 -15.5q-6 -7 -17.5 -38t-26 -74.5l-30 -94l-28.5 -96.5t-21 -81t-8 -47zM109 244q0 17 2.5 42t9.5 48.5
t20 40t34 16.5q16 0 29.5 -10t23.5 -25t16 -33t6 -33v-10q-1 -4 -4.5 -15.5t-5.5 -14.5q-8 -2 -21 -8.5l-27.5 -14t-28.5 -13t-24 -5.5q-15 0 -22.5 10.5t-7.5 24.5z" />
    <glyph glyph-name="B" unicode="B" horiz-adv-x="570" 
d="M190 11q-22 58 -26.5 119t-4.5 122q0 21 6.5 36t14.5 28l14.5 24.5t6.5 24.5q0 9 -3.5 12t-17.5 6q-5 1 -15.5 2.5l-21.5 3t-20 3t-13 1.5q-14 0 -27.5 -10.5t-27 -23.5l-27.5 -25.5t-28 -17.5q19 51 62 89t97 63.5t113.5 37.5t112.5 12q10 0 29.5 -1.5t38.5 -7t33 -16.5
t14 -28q0 -14 -5 -25t-11 -22t-10.5 -21.5t-4.5 -23.5q0 -16 14.5 -26l31 -20.5t31 -23.5t14.5 -34q0 -5 -3 -13.5t-7.5 -19.5t-11 -24t-13.5 -25q-15 -25 -31.5 -44t-23.5 -39q-20 -19 -38 -34.5t-42 -20.5q0 -2 -9.5 -7t-22.5 -10.5l-26.5 -11.5t-21.5 -9q-1 0 -10 -0.5
t-20.5 -2.5l-22.5 -4t-17 -4h-16q-11 0 -18 1.5t-16 9.5zM247 392q0 -9 1 -21.5t5 -24.5t12.5 -21t24.5 -9q17 0 36.5 6t36.5 16.5t28 24t11 29.5q0 17 -7.5 25.5t-19.5 12.5t-28 4.5t-33 0.5q-5 0 -14 -0.5t-19 -2.5t-19 -5t-15 -7v-28zM410 104q28 20 41 31.5t14.5 19.5
t3 15t1.5 10v11q0 12 -9.5 26t-23 26t-29 19.5t-27.5 7.5q-24 0 -46 -6t-39 -18t-27 -31t-10 -45q0 -7 1.5 -20t4.5 -26.5t9 -23.5t16 -10z" />
    <glyph glyph-name="C" unicode="C" horiz-adv-x="466" 
d="M158 401q13 11 23.5 21.5t22.5 19.5q13 10 26 18t20 14h11q9 0 19 0.5t18 0.5h12q12 0 33.5 1.5t43 -0.5t39.5 -9t24 -24q-25 -33 -57.5 -43.5t-70.5 -10.5q-21 0 -38 0.5t-34 1.5q-9 1 -18.5 1.5t-18.5 -0.5q-19 0 -67 -65q-48 -64 -44 -100q4 -33 21 -65
q18 -29 40 -50.5t47 -21.5h183q0 -16 -9 -24.5t-20.5 -15t-24 -12.5t-19.5 -16l-45.5 -10.5t-38 -7t-36.5 -4t-40 -1.5q-34 0 -56.5 11.5t-39 32t-29 48l-25.5 57.5v5q0 13 6.5 32t13.5 43q8 25 34 62q27 40 94 111z" />
    <glyph glyph-name="D" unicode="D" horiz-adv-x="480" 
d="M10 379q5 20 16.5 35.5t27.5 27t35 19t40 12.5q43 10 85 11.5t69 1.5q32 0 65.5 -8t60.5 -25.5t44 -44.5t17 -66q0 -41 -13 -88q-7 -24 -32 -66t-71 -106l-34 -29q0 -2 -7 -7l-16.5 -12t-19.5 -13.5t-17 -9.5t-17 -5.5t-21.5 -3.5l-22.5 -2t-20 -1q-24 0 -36.5 28
t-18 70.5t-7 91.5t-3 91.5t-6.5 70.5t-18 28h-80zM318 90q64 96 70 112.5t11 34.5q6 19 4 35.5t-3 22.5q0 1 -4 9l-6 12q-2 3 -6 10.5l-8.5 16t-9 16t-6.5 10.5q-18 9 -32.5 15t-26.5 10q-24 7 -56 7q-35 0 -50.5 -19.5t-15.5 -53.5q0 -31 8 -59.5t13 -57.5q8 -45 9 -71.5
t9 -39.5q9 -13 30.5 -18t69.5 8z" />
    <glyph glyph-name="E" unicode="E" 
d="M130 392l54 38.5t33 22.5q21 13 39 35l150 10q8 1 9.5 -7.5t1.5 -12.5q0 -10 -7.5 -18t-17 -15t-20 -13.5t-16.5 -13.5q-8 -1 -29.5 -2.5t-45.5 -3.5t-45.5 -3t-29.5 -1h-6h-4q-2 1 -12 -3.5t-31 -22.5q-11 -8 -16 -15.5t-6.5 -14t-1.5 -13.5v-15q0 -14 1.5 -24t18.5 -10
q36 0 68.5 5.5t67.5 5.5h13q9 0 19.5 -0.5t19.5 -0.5h13q-8 -28 -27.5 -41.5t-44 -20t-51 -9t-48.5 -7.5t-36 -16.5t-14 -35.5q0 -11 1 -21t10 -19q3 -3 14.5 -9l24.5 -12.5l24.5 -12t16.5 -6.5q1 0 9.5 -0.5t13.5 -0.5q30 0 58.5 8.5t58.5 12.5q2 0 6 -4t4 -6l-4 -10
q-4 -7 -6 -10t-7 -9q-9 -7 -19 -17.5t-14 -13.5l-46 -19t-39 -13.5t-38 -7.5t-42 -2q-33 0 -60 13t-46 35.5t-29.5 51.5t-10.5 62q0 6 3 19.5t9 30t14 36.5t18 38q19 41 42 66.5t35 41.5z" />
    <glyph glyph-name="F" unicode="F" horiz-adv-x="404" 
d="M9 144q0 56 3.5 106.5t10.5 110.5q7 13 18 29t24 32t28.5 28t31.5 18l49.5 8t64.5 9t67 7t57 3q14 0 23 -12.5t9 -27.5q0 -25 -18 -39t-40 -10q-23 4 -41 16t-78 -4l-116 -16q-20 -27 28 -124q60 16 114 24t116 6q0 -24 -2.5 -32.5t-8 -11.5t-13.5 -6.5t-19 -16.5
q-18 -18 -87 -23q-67 -3 -78 -26q-5 -11 -9.5 -23.5t-8.5 -26.5q-8 -28 -10 -50t-8 -44t-17 -35q-11 -14 -51 -14q-2 0 -6.5 1.5t-6.5 1.5q-9 26 -14 43t-8 32t-3.5 30t-0.5 37z" />
    <glyph glyph-name="G" unicode="G" horiz-adv-x="472" 
d="M320 72q-10 -9 -25.5 -20t-32 -21t-32 -17.5t-25.5 -7.5q-56 0 -103.5 30t-81.5 89l-10 28q-3 28 23 97q25 68 65 123q39 55 90.5 88.5t111.5 33.5h11q13 0 28.5 -1.5t20.5 -1.5q8 -11 9.5 -21t1.5 -24q0 -23 -10 -38t-26.5 -25t-37 -15.5t-43.5 -9.5q-21 -5 -41.5 -9
t-41.5 -12t-41.5 -22t-43.5 -38q-12 -48 10 -82q23 -34 58 -41q36 -6 66 -6t50 12q6 2 14 4t16.5 6.5t16 12t13.5 19.5l-24 12q-32 0 -40 8q-8 9 -9 27t3 32q6 16 16.5 26t24 16.5t29 9t29.5 2.5h34q7 0 14 -0.5t14 -1.5q14 -1 19 -26q1 -10 2.5 -38.5t3 -60t3 -59
t1.5 -39.5v-8q0 -24 -9 -40.5t-23 -28.5t-29.5 -22t-28.5 -20q-11 3 -17.5 12t-11 20t-7 24z" />
    <glyph glyph-name="H" unicode="H" horiz-adv-x="480" 
d="M70 40q0 -1 -4.5 -5t-5.5 -5q-2 -3 -5.5 -14.5t-4.5 -15.5q1 0 4.5 -0.5t5.5 -0.5q18 0 29.5 11.5t19.5 29.5t14 40l12 42t14 36t21 22q9 4 21.5 6.5t26 3.5t26.5 1h22q38 0 57 -13.5t26 -33.5t7 -44t0.5 -44t5.5 -33.5t22 -13.5q15 0 30.5 9.5t28 23.5t20 31t7.5 32v5
q-9 22 -12.5 47.5t-6 49.5t-7 43.5t-14.5 29.5q0 10 -1.5 35.5t-3 54.5t-3 54.5t-2.5 35.5q0 4 -2.5 15t-7 21.5t-12 18t-18.5 5.5q-6 -1 -16 -5.5t-19.5 -11t-17 -15.5t-7.5 -18v-190q0 -2 -11.5 -5.5t-18.5 -4.5h-8q-6 0 -15 -0.5t-18 -0.5h-14h-11t-16.5 0.5t-16.5 0.5
h-11q-3 15 -10.5 46.5t-19.5 63.5t-29 56.5t-40 24.5q-9 0 -21 -4.5t-23.5 -11.5t-19.5 -16t-8 -19q0 -11 4.5 -20t11.5 -17l13.5 -16t11.5 -17q17 -33 24 -65t7 -69q0 -35 -10.5 -72t-10.5 -69v-5q1 -2 5.5 -10t4.5 -10z" />
    <glyph glyph-name="I" unicode="I" horiz-adv-x="260" 
d="M50 21q0 1 -0.5 5t-0.5 6q0 14 5.5 25.5t15.5 26.5q0 11 -0.5 39.5t-0.5 59.5t0.5 59.5t0.5 39.5q0 3 2 13.5t3.5 23t3 23.5t1.5 13v6q0 12 -9.5 19t-21.5 10.5t-23.5 5t-15.5 1.5q14 21 36 37.5t47 27.5t52 16t50 5q3 0 11 -1t16 -1q9 0 17 -0.5t11 -0.5
q-8 -22 -22 -35.5t-29.5 -24.5t-28.5 -23t-20 -31q8 -60 10 -120t0 -120q6 -11 17 -17t23 -10t23 -9t17 -16q-12 -12 -21 -25t-18 -24t-21 -18.5t-30 -7.5q-26 0 -50 9t-50 13z" />
    <glyph glyph-name="J" unicode="J" horiz-adv-x="500" 
d="M180 440q6 13 15 21.5t18.5 15.5l19 14.5t17.5 18.5h243v-14t-1 -16.5t-3.5 -16.5t-8.5 -13l-20 -10l-30 -15l-30 -15l-20 -10q-2 -1 -5.5 -4.5t-4.5 -5.5q2 -32 1 -66t-6 -67q-3 -17 -6.5 -33t-9.5 -33t-14.5 -37t-20.5 -44t-21.5 -40.5t-17.5 -25.5q-7 -9 -16 -15.5
t-19 -12.5q-21 -10 -45.5 -13.5t-44.5 -3.5q-22 0 -46.5 5.5t-45 17.5t-34.5 31.5t-14 46.5q0 8 4 23t10 30.5t15 26.5t20 11q7 0 15 -5t16 -14l17 -19.5t20 -21.5q15 -14 38 -27q24 -11 53 -16q31 -5 60 20q16 35 20 50q3 13 1 39.5t-2 57.5q0 23 -1 46t-3.5 42.5t-8 34.5
t-14.5 22q-7 6 -20.5 10l-28 8t-26.5 9t-15 13z" />
    <glyph glyph-name="K" unicode="K" horiz-adv-x="420" 
d="M170 230q-2 0 -8 -2t-12.5 -6t-12 -7t-7.5 -5q-1 -6 -2.5 -21.5t-3.5 -33t-3 -33.5t-1 -22q-1 -11 -5 -25t-12 -27q-4 -6 -7 -11.5l-6 -10.5q-6 -10 -30 -18l-16 4q2 21 2 35q0 15 -1 23q-2 16 -3.5 30t-1.5 20v10q0 13 -1 46t-3 69.5t-3.5 69t-2.5 45.5q-1 2 -4 7t-7 13
t-6 13t-3 7v5q0 9 8 22t19.5 25t24 20.5t23.5 8.5q4 0 10 -25.5t12 -58.5q4 -16 7 -32.5l6 -32.5t6 -26t4 -16q2 0 7.5 -0.5t7.5 -0.5q13 0 23.5 5.5t19 14t14.5 19t10 20.5q-1 116 42 128l66 8q-78 -163 -55 -181.5l44 -34l40 -30.5q27 -22 44.5 -59.5t17.5 -105.5
q0 -11 -6.5 -23.5t-16.5 -23.5t-23 -18.5t-25 -7.5q-2 0 -8.5 18t-17.5 45t-25.5 57t-32.5 56t-40 42t-46 12z" />
    <glyph glyph-name="L" unicode="L" horiz-adv-x="370" 
d="M106 416q24 17 28 26q4 8 6 10l31.5 21.5t23.5 12.5t23 5.5t30 1.5q23 0 38 -7.5t15 -34.5q0 -10 -6 -22t-15.5 -22.5t-21.5 -17.5t-23 -7q-5 0 -15 3.5t-21 8t-23 10.5t-22 10q-15 6 -37 -19t-30 -64t-8 -81q0 -24 3 -43t7.5 -37.5t10 -37.5t10.5 -44l10 -10
q21 1 56 2.5t71 -2t67.5 -14.5t45.5 -36l-13.5 -10l-21 -15l-21.5 -15l-14 -10l-11.5 -6t-8.5 -4q-11 0 -25 2t-28 6.5t-26.5 11t-20.5 15.5h-150l-1 17.5l-2.5 42.5t-3.5 51.5t-3 43.5v5q0 36 4.5 70t15.5 65q12 32 31.5 59.5t44.5 58.5z" />
    <glyph glyph-name="M" unicode="M" horiz-adv-x="620" 
d="M40 311q-1 10 -6 18t-10.5 14.5t-10 12.5t-4.5 12q0 1 0.5 3.5l0.5 2.5l60 62q1 1 8 2t10 1q8 2 15.5 -5.5l15 -15.5t14 -12.5t13.5 3.5q9 9 45 18q38 9 49 13q13 5 28.5 6t29.5 1q18 0 30 -9q13 -11 22 -23t62 8q26 11 43 17.5l25 9.5q17 4 34 5.5t28 1.5
q16 0 25.5 -2.5t22.5 -18.5q6 -44 10 -79t6.5 -66.5t3.5 -63.5t1 -70q0 -15 -2 -42t-9 -53t-21 -45t-39 -19q-2 0 -5.5 1.5t-4.5 1.5l-30 362q-1 12 -7.5 19.5t-15.5 11.5q-9 5 -19 8q-9 2 -34 -7q-24 -8 -34 -32l-10 -10q0 -2 -1 -15t-1 -26v-13q0 -20 2 -37.5t4.5 -34.5
t4.5 -34.5t2 -36.5q0 -48 -18.5 -80t-62.5 -55q-3 9 -4 20t-3 22.5t-4.5 22.5t-8.5 18q-2 38 -3 77t-7 76t-22 69.5t-48 57.5q-13 -5 -22 -8t-14 -5q-10 -2 -23 -22q0 -12 -2.5 -19.5t-6.5 -15.5t-7.5 -17.5t-4.5 -26.5q0 -11 -0.5 -39t-0.5 -59q0 -32 0.5 -60t0.5 -39
q0 -10 -5.5 -22.5t-13.5 -23.5t-18 -19t-18 -8q-1 0 -3 0.5l-2 0.5q-4 5 -8 16t-6.5 22.5t-4 21t-1.5 12.5q0 9 -1 27.5t-2 42t-2.5 49.5t-2 50t-1.5 42t-1 27z" />
    <glyph glyph-name="N" unicode="N" horiz-adv-x="404" 
d="M40 317q-1 10 -6 18t-10.5 14.5t-10 12.5t-4.5 13q0 1 0.5 3.5l0.5 2.5l60 63q1 1 8 2t10 1q8 2 15.5 -5.5l15 -15.5t14 -12.5t13.5 3.5q9 9 45 18q38 9 49 13q13 5 28.5 6.5t29.5 1.5q18 0 30 -9.5t20 -22t18 -39.5l14 -26q0 -1 -1 -14.5t-1 -26.5v-13q0 -21 2 -39
t4.5 -35t4.5 -35t2 -37q0 -49 -18.5 -81.5t-62.5 -55.5q-3 8 -4 19.5t-3 23.5t-4.5 23t-8.5 18q-2 39 -2.5 78t-7.5 77.5t-22.5 71.5t-39.5 52q-17 -2 -28 -3.5t-16 -3.5q-9 -2 -23 -23q0 -12 -2.5 -19.5t-6.5 -15.5t-7.5 -18t-4.5 -27q0 -12 -0.5 -40.5t-0.5 -59.5
q0 -32 0.5 -60.5t0.5 -40.5q0 -9 -5.5 -22t-13.5 -25t-18 -20t-18 -8q-1 0 -3 1l-2 1q-4 5 -8 16t-6.5 23t-4 22t-1.5 12q0 8 -1 20t-1.5 28t-1 35t-1.5 38q-2 39 -3.5 74t-1.5 48z" />
    <glyph glyph-name="O" unicode="O" 
d="M10 76v11q0 7 -0.5 16.5t-0.5 15.5v13q0 70 23 134t62.5 112t91.5 76.5t110 28.5q18 0 40 -12.5t40 -33t31 -46t13 -50.5q0 -43 -18 -93t-46 -96t-61 -83t-65 -55q-9 -4 -21.5 -7.5t-25.5 -5t-25.5 -2t-23.5 -0.5q-22 0 -39 3.5t-31 11.5t-26.5 23t-27.5 39zM119 182
q0 -29 4.5 -44t13.5 -21.5t23 -7.5t33 -1q20 0 40.5 9t31.5 17q5 4 11.5 21t12 39.5t9 46t3.5 41.5q0 38 -7 57t-20 27t-32.5 8.5t-44.5 0.5q-22 0 -36.5 -19t-24 -48.5t-13.5 -63.5t-4 -62z" />
    <glyph glyph-name="P" unicode="P" horiz-adv-x="490" 
d="M70 140v180q11 11 16 19t5 21q0 19 -11 24.5t-25 7.5l-27.5 4t-17.5 14q12 17 31.5 28t42 18.5t45.5 12.5t41 11h220q11 0 26.5 -7.5t30 -19t24.5 -25.5t10 -28t-6.5 -29t-17.5 -31t-25 -33.5l-28 -36.5q-14 -20 -31 -34.5t-34 -25.5t-32.5 -18l-26.5 -12q-2 -2 -11 -4.5
t-19 -6t-19 -6t-11 -3.5q-16 -6 -23 -20t-10 -32t-5 -37t-8.5 -35t-20 -26.5t-39.5 -10.5q-15 0 -21.5 17.5t-9.5 41t-5 47t-8 35.5zM180 250q15 -15 31.5 -18.5t34.5 -3.5h24q3 0 10 0.5t15 0.5q21 11 35.5 21t23.5 19q17 17 17 49q0 24 -10.5 33t-24.5 13l-27 8t-19 18
h-100l-2.5 -4.5l-6 -11t-6.5 -13.5t-5 -11v-4v-6q0 -5 1.5 -18t3 -27.5t3 -27t2.5 -17.5z" />
    <glyph glyph-name="Q" unicode="Q" 
d="M10 76v11q0 7 -0.5 16.5t-0.5 15.5v13q0 69 23 131.5t62.5 110.5t91.5 76t110 28q18 0 40 -12t40 -32t31 -45t13 -50q0 -42 -18 -93q-18 -50 -33 -80.5t-23 -51.5l40 -88q-64 -47 -108 17l-20 -12l-28 -16q-9 -5 -21.5 -8.5t-25.5 -4.5t-25.5 -1.5t-23.5 -0.5
q-22 0 -39 3t-31 11t-26.5 23t-27.5 39zM114 209q0 -27 7 -45t19.5 -28t29 -13.5t35.5 -3.5h26q7 1 -19 47q-25 46 0 52q26 6 52 -15q26 -20 27 5q0 72 -18 113t-64 39q-22 -2 -39.5 -15t-30 -34t-19 -48t-6.5 -54z" />
    <glyph glyph-name="R" unicode="R" horiz-adv-x="550" 
d="M170 380q-9 8 -17 9.5t-19 1.5q-26 0 -33 -12q-3 -5 -8.5 -15.5t-12 -26t-10.5 -26.5t-8 -18q-5 -15 -17 -25t-37 -10q0 21 10.5 47t27.5 53.5t40 52.5t47.5 45t50 32t46.5 12h200q16 0 35.5 -6.5t36 -18t27.5 -27t11 -33.5q0 -12 -7.5 -29.5t-19 -34.5t-24 -30
t-23.5 -17q-36 -64 -18 -81q9 -9 19 -17t20 -17q21 -17 37.5 -37t16.5 -52q0 -14 -3.5 -28.5t-10.5 -26t-18.5 -19.5t-28.5 -8t-34 18l-36 39t-41 38.5t-49 17.5q-20 0 -31 -9.5t-18 -24.5t-12 -32t-11.5 -32t-17.5 -24.5t-30 -9.5q-11 0 -14 3.5t-6 17.5q-1 5 -2.5 15
l-3 21t-3 20.5t-1.5 13.5q0 11 -0.5 34t-0.5 51v60v60q0 29 0.5 51.5t0.5 33.5zM406 272q28 63 20 79q-8 15 -26 27q-16 11 -38 17t-53 6h-14t-15 -1q-15 -1 -20 -20v-11q0 -8 -0.5 -16.5t-0.5 -16.5v-11q0 -7 -1 -22.5t0 -32t6.5 -29t17.5 -12.5q37 0 71 15q17 8 30.5 15
t22.5 13z" />
    <glyph glyph-name="S" unicode="S" horiz-adv-x="510" 
d="M109 35q0 23 15 34.5t34 11.5q23 0 45.5 -4.5l45.5 -9.5q11 -2 22 -4.5l23 -5.5q22 -6 67 32t33 66q-13 36 -43.5 49.5t-71 15.5t-87 -3.5t-92.5 -6.5q-6 1 -21 4.5t-30.5 9.5t-27.5 15t-12 21q0 17 10.5 40t27.5 47.5t39 48.5t45 43t45 30.5t39 11.5q34 0 65 -7
l61.5 -14.5t62 -14t66.5 -5.5q0 -1 0.5 -2.5t0.5 -2.5q0 -12 -11.5 -24t-28 -20.5t-33.5 -14.5t-28 -6h-170q-10 10 -22.5 10.5t-24.5 0.5q-20 0 -27.5 -7.5t-11 -17l-7.5 -20t-17 -16.5q16 -3 30.5 -8.5l29 -10.5t30 -8.5t34.5 -3.5q4 0 9.5 0.5t10.5 0.5h10.5h5.5
q4 0 17 2t28 3.5t28.5 3t16.5 1.5q21 0 48.5 -2t52.5 -10t42.5 -24t17.5 -44q0 -21 -10.5 -40.5t-26.5 -37.5l-16 -17.5t-17 -16.5t-20 -20l-25 -28q-28 -33 -96 -60h-150q-1 0 -4.5 3t-8.5 8t-9.5 10t-7.5 9l-0.5 2t-0.5 3z" />
    <glyph glyph-name="T" unicode="T" horiz-adv-x="590" 
d="M289 265q0 -43 3 -88.5t8 -86.5q1 -10 4 -25.5t6.5 -30t6.5 -24.5l3 -10h10q4 0 11 9t13.5 20.5t11 23t4.5 17.5v280q0 16 10 24t23.5 12t28 4.5t23.5 0.5h20q11 0 20 -2.5t16 -9.5q7 -6 27 9l42 62v20h-350q-36 0 -75 -15.5t-72 -41.5t-54.5 -60.5t-21.5 -72.5h73
l3.5 30.5t9 43.5t18 39t29.5 17h100q5 -12 16.5 -15t24 -5.5t21.5 -9t9 -24.5q0 -12 -3.5 -23t-7.5 -21.5t-7.5 -22t-3.5 -24.5z" />
    <glyph glyph-name="U" unicode="U" horiz-adv-x="570" 
d="M50 360q-10 8 -17 12.5t-12 8t-7.5 7.5t-3.5 12q0 10 10.5 24t25 26t28.5 21t21 9h5q10 -26 14.5 -54t6 -56.5t0.5 -56.5t-1 -54v-9q0 -1 -1.5 -5.5t-3 -9.5t-3.5 -9.5t-2 -5.5q0 -21 10 -47.5t27 -49.5t38 -38.5t44 -15.5q2 0 6 0.5t5 0.5l98 26q8 10 14 19.5t10 18.5
q9 19 9 70v66v20q0 14 -0.5 30t-0.5 30v20q-7 16 -19 30t-12 31q0 13 6 22.5t15.5 16t21.5 9.5t23 3q6 0 15 -0.5t16.5 -3.5t13 -9.5t5.5 -18.5v-270q0 -20 10.5 -34.5t26.5 -24t34.5 -15t27.5 -10.5l-4 -28q-22 9 -44 -8q-12 -8 -26 -15.5t-30 -14.5q-2 2 -17 4t-23 0
q-7 -1 -13 -2.5t-7 -1.5q-4 0 -8.5 3.5t-10.5 7.5t-12.5 7t-13.5 3q-11 0 -19 -3.5t-15 -8.5l-14 -10.5t-17 -8.5q-30 -12 -49 -16.5t-41 -4.5h-35h-11q-8 0 -16.5 0.5t-16.5 0.5h-11q-8 3 -17 10.5t-16 18t-12 21.5t-5 20v290z" />
    <glyph glyph-name="V" unicode="V" horiz-adv-x="492" 
d="M10 335q0 17 10.5 35.5t26 34t33.5 26t33 10.5q21 0 7 -60q-14 -61 8 -113t48 -103t116 9l17.5 23.5l16.5 21.5q16 23 36 63q8 56 -20 54t-38 4t-14 19t-8 29q4 31 8 39q4 11 24 21q21 11 43.5 16t39.5 5q38 0 59 -22.5t21 -64.5q0 -24 -3 -49t-8.5 -52t-14.5 -50.5
t-23 -43.5q-1 0 -12.5 -11l-30.5 -28.5l-41 -39t-44 -40.5l-40.5 -34t-29.5 -20q-30 -15 -70 -15q-17 0 -34.5 21.5t-34.5 54.5t-31.5 73t-25.5 77t-17.5 67t-6.5 43z" />
    <glyph glyph-name="W" unicode="W" horiz-adv-x="740" 
d="M90 90q-14 60 -29.5 120l-30.5 120q0 1 -3 7.5t-7.5 14t-7.5 14.5t-3 9q0 1 0.5 2.5t0.5 2.5l16 19t22 23.5t25.5 20t27.5 8.5q2 0 7.5 -10t11.5 -25t12.5 -33.5l12.5 -35.5t10 -29.5t5 -17.5l3.5 -17.5t6 -27l6.5 -27.5t4 -18q7 -3 11 -10t7 -16.5t5.5 -20.5t5.5 -23
q5 -22 20 -36q13 -12 37 -4t40 12q13 7 16.5 14.5t7.5 14.5t7.5 15t3.5 19q0 34 -14 70t-31.5 69l-31.5 60t-15 41q0 1 0.5 2.5t0.5 2.5l19.5 22.5t22 23.5t25 18t28.5 7q16 0 29.5 -18.5t24.5 -48.5t20.5 -66t16.5 -71l13 -64t11 -43q13 -8 20 -18.5t14 -22.5q4 -6 9 -12.5
t11.5 -11.5t14.5 -7t17 0q28 0 72 36q12 39 17 66t5 55q0 37 -7 63t-16.5 43t-21.5 27t-21.5 17l-16.5 12.5t-7 12.5q13 16 23 26t20.5 15.5t23.5 7.5t33 2q29 0 45 -9t24 -25.5t10 -39t2 -49.5q0 -51 -14 -96.5t-37 -91.5q-4 -7 -10 -12q-6 -4 -11 -26q-2 -12 -11.5 -33
t-25.5 -53q-45 -8 -72.5 -15t-35.5 -13q-19 -12 -37 -20.5t-27 -7.5q-4 1 -11.5 3.5t-13.5 5.5t-10.5 6t-4.5 5v10q-11 14 -20 20q-14 8 -19 19q-2 5 -5.5 7t-11 0t-19 -9t-29.5 -19q-22 -8 -38.5 -15.5t-27.5 -14.5q-22 -14 -43.5 -16t-31.5 -2q-24 0 -33.5 10t-13.5 24.5
l-8.5 30t-19.5 25.5z" />
    <glyph glyph-name="X" unicode="X" horiz-adv-x="450" 
d="M158 158l-16 -10q-14 -10 -28.5 -18.5t-28.5 -19.5q-7 -5 -13.5 -10.5t-12 -14t-11 -21t-10.5 -30.5q-16 -30 -24 -26q-7 3 -4 145q25 32 33 40q4 4 8 8.5t8 10t17 16.5l34 28l-24 46q-16 29 -36 12q-9 -9 -16.5 -10.5t-13.5 2.5t-8.5 13t-2.5 20q0 7 4.5 15t12.5 18
t17 22.5t18 27.5q17 30 33 43.5t44 13.5l22.5 -36.5l19.5 -30.5q18 -28 54 2q16 12 29.5 26l27 27.5t28 22.5t32.5 11q7 0 13.5 -4.5t6.5 -16.5q0 -22 -13 -41t-28 -37q-8 -9 -15 -18.5l-13 -17.5q-14 -19 -44 -56q12 -16 20 -29t20 -30l10 -15t8.5 -11t9.5 -10t14 -10
q2 0 7.5 -0.5t7.5 -0.5q18 0 29.5 9.5t25.5 30.5q9 -20 17 -45t13 -49l-34 -45t-43 -49q-24 -24 -48 -40q-24 -17 -37 -12l-14.5 18.5t-13.5 15.5q-12 28 -34 55q-21 29 -32 40q-10 11 -26 25z" />
    <glyph glyph-name="Y" unicode="Y" horiz-adv-x="420" 
d="M39 35q0 11 6.5 21t16 18t20 14.5l18.5 11.5l11.5 6t8.5 4q2 0 11 -3l19 -6.5t19 -7t11 -3.5q6 -1 21.5 -2.5t33 -3.5t33.5 -3t22 -1q49 23 48 50q-1 13 -2.5 26.5t-3.5 26.5q-5 27 -17 46.5t-36 19.5q-14 0 -31.5 -8l-37.5 -18t-42 -18t-46 -8q-39 0 -61.5 15t-34 40
t-14.5 56.5t-3 64.5v11q0 8 0.5 16.5t0.5 16.5v11q2 8 8 18.5t13.5 20t17 16t16.5 6.5q12 0 18.5 -16.5t10.5 -41t6.5 -53t8 -53t15.5 -41t26 -16.5l112 20q28 4 32 18q3 14 4.5 27.5t1.5 18.5v16l-10 70v6q0 14 8 25.5t20 20t26 13.5t26 5t19.5 -15t12 -33t6.5 -34t2 -18
v-16q0 -14 0.5 -33.5t0.5 -39.5v-31v-24q0 -17 -0.5 -36t-0.5 -36v-24q-3 -10 -10.5 -22.5t-17 -24t-20.5 -20.5l-41 -31q-30 -22 -51.5 -36t-49.5 -22q-27 -7 -53.5 -9.5t-36.5 -2.5q-4 0 -18.5 1.5t-30.5 6t-29 11.5t-13 16z" />
    <glyph glyph-name="Z" unicode="Z" horiz-adv-x="466" 
d="M397 36q0 24 -16 36t-37 12q-25 0 -49.5 -5l-48.5 -10q-13 -3 -25 -5t-24 -6q-25 -6 107 140.5t137 164.5q5 19 -19 43q-17 19 -36.5 35t-37.5 28t-35 18.5t-30 6.5q-37 0 -71 -7t-67 -15.5t-66.5 -15t-70.5 -5.5q0 -1 -1 -2.5t-1 -2.5q0 -12 12.5 -24t30 -21.5t36 -15
t29.5 -5.5h184q7 6 -25.5 -22.5l-103.5 -91.5q-142 -124 -121 -147q10 -11 22 -25.5t28 -31.5q29 -33 104 -62h162q1 0 4.5 3.5t8.5 9t10.5 10.5t8.5 8l0.5 2t0.5 3z" />
    <glyph glyph-name="bracketleft" unicode="[" horiz-adv-x="280" 
d="M158 428q13 13 23.5 24.5t22.5 22.5q13 11 26 20t20 16h11q-4 -13 -9 -27t-10 -31q-10 -33 -29 -35q-19 0 -67 -74q-48 -73 -44 -114q4 -38 21 -72q18 -34 38.5 -65t36.5 -47h44q12 -64 -6 -67q-18 -2 -36 -5t-40 -3q-34 0 -56.5 13.5t-39.5 36.5t-29.5 54t-24.5 66v6
q0 14 6.5 36t13.5 49q9 29 34 71q27 46 94 125z" />
    <glyph glyph-name="backslash" unicode="\" horiz-adv-x="412" 
d="M378 48l1 13l-201 317l-59 88q0 9 -7 18t-17 15.5t-20 11t-16 5.5q-11 2 -18.5 -5t-12.5 -18t-7 -21.5t-2 -15.5q5 -25 154 -213l114 -146t43 -61q8 -18 19.5 -29.5t29.5 -11.5q2 0 5.5 0.5t4.5 0.5q-1 2 -2 6t-3 9q-3 12 -4.5 18.5t-1.5 18.5z" />
    <glyph glyph-name="bracketright" unicode="]" horiz-adv-x="280" 
d="M113 428q-13 13 -23.5 24.5t-23.5 22.5q-12 11 -25 20t-20 16h-11q4 -13 9 -27t10 -31q10 -33 29 -35q19 0 67 -74q48 -73 44 -114q-3 -39 -22 -72q-17 -34 -37.5 -65t-36.5 -47h-44q-12 -64 5 -67q19 -2 37 -5t40 -3q34 0 56.5 13.5t39.5 36.5t29.5 54t24.5 66v6
q0 14 -6.5 36l-14.5 49q-7 28 -34 71q-25 44 -93 125z" />
    <glyph glyph-name="FL005Eh" unicode="^" horiz-adv-x="434" 
d="M406 198q0 -12 -10.5 -24t-25 -22.5t-28.5 -18t-20 -7.5q-8 0 -20 18t-27 44l-31 56t-31.5 54t-30 39t-25.5 10q-19 -6 -27.5 -22t-11.5 -35.5t-2.5 -39t0.5 -32.5v-11q0 -6 0.5 -13t0.5 -12v-4l29 -31q-6 -9 -17.5 -21t-25 -22.5t-28.5 -18t-29 -7.5q-12 0 -18 7
t-8.5 17t-3 21t-0.5 20q0 14 9.5 41t25 60t35.5 67.5t41.5 62.5t42 46t36.5 18q44 0 69 -16t41.5 -41.5t29 -58t31.5 -64.5q8 -15 18.5 -29t10.5 -31z" />
    <glyph glyph-name="underscore" unicode="_" horiz-adv-x="354" 
d="M1 -70q0 9 14 19.5t35 18.5q23 8 48 13t37 5h94q43 0 66 -3q24 -2 50 -20q-11 -21 -19 -28.5t-20 -12.5q-11 -4 -22 -7t-28 -6l-190 -6q-26 0 -35 6q-4 2 -11.5 7t-18.5 11v3z" />
    <glyph glyph-name="FL0060h" unicode="`" horiz-adv-x="250" 
d="M143 502q1 -2 12 -19t24.5 -36t24 -35.5t10.5 -19.5q-1 -5 0.5 -8t4.5 -6t5 -6t2 -8l-12 -18q-6 -8 -18 -3.5t-24.5 14t-23.5 20t-16 14.5l-113 79l35 49q5 -5 19.5 -3.5t30 2.5t27.5 -1.5t12 -14.5z" />
    <glyph glyph-name="a" unicode="a" horiz-adv-x="410" 
d="M8 103q0 -57 29.5 -80.5t82.5 -23.5q26 0 46 6.5t35.5 14.5l28 14.5t24.5 6.5q17 0 24 -7.5t12 -23.5q4 -1 17.5 -2t17.5 -1q13 0 26.5 3t24.5 9.5t18 17.5t7 27q0 3 -0.5 9t-0.5 7t-3 5.5t-7 9.5t-7 9.5t-3 5.5q-15 54 -18.5 105t-11.5 105h-12q-8 0 -18 0.5t-19 0.5
h-11q-47 0 -97 -13.5t-91 -40.5t-67.5 -68t-26.5 -96zM89 178q0 46 26.5 64t74.5 18q30 0 46 -8t24 -22.5t9.5 -34.5t1.5 -45v-12q0 -8 -0.5 -18t-0.5 -19v-11q-11 -17 -29 -19t-36 -2q-4 0 -17.5 0.5t-17.5 0.5q-10 15 -24 25.5t-26.5 21.5t-21.5 25t-9 36z" />
    <glyph glyph-name="b" unicode="b" horiz-adv-x="360" 
d="M9 260q0 20 5 43t12.5 46.5l14 44t9.5 36.5q11 7 17 15t11.5 16.5t12.5 16t19 12.5q0 -1 0.5 -4.5t0.5 -5.5q0 -6 -1.5 -11.5t-9.5 -8.5v-10q0 -7 -0.5 -15t-0.5 -15v-10q0 -19 2 -31.5t5.5 -24.5l7 -24t6.5 -30q1 0 4.5 -0.5t5.5 -0.5q16 0 32.5 9.5t34.5 21.5
t38.5 21.5t44.5 9.5h26q14 0 24 -11q2 -4 5 -16l6 -24.5t5.5 -24t3.5 -15.5v-10v-10q-2 -5 -9 -18l-15 -27.5l-15.5 -27l-10.5 -17.5l-7 -7q-3 -3 -5.5 -6t-6 -6t-11 -12.5l-20.5 -25.5q-12 -16 -22 -26.5t-19.5 -19t-19 -15l-19.5 -13.5q-21 -14 -44.5 -21.5t-45.5 -7.5
q-14 0 -25 16t-19 41t-13 55.5t-8.5 59.5t-4.5 53t-1 35zM222 104q33 45 36 54q5 9 8.5 19.5t3.5 23.5q0 18 -9.5 34.5t-23.5 28.5q-15 13 -33 16.5t-34 3.5q-12 -4 -24 -10t-16 -14q-5 -7 -8 -20t-3 -23q0 -15 -1 -38t1 -45t9.5 -38.5t25.5 -16.5q20 0 37.5 5.5t30.5 19.5z
" />
    <glyph glyph-name="c" unicode="c" horiz-adv-x="288" 
d="M9 107q0 -35 5 -56t17.5 -32.5t34 -15.5t54.5 -4q16 0 38.5 0.5t43.5 6.5t35.5 19.5t14.5 39.5q0 2 -0.5 7.5t-1.5 7.5q-29 3 -59 8t-55 17.5t-41 35t-16 59.5q0 28 14.5 42t36 21t46.5 10t46.5 10.5t36 23.5t14.5 47q-46 0 -93 -20.5t-85 -55t-62 -79t-24 -92.5z" />
    <glyph glyph-name="d" unicode="d" horiz-adv-x="400" 
d="M250 71q-18 0 -34.5 -6.5l-35 -14.5t-40.5 -14.5t-51 -6.5q-24 0 -39.5 4t-24.5 13.5t-12.5 25.5t-3.5 40q0 29 10.5 54t27.5 46.5t38.5 39t44.5 31.5q16 11 30 19.5l28 16.5q29 17 53 18q26 1 41 21l-7.5 29t-6.5 23q-2 10 -4.5 15.5t-5 9t-5.5 5.5t-7 6q-16 16 -14 16
l5 2.5l9 4.5l17.5 8.5t18.5 9.5t16.5 8t11.5 5q1 0 4.5 0.5t5.5 0.5q18 0 30 -13.5t18.5 -33.5t9 -44t2.5 -46v-44l10 -210v-18q0 -17 -7 -31.5t-18.5 -25.5t-25.5 -20t-29 -15q-12 8 -16 20l-8 23.5t-11 19.5t-25 8zM99 190q0 -19 2 -35.5t9.5 -28.5t23.5 -19.5t43 -7.5h32
q28 0 54.5 6.5t39.5 24.5v10q0 7 0.5 15t0.5 15v10q0 22 -2 39t-9.5 28t-23.5 17t-45 6q-30 0 -53.5 -2.5t-39 -11t-24 -24t-8.5 -42.5z" />
    <glyph glyph-name="e" unicode="e" horiz-adv-x="270" 
d="M9 120q0 36 16.5 75t44.5 72t64.5 54t75.5 21h8.5t11.5 -0.5l12 -1t8 -0.5q9 -2 10 -10t1 -15q0 -28 -13.5 -56.5t-29.5 -52.5l-32 -48t-17 -38v-7q0 -7 2 -17.5t9 -10.5h88l-2 -9.5t-6 -15.5q-11 -14 -26.5 -25.5t-33.5 -19.5t-36.5 -12t-36.5 -4q-65 0 -91.5 28
t-26.5 93zM89 210q0 -4 2 -17.5t6.5 -26.5t12.5 -22t20 -4q13 6 21 15t12.5 20t6 23t1.5 24q0 26 -9.5 38t-36.5 12q-3 0 -12.5 -1t-12.5 -1q-9 -16 -10 -29.5t-1 -30.5z" />
    <glyph glyph-name="f" unicode="f" horiz-adv-x="300" 
d="M90 122l-10 60q-14 2 -35 6t-35 14q4 12 11.5 22.5t16 20l17 19t15.5 18.5q21 32 40.5 69.5t43.5 69.5t57 53.5t81 21.5q0 -21 -9.5 -39.5t-25 -31.5t-35.5 -19.5t-42 -3.5q-8 -9 -9.5 -16t-1.5 -18q0 -31 8.5 -48.5t20.5 -26t26.5 -12t27 -5.5t21 -5.5t8.5 -13.5
q0 -19 -14.5 -30.5t-32.5 -21.5l-34 -19.5t-20 -23.5q-1 -4 -2.5 -13t-3 -20l-3 -21t-1.5 -16q0 -12 -0.5 -43t-0.5 -67q0 -35 0.5 -66.5t0.5 -43.5q-3 -10 -11.5 -24.5t-20.5 -28t-24 -23t-24 -9.5v335z" />
    <glyph glyph-name="g" unicode="g" horiz-adv-x="360" 
d="M50 -153v5q23 26 38 39.5t26.5 19t21 6t21.5 0.5q13 0 30 2.5t43 12.5q5 2 12.5 9.5t7.5 10.5v90q0 8 -7.5 9.5t-12.5 1.5q-16 0 -30.5 -6.5t-29 -14t-29 -14t-31.5 -6.5q-46 0 -73.5 22t-27.5 68q0 50 24 92.5t62 73.5t84.5 48.5t92.5 17.5h12q11 0 22.5 -1t13.5 -1
l10 -10l1.5 -9.5t3 -22t3 -26.5t2.5 -22q1 -17 2.5 -46t3.5 -57t3 -50.5t1 -26.5q-2 -42 -22.5 -86.5t-52.5 -81t-72.5 -60t-82.5 -23.5h-22q-8 0 -16.5 1.5t-15.5 5.5t-11.5 11t-4.5 18zM99 200q0 -48 27.5 -77.5t73.5 -29.5q32 0 41.5 14t9.5 46q0 27 -2.5 46t-10.5 31.5
t-24 18.5t-44 6h-8t-12 -0.5t-12 -0.5h-8q-14 -11 -22.5 -24t-8.5 -30z" />
    <glyph glyph-name="h" unicode="h" horiz-adv-x="360" 
d="M30 60l-20 240v11q0 11 3.5 35t9.5 60q3 18 7 33.5t10 27t14 17t20 2.5q4 -40 5 -58q1 -19 3.5 -42t6.5 -47q3 -23 9 -44q4 -9 6 -15t5.5 -9t8 -4.5t12.5 -4.5q16 4 37 8t40 19.5t39.5 28t43.5 12.5q20 0 32.5 -10.5t19.5 -27.5t9.5 -38t2.5 -43q0 -21 -1.5 -39.5
t-1.5 -31.5v-10q0 -7 -0.5 -15t-0.5 -15v-10q-8 -20 -25 -35.5t-40 -15.5q-2 0 -7.5 0.5t-7.5 0.5q-1 20 -1 42q0 24 -1.5 46t-5 42.5t-12 36t-24 25t-40.5 9.5q-34 0 -51 -20t-23 -48.5t-5 -59.5t3 -53q-2 -8 -8 -18.5t-14 -20t-17 -16t-16 -6.5q-1 0 -2.5 0.5t-2.5 0.5
q-2 14 -7 31t-13 29z" />
    <glyph glyph-name="i" unicode="i" horiz-adv-x="156" 
d="M14 212q0 12 7 25t18 24t24.5 18t26.5 7h6l4.5 -2t10 -5.5l10.5 -7t5 -6.5v-183q0 -13 -9.5 -25.5t-22 -22.5t-26.5 -19t-22 -15q-2 21 -7 47.5l-10.5 54.5t-10 56.5t-4.5 53.5zM116 475v-53q-12 -4 -21.5 -12.5l-19 -17.5t-20 -15.5t-25.5 -6.5q0 20 5 39t15.5 34
t26.5 23.5t39 8.5z" />
    <glyph glyph-name="j" unicode="j" horiz-adv-x="202" 
d="M162 463v-53q-12 -4 -21.5 -12.5l-19 -17.5t-20 -15.5t-24.5 -6.5q0 20 4.5 39t15 34t26.5 23.5t39 8.5zM162 270q22 -113 21 -146l-2 -33.5t-4 -33.5q-5 -34 -16 -66.5t-35 -80.5t-39 -66q-14 -18 -35 -28t-45.5 -13.5t-44.5 -3.5q-22 0 -46.5 5.5t-45.5 17.5
t-34.5 31.5t-13.5 46.5q0 7 4 22.5t10 30.5t15.5 26.5t19.5 11.5q7 0 15 -5.5t16 -14l17 -19t21 -21.5q16 -16 38 -26q21 -12 52 -17t60 20q16 35 20 50q3 13 1 39.5t-2 57.5t-14 94q-13 61 -17 97t84 24z" />
    <glyph glyph-name="k" unicode="k" horiz-adv-x="338" 
d="M10 241q0 63 22.5 116t71.5 105q20 20 22.5 14t2.5 -22q-9 -20 -16.5 -35t-14.5 -26q-12 -21 -12 -45v-23q0 -9 2 -19t5.5 -18.5t10 -13.5t16.5 -5q2 0 7 0.5l5 0.5q1 0 5.5 5t5.5 6q6 3 23.5 10l37.5 15l37.5 15.5t23.5 10.5q1 0 2.5 0.5t3.5 0.5q9 0 13 -6t4 -14
q0 -19 -7 -34.5t-16.5 -30t-16.5 -29.5t-7 -33q0 -16 12.5 -25t28 -18t28 -19t12.5 -28q0 -12 -2.5 -27t-9.5 -28t-18 -22t-27 -9q-2 0 -6 0.5t-5 0.5q-2 1 -7 5.5l-10.5 9.5t-10 10t-5.5 6l-7.5 1.5t-12.5 14.5t-14 17t-25 15l-20 -4q-9 -9 -15 -17t-11.5 -14.5l-10 -11.5
t-11.5 -9q-12 -8 -22 -17t-18 -17l-34 32l-1 20.5t-3 48.5t-3.5 57.5l-2.5 49.5v33zM170 231q-13 0 -26 -4.5t-23 -13t-16.5 -20.5t-6.5 -27q7 0 23.5 5t34.5 7t31.5 10t13.5 21q0 16 -8.5 19t-22.5 3z" />
    <glyph glyph-name="l" unicode="l" horiz-adv-x="160" 
d="M10 348q0 10 2.5 29t8.5 38t16.5 32.5t27.5 13.5q1 0 3 -0.5l2 -0.5q1 -2 4.5 -6t6 -8.5t5.5 -8.5t4 -7q1 -9 2.5 -28t3 -42.5t3.5 -49.5t4 -49.5t4 -42.5l3 -28q2 -18 5.5 -33t7.5 -29q3 -7 4 -14.5t2.5 -14t3 -10.5t4.5 -4q4 0 13 -5q8 0 8 -10q0 -11 -7 -19l-10 -6
q-6 -3 -8.5 -4l-2.5 -1l-80 -40q-1 0 -4.5 4t-5.5 6q-6 10 -10.5 36t-8 60.5t-5.5 73t-3.5 72.5t-2 60t-0.5 36z" />
    <glyph glyph-name="m" unicode="m" horiz-adv-x="570" 
d="M60 20l20 -20q24 20 35.5 45.5t17 52t8 52.5t8 46t16.5 32.5t34 12.5q5 0 14.5 -3t18.5 -7.5t16 -10t7 -10.5v-160q0 -14 8 -17.5t16 -3.5q28 0 42.5 17t21 43t8 55.5t5.5 55.5t13.5 43t30.5 17q25 0 37 -12.5t16 -32.5t4 -46q0 -25 1.5 -50.5t7.5 -49t24 -39.5
q24 14 38 32t21.5 38.5t9.5 44.5t2 50v13t-0.5 19.5t-0.5 19.5v13q-5 10 -9 22.5t-10 23t-14 18t-21 7.5q-19 0 -38 -9.5t-36 -21l-32 -21t-25 -9.5h-5q-11 4 -20 12t-17 16.5t-17 15t-21 6.5q-19 0 -35 -8t-31 -18t-31 -18t-34 -8q-13 0 -21 5t-14.5 11.5t-13.5 11.5t-19 5
t-28 -6t-30 -15.5t-22.5 -22.5t-5.5 -27q1 -5 7 -15.5t14.5 -22t16.5 -21t12 -11.5v-140z" />
    <glyph glyph-name="n" unicode="n" horiz-adv-x="374" 
d="M9 257q0 13 9.5 23t23 16.5t28.5 9.5t26 3q10 0 16.5 -5.5t12.5 -11.5t12.5 -11t16.5 -5q17 0 31 7t28 15t29 14.5t33 6.5q20 0 31.5 -8.5t21.5 -18.5t21 -18.5t9 -20.5l-18 -27q0 -7 0.5 -24.5t0.5 -36.5q0 -20 -0.5 -37.5t-0.5 -24.5q-1 -9 -6.5 -22t-14 -24t-19 -18.5
t-20.5 -7.5q-3 0 -10.5 4t-9.5 7q-1 5 -1.5 12.5t-0.5 17.5q0 24 -1 56.5t-7 61.5t-19 49t-36 20q-24 0 -34.5 -13.5t-14.5 -35t-5 -49.5t-6 -57t-17 -56t-38 -48q-14 9 -21 22.5t-9 29.5q-1 5 -2.5 26t-3 45.5t-2.5 45.5t-2 26q-1 11 -6 18.5t-10.5 14t-10 13.5t-4.5 16z
" />
    <glyph glyph-name="o" unicode="o" horiz-adv-x="370" 
d="M9 109q-4 51 18 92t58.5 70t82.5 44.5t92 15.5q49 0 75 -27.5t26 -75.5q0 -4 -0.5 -10.5t-0.5 -7.5q-10 -44 -30 -83t-50 -67.5t-68.5 -44.5t-86.5 -16h-11q-8 0 -16.5 0.5t-16.5 0.5h-11q-17 13 -29 24t-19.5 23.5t-10 27.5t-2.5 34zM99 208q0 -62 29.5 -95.5
t92.5 -33.5q21 0 35 15t14 40q0 28 -6.5 51t-21 40t-36 26.5t-51.5 9.5q-25 0 -40.5 -14.5t-15.5 -38.5z" />
    <glyph glyph-name="p" unicode="p" horiz-adv-x="360" 
d="M9 222q0 27 14.5 39t35.5 15.5t43.5 2.5t37.5 1q18 2 32 10.5l29 17.5t32.5 16t41.5 7q41 0 58.5 -15t17.5 -56q0 -33 -10.5 -52l-20.5 -38l-9.5 -15.5t-8.5 -12.5q-8 -10 -36 -58l-126 -94q-1 -12 -3 -34t-8.5 -43.5t-19 -37.5t-34.5 -16q-1 0 -2.5 0.5t-2.5 0.5
q-3 70 -14.5 141t-25.5 139q-5 22 -13 41t-8 41zM242 104q36 49 31 71q-3 11 -7 22t-9 20q-11 19 -28 31.5t-44 12.5q-6 0 -15 -2t-18 -6t-15.5 -9.5t-6.5 -13.5v-120q0 -17 14 -24t31 -8q9 -1 17.5 -1.5t16.5 1.5t16.5 8t16.5 18z" />
    <glyph glyph-name="q" unicode="q" horiz-adv-x="350" 
d="M209 41q-12 0 -24.5 -6.5t-25.5 -14t-27 -14t-28 -6.5q-48 0 -69 24.5t-21 70.5q0 8 7.5 24.5t18 37t24.5 42t28.5 40.5t28 33t23.5 18q28 12 63 16.5t67 4.5q17 0 33 -2.5t27 -18.5q0 -13 1 -39.5t2 -60t2.5 -70.5t2 -70.5t1.5 -60.5t1 -39v-23q0 -12 -6.5 -24
t-16.5 -22t-22.5 -16t-24.5 -6q-2 0 -5.5 0.5t-4.5 0.5q0 7 -1 24t-3 36t-3.5 36t-2.5 24q-2 19 -11 41q-8 20 -34 20zM97 164q0 -41 18.5 -61t59.5 -20q21 0 35.5 1.5t23 8.5t12.5 20t4 36q0 17 -3.5 33t-11.5 27.5t-21.5 18t-33.5 6.5h-19t-24 -3.5t-22.5 -9.5t-14.5 -17
q0 -2 -1 -8t-1 -12t-0.5 -12t-0.5 -8z" />
    <glyph glyph-name="r" unicode="r" horiz-adv-x="320" 
d="M9 246q0 -3 0.5 -9t0.5 -7q1 -3 5.5 -13l9.5 -22l9.5 -22t5.5 -13q2 -9 5 -32l6.5 -48.5t6 -48t2.5 -31.5q1 0 4.5 -0.5t5.5 -0.5q9 0 21 8t23 19t18.5 23.5t7.5 20.5v150q0 1 4.5 6t11 11l13 12.5t11.5 10.5l1.5 0.5t3.5 0.5q8 0 15 -4t13.5 -9l13 -10t13.5 -8l17.5 15
t23.5 23t21 26.5t9 25.5q0 14 -7.5 17.5t-19.5 3.5q-20 0 -36.5 -9.5t-32 -21.5t-31.5 -21.5t-35 -9.5q-12 0 -17.5 5t-9.5 11t-9 11t-17 5q-14 0 -29 -4.5t-28 -12.5t-21.5 -20t-8.5 -28z" />
    <glyph glyph-name="s" unicode="s" horiz-adv-x="300" 
d="M210 110q0 -18 -13 -23.5t-32 -6.5t-42 -1q-22 0 -41 -7t-32 -24.5t-13 -52.5q40 0 85 14t82.5 39.5t62 62.5t24.5 84q0 3 -0.5 12.5t-0.5 12.5q-18 11 -45.5 12.5t-53 3.5t-44 11.5t-18.5 37.5q0 2 0.5 7.5t0.5 7.5q17 1 38 2.5t39.5 7.5t31 18.5t12.5 36.5
q0 2 -0.5 7.5t-0.5 7.5q-31 -6 -72 -23t-78.5 -42t-63.5 -57t-26 -68q0 -10 15 -14.5t37 -8t48 -6t48 -8t37 -16t15 -27.5z" />
    <glyph glyph-name="t" unicode="t" horiz-adv-x="320" 
d="M130 10q-2 4 -7 15t-9.5 24l-8.5 25t-5 16q-3 11 -3.5 31.5t-2.5 42.5t-7 41t-17 25q-7 4 -17.5 4.5t-20.5 2t-16.5 6.5t-6.5 17q0 2 0.5 5.5t0.5 4.5q4 4 13 11.5l19 16.5q4 5 8 8.5t9 7t12 7l19 9.5q2 12 4.5 23.5t4 22.5t6.5 28.5t13 41.5q8 20 22 26q17 0 24.5 -9.5
t10.5 -24.5q3 -12 1 -46t10 -60l24 -2h5h10h9h6q4 0 14 -1.5t21.5 -3t21 -3t13.5 -2.5q1 -2 1.5 -7.5t0.5 -7.5q0 -22 -16 -32t-36 -19q-21 -11 -42 -24q-24 -14 -24 -26q0 -117 25 -122q13 -4 30.5 -6.5t40.5 -5.5q-13 -32 -44.5 -51.5t-65.5 -19.5q-15 0 -25.5 1.5
t-24.5 9.5z" />
    <glyph glyph-name="u" unicode="u" horiz-adv-x="400" 
d="M245 71q15 0 23 -11.5t14 -25t12.5 -24.5t20.5 -11q12 0 25 6t24 16t18.5 23t7.5 26t-3.5 28.5t-16.5 21.5q-1 5 -4 17.5t-6 27t-6 27.5t-4 18l-10 70l-4.5 24t-14.5 8q-15 0 -26 -10.5t-18 -25t-11.5 -30.5t-5.5 -26q-1 -5 -2.5 -17.5t-3 -27t-3 -27.5t-1.5 -18
q-5 -19 -20 -20t-28 -1q-33 0 -48.5 16.5t-21.5 41t-5.5 53t0.5 52.5q0 25 -3.5 41.5t-17.5 16.5q-15 0 -32 -7.5t-31.5 -19.5t-24 -27.5t-9.5 -30.5q0 -1 0.5 -3l0.5 -2q5 -8 12.5 -14l15 -12.5t12.5 -14.5t5 -19v-140q0 -9 6 -13t14.5 -6t16.5 -2h12q21 0 38.5 8t34 18
t33 18t35.5 8z" />
    <glyph glyph-name="v" unicode="v" horiz-adv-x="410" 
d="M10 240q0 -18 11 -32t19 -28q18 -33 30.5 -65.5t29.5 -58t42.5 -41t67.5 -15.5q16 0 37 18t42 46t41 62.5t36 67t25.5 59.5t9.5 41q0 9 -0.5 20t-3 21.5t-9 17.5t-18.5 7q-14 0 -28.5 -7.5t-28 -18.5t-25 -23t-18.5 -21l30 -30v-5t0.5 -11.5t0.5 -13.5v-10
q0 -14 0.5 -33.5t-3 -38.5t-12 -35t-26.5 -23q-11 -5 -25.5 10t-30 39.5t-31.5 54.5l-31 56t-27 43.5t-20 17.5q-6 0 -20.5 -7t-28.5 -17.5t-25 -23t-11 -23.5z" />
    <glyph glyph-name="w" unicode="w" horiz-adv-x="640" 
d="M275 107q-21 0 -36 -13.5t-31 -30.5t-36.5 -30.5t-52.5 -13.5q-14 0 -22 9.5t-13.5 22.5t-8 26t-5.5 20l-11 25.5t-17.5 38.5l-18.5 37.5t-13 24.5q0 3 -0.5 12t-0.5 12q0 25 12.5 44.5t43.5 19.5q25 0 40.5 -14.5t25 -36.5t16 -47t15 -47t22 -36.5t37.5 -14.5
q20 0 35.5 12.5t15.5 32.5q0 3 -0.5 8.5t-1.5 5.5l-60 87q12 9 21 22.5l18 26t21 21.5t28 9q20 0 33 -17t23 -43t19 -56.5t22 -56.5t32 -43.5t50 -17.5q32 0 52.5 22t20.5 56q0 18 -6.5 30t-16.5 20t-22 14t-22 12t-17 12t-7 14q0 16 13 27.5t30.5 19.5t36.5 11.5t31 3.5
q15 0 26.5 -7t19 -18.5t11.5 -25t4 -26.5q0 -23 -11 -52t-29.5 -59t-43.5 -59t-52.5 -52t-56 -36.5t-54.5 -13.5q-18 0 -28 8t-17.5 20t-12.5 26t-11.5 26t-15.5 20t-24 8z" />
    <glyph glyph-name="x" unicode="x" horiz-adv-x="300" 
d="M105 60q-16 0 -25 -11q-4 -6 -8.5 -10.5l-8.5 -8.5t-11 -12l-18 -20l-16 6l26 43.5t13 22.5q7 13 9.5 24t3.5 16q0 1 0.5 6.5t0.5 8.5q0 19 -9.5 35t-21.5 31t-21.5 29t-9.5 30q0 9 10 19.5t23.5 19.5t27 15.5t20.5 6.5q12 0 20.5 -6.5t17 -14t17 -14t20.5 -6.5h5
q2 1 6 2t10 2q10 4 44 38l16 -8q-50 -64 -44 -91q5 -27 15 -46t22 -31l19 -16.5t16.5 -15t11.5 -16t4 -18.5q0 -12 -10 -25t-25 -23.5t-30 -17t-25 -6.5q-18 0 -28 9.5t-18.5 21.5t-19 21.5t-29.5 9.5z" />
    <glyph glyph-name="y" unicode="y" horiz-adv-x="370" 
d="M280 -30v16q0 6 -1 20.5t-3 30t-3.5 29.5t-2.5 20q-1 0 -5 0.5t-9 1t-10 0.5h-6q-19 0 -34 -9.5t-28.5 -21t-28.5 -21.5t-34 -10q-21 0 -34 13.5t-21.5 32t-13 39t-6.5 35.5q0 4 -1 18.5t-3 31.5t-3.5 31.5t-2.5 18.5q0 1 -2.5 7t-6 13t-7 13t-4.5 7l-0.5 2t-0.5 3
q0 9 7.5 18.5t18.5 18t23.5 13.5t21.5 5q11 0 17 -15.5t10 -39l8.5 -50.5t14 -51t26.5 -39.5t45 -15.5q22 0 36 3.5t21.5 12.5t10 23.5t2.5 36.5q0 24 -6 45.5t-6 45.5t15.5 39t40.5 15q7 0 13 -7.5t11 -16.5t8 -17t3 -9q9 -38 10 -80.5t1 -80.5q0 -16 1 -37.5t0 -43.5
t-6 -43t-16 -35q-5 -7 -19 -23.5l-30 -36l-30.5 -36.5l-20.5 -24q-2 -1 -6 -2.5t-8.5 -3.5t-8.5 -3t-7 -1q-5 0 -20 -1t-31.5 -1t-31.5 -1t-21 -1q0 9 2 23.5t7 28t13.5 23t21.5 9.5h120q7 0 8.5 9t1.5 16v9z" />
    <glyph glyph-name="z" unicode="z" horiz-adv-x="300" 
d="M181 210q0 8 -11 14t-27.5 11.5t-36.5 10t-39.5 7.5t-34.5 4.5t-22 2.5q25 35 66.5 51.5t83.5 18.5q7 0 26 -1t39.5 -3t39 -3.5t25.5 -2.5q-5 -8 -19.5 -29t-32.5 -44l-17 -22.5t-18 -24.5q-17 -24 -53 -70q1 -2 4.5 -10t5.5 -10q5 0 17.5 -1.5t27 -3l28 -3t17.5 -2.5
t9 -3.5t10 -5.5t8.5 -7t3.5 -9q0 -9 -8.5 -22t-20.5 -25t-26 -20.5t-25 -8.5q-17 0 -36 4t-38 9.5t-38.5 10.5t-38.5 7v30q7 6 17 20q11 16 21 28l24 30l15 17.5t17 18.5q18 18 27.5 24t9.5 12z" />
    <glyph glyph-name="braceleft" unicode="{" horiz-adv-x="280" 
d="M158 54q13 -13 23.5 -24.5t22.5 -22.5q13 -11 26 -20t20 -16h11q-4 13 -9 27.5t-10 31.5q-10 33 -29 33q-19 2 -67 75t-44 113q4 39 21 74q18 33 38.5 64t36.5 47h44q12 64 -6 66l-36 6t-40 3q-34 0 -56.5 -13t-39 -36.5t-29 -54.5l-25.5 -66v-6q0 -14 6.5 -36t13.5 -49
q8 -26 34 -72q14 -21 37 -52t57 -72z" />
    <glyph glyph-name="bar" unicode="|" horiz-adv-x="160" 
d="M142 101q0 -12 -2 -37t-8.5 -49.5t-17.5 -43t-27 -18.5q-1 0 -3 2.5l-2 2.5q-2 2 -11 17q-8 16 -9 19q-1 20 -3.5 63.5l-5.5 93.5q-2 26 -3 50.5t-2.5 46t-3 38t-2.5 24.5q-2 24 -5.5 43.5t-7.5 38.5q-2 10 -3.5 19.5t-3 18l-4.5 26.5l-7 44q6 4 8.5 5.5l2.5 1.5l80 52
q1 0 4.5 -5t5.5 -9q5 -7 8.5 -29t6.5 -52t5.5 -66t4 -73l3 -72.5t2 -65.5t0.5 -53v-33z" />
    <glyph glyph-name="braceright" unicode="}" horiz-adv-x="280" 
d="M113 54q-13 -13 -23.5 -24.5t-23.5 -22.5q-12 -11 -25 -20t-20 -16h-11q4 13 9 27.5t10 31.5q10 33 29 33q19 1 67 74.5t44 113.5t-22 74q-17 33 -37.5 64t-36.5 47h-44q-12 64 5 66l37 6t40 3q34 0 56.5 -13t39 -36.5t29 -54.5l25.5 -66v-6q0 -14 -6.5 -36l-14.5 -49
q-7 -27 -34 -72q-25 -44 -93 -124z" />
    <glyph glyph-name="FL007Eh" unicode="~" horiz-adv-x="285" 
d="M5 140q0 22 6.5 42t18.5 32q24 29 63 29q24 0 66 -22h-1q10 -4 16.5 -7t9.5 -3q5 0 9.5 -1t12 1.5t19 11.5t29.5 30l20 -20q0 -35 -7.5 -56t-20 -32t-28.5 -13.5t-34 -2.5q-28 0 -66 23q-18 11 -26 11q-6 0 -9.5 -2.5t-7.5 -6.5q-9 -7 -20 -14.5t-33 -11.5z" />
    <glyph glyph-name="FL20ACh" unicode="&#x20ac;" horiz-adv-x="460" 
d="M9 39q10 30 20.5 76.5l23 99t28 106t36.5 95.5t49 69t64 27q16 -2 34 -17.5t36 -38t34.5 -49t30 -51.5t23 -45.5t12.5 -30.5l24.5 -90l25.5 -90v-4v-4v-31.5v-18.5v-6.5t-1 -1.5q-19 0 -48 -2t-59.5 -3.5t-57 -3t-39.5 -1.5q-35 0 -65.5 -4t-56.5 -8.5l-47.5 -8.5
t-35.5 -4q-11 0 -17.5 1.5t-9.5 6t-3.5 11.5t-0.5 17v4z" />
    <glyph glyph-name="FL201Ah" unicode="&#x201a;" horiz-adv-x="130" 
d="M9 42q0 13 8 26t20.5 22.5t28 15.5t30.5 6q10 0 12.5 -10.5t2.5 -22.5v-12q0 -9 -2.5 -28.5t-9.5 -38.5q-4 -10 -8.5 -18t-10.5 -16t-14.5 -18l-19.5 -22q-28 0 -16 24q10 24 0 41q-12 17 -16.5 32t-4.5 19z" />
    <glyph glyph-name="FL0192h" unicode="&#x192;" horiz-adv-x="300" 
d="M91 -34l-11 216q-14 2 -35 6t-35 14q4 12 11.5 22.5t16 20l17 19t15.5 18.5q21 32 40.5 69.5t43.5 69.5t57 53.5t81 21.5q0 -21 -9.5 -39.5t-25 -31.5t-35.5 -19.5t-42 -3.5q-8 -9 -9.5 -16t-1.5 -18q0 -31 8.5 -48.5t20.5 -26t26.5 -12t27 -5.5t21 -5.5t8.5 -13.5
q0 -19 -14.5 -30.5t-32.5 -21.5l-34 -19.5t-20 -23.5q-1 -4 -2.5 -13t-3 -20l-3 -21t-1.5 -16q0 -12 -0.5 -43t-0.5 -67q0 -12 -9 -26t-22.5 -29.5t-28.5 -30.5l-29 -28t-22.5 -22.5t-8.5 -13.5q-3 -10 -19 -16t-36 -9.5t-40 -4.5t-31 -1z" />
    <glyph glyph-name="FL201Eh" unicode="&#x201e;" horiz-adv-x="284" 
d="M9 42q0 13 8 26t20.5 22.5t28 15.5t30.5 6q10 0 12.5 -10.5t2.5 -22.5v-12q0 -9 -2.5 -28.5t-9.5 -38.5q-4 -10 -8.5 -18t-10.5 -16t-14.5 -18l-19.5 -22q-28 0 -16 24q10 24 0 41q-12 17 -16.5 32t-4.5 19zM162 42q0 13 8 26t20 22.5t28 15.5t31 6q9 0 12 -10.5t3 -22.5
v-12q0 -9 -2.5 -28.5t-9.5 -38.5q-4 -10 -8.5 -18t-11 -16l-14.5 -18t-19 -22q-28 0 -17 24t0 41t-15.5 32t-4.5 19z" />
    <glyph glyph-name="FL2026h" unicode="&#x2026;" horiz-adv-x="486" 
d="M9 35q0 12 8.5 25.5t22 24.5t28.5 18t27 7q17 0 21.5 -7.5t4.5 -21.5q0 -13 -6 -27.5t-16 -26.5t-23 -20t-27 -8q-7 0 -11.5 1.5t-8.5 5.5t-8 10t-11 14l-0.5 1.5t-0.5 3.5zM159 36q0 12 9 25.5t22 24.5t28.5 18t27.5 7q16 0 20.5 -7.5t4.5 -21.5q0 -13 -6 -27.5
t-16 -26.5t-22.5 -20t-27.5 -8q-7 0 -11.5 1.5t-8.5 5t-8 9.5l-10 15l-1 1.5t-1 3.5zM309 35q0 12 8.5 25.5t22 24.5t28.5 18t27 7q17 0 21.5 -7.5t4.5 -21.5q0 -13 -6 -27.5t-16 -26.5t-23 -20t-27 -8q-7 0 -11.5 1.5t-8.5 5.5t-8 10t-11 14l-0.5 1.5t-0.5 3.5z" />
    <glyph glyph-name="FL2020h" unicode="&#x2020;" horiz-adv-x="353" 
d="M190 10q2 4 7 15t9.5 24l8.5 25t5 16q3 11 3.5 31.5t2.5 42.5t7 41t17 25q7 4 21.5 8t28.5 9t24 13t10 20q0 2 -0.5 5.5t-0.5 4.5q-4 4 -13 11.5t-18 16.5q-5 5 -12.5 5.5t-17 -0.5t-20 0t-22.5 7q-2 12 -4.5 23.5t-4 22.5t-6.5 28.5t-13 41.5q-8 20 -22 26
q-17 0 -24.5 -9.5t-10.5 -24.5q-3 -12 -1 -46t-10 -60l-24 -2h-5h-10h-9h-6q-4 0 -14 -1.5t-21.5 -3t-21.5 -3t-13 -2.5q-1 -2 -1.5 -7.5t-0.5 -7.5q0 -22 16 -32t36 -19q21 -11 42 -24q24 -14 24 -26q0 -58 -6 -99.5t-6 -67.5q0 -7 -4.5 -14t-5.5 -12t6 -8.5t30 -3.5
q15 0 25.5 1.5t24.5 9.5z" />
    <glyph glyph-name="FL2021h" unicode="&#x2021;" horiz-adv-x="353" 
d="M190 10q1 4 5.5 14l9.5 22t9 24t5 18q11 3 30.5 6.5t38 9t32.5 12.5t14 18q0 3 -1 6t-1 5q-4 4 -13 11t-18 17q-5 5 -12 5t-15.5 -0.5t-19 0t-21.5 4.5q2 16 5.5 29.5t11.5 18.5q6 5 20 9t28.5 9.5t25 12.5t10.5 19q0 2 -0.5 5.5t-0.5 4.5q-4 4 -13 11.5t-18 16.5
q-5 5 -12.5 5.5t-17 -0.5t-20 0t-22.5 7q-2 12 -4.5 23.5t-4 22.5t-6.5 28.5t-13 41.5q-8 20 -22 26q-17 0 -24.5 -9.5t-10.5 -24.5q-3 -12 -1 -46t-10 -60l-24 -2h-30q-4 0 -14 -1.5t-21.5 -3t-21.5 -3t-13 -2.5q-1 -2 -1.5 -7.5t-0.5 -7.5q0 -22 16 -32t36 -19
q21 -11 42 -24q24 -14 24 -26v-22l-41 3h-6q-4 0 -14 -1.5t-21.5 -3.5t-21.5 -3.5t-13 -2.5q-1 -1 -1.5 -6.5t-0.5 -8.5q0 -21 16 -31t36 -20q7 -4 25 -8.5t34 -9.5q-2 -16 -3 -29t-1 -24q0 -7 -4.5 -14t-5.5 -12t6 -8.5t30 -3.5q15 0 25.5 1.5t24.5 9.5z" />
    <glyph glyph-name="FL02C6h" unicode="&#x2c6;" horiz-adv-x="347" 
d="M333 584q0 -6 -8.5 -13.5t-20 -14t-23 -10.5t-15.5 -4q-7 0 -16.5 10t-21.5 26l-25 34t-25 32.5t-24 23.5t-20 6q-15 -4 -22 -13.5t-9.5 -21t-2 -23.5t0.5 -20v-6q0 -4 0.5 -8t0.5 -7v-3l23 -18q-5 -6 -14 -13t-20.5 -13.5t-23.5 -11t-22 -4.5t-14.5 4.5t-7 10.5t-2.5 12
v12q0 8 7.5 24.5t20 36.5t28.5 40.5t33 37t33.5 27.5t29.5 11q34 0 54.5 -9.5t33.5 -25t23 -34.5t26 -39q6 -9 14.5 -17t8.5 -19z" />
    <glyph glyph-name="FL2030h" unicode="&#x2030;" horiz-adv-x="862" 
d="M139 52l-1 13l201 317l59 88q0 9 7 18t17 15.5t20 11t16 5.5q10 2 17.5 -5t12.5 -18t7.5 -21.5t2.5 -15.5q-5 -24 -154 -213l-114 -146t-43 -61q-8 -18 -19.5 -29.5t-29.5 -11.5q-2 0 -5.5 0.5t-4.5 0.5q1 2 2 6t2 9q4 12 5.5 18.5t1.5 18.5zM209 298
q-15 -25 -27.5 -32.5t-35.5 -7.5q-10 0 -23.5 0.5t-24.5 7.5q-16 9 -32.5 28.5t-30 44.5t-22.5 52t-9 51q0 12 6.5 26t15.5 24.5t20 18t20 7.5q28 0 54 -16t46 -42t31.5 -60t11.5 -70v-8v-16v-8zM148 392q0 30 -6 46t-28 21q-12 3 -22.5 4.5t-18 -3t-12.5 -15.5t-5 -31
q0 -9 3 -20.5t6.5 -23t7 -20t5.5 -11.5q6 -4 20.5 -12.5t25.5 -8.5q14 2 19 13.5t5 31.5v29zM586 46q-15 -26 -27.5 -33.5t-35.5 -7.5q-10 0 -23.5 0.5t-24.5 7.5q-16 9 -32.5 29t-30.5 44.5t-22.5 51.5t-8.5 51q0 13 6.5 26.5t15.5 24t20 18t19 7.5q29 0 55 -15.5
t45.5 -41.5t31.5 -60t12 -71v-8v-16v-7zM525 139q0 31 -6 46.5t-28 20.5q-12 4 -22.5 5t-18.5 -3.5t-12.5 -15t-4.5 -30.5q0 -10 2.5 -21.5t6.5 -23t7.5 -20t4.5 -11.5l21.5 -12t25.5 -8q14 1 19 12.5t5 31.5v29zM829 40q-15 -26 -27.5 -33.5t-35.5 -7.5q-10 0 -23.5 1
t-24.5 7q-16 10 -32.5 29.5t-30 44.5t-22.5 51.5t-9 50.5q0 13 6.5 26.5t15.5 24.5t20 18t20 7q28 0 54 -15.5t46 -41.5t31.5 -60t11.5 -71v-8v-16v-7zM768 134q0 30 -6 45.5t-28 21.5q-12 3 -22.5 4t-18 -3t-12.5 -15t-5 -31q0 -10 3 -21.5t6.5 -22.5t7 -20t5.5 -11
q6 -4 20.5 -12.5t25.5 -8.5q14 2 19 13.5t5 31.5v29z" />
    <glyph glyph-name="FL0160h" unicode="&#x160;" horiz-adv-x="510" 
d="M109 35q0 23 15 34.5t34 11.5q23 0 45.5 -4.5l45.5 -9.5q11 -2 22 -4.5l23 -5.5q22 -6 67 32t33 66q-13 36 -43.5 49.5t-71 15.5t-87 -3.5t-92.5 -6.5q-6 1 -21 4.5t-30.5 9.5t-27.5 15t-12 21q0 17 10.5 40t27.5 47.5t39 48.5t45 43t45 30.5t39 11.5q34 0 65 -7
l61.5 -14.5t62 -14t66.5 -5.5q0 -1 0.5 -2.5t0.5 -2.5q0 -12 -11.5 -24t-28 -20.5t-33.5 -14.5t-28 -6h-170q-10 10 -22.5 10.5t-24.5 0.5q-20 0 -27.5 -7.5t-11 -17l-7.5 -20t-17 -16.5q16 -3 30.5 -8.5l29 -10.5t30 -8.5t34.5 -3.5q4 0 9.5 0.5t10.5 0.5h10.5h5.5
q4 0 17 2t28 3.5t28.5 3t16.5 1.5q21 0 48.5 -2t52.5 -10t42.5 -24t17.5 -44q0 -21 -10.5 -40.5t-26.5 -37.5l-16 -17.5t-17 -16.5t-20 -20l-25 -28q-28 -33 -96 -60h-150q-1 0 -4.5 3t-8.5 8t-9.5 10t-7.5 9l-0.5 2t-0.5 3zM109 695q0 7 8.5 14t20 13.5t22.5 11t16 4.5
q6 0 16 -10.5t22 -26t24.5 -33.5t25 -33t24 -24t20.5 -5q14 3 21.5 12.5t10 21t2 23.5t-0.5 20v7q0 4 -0.5 7.5t-0.5 6.5v3l-23 19q5 5 14 12.5t20 13.5t23 10.5t23 4.5q9 0 14 -4.5t7.5 -10.5t2.5 -13v-11q0 -9 -7.5 -25t-20 -36t-28.5 -40.5t-33.5 -37t-33.5 -27.5
t-29 -11q-35 0 -55 9.5t-33.5 25t-23.5 34.5t-25 39q-6 9 -14.5 17t-8.5 19z" />
    <glyph glyph-name="FL2039h" unicode="&#x2039;" horiz-adv-x="332" 
d="M225 48q10 0 23 11t23.5 25t17.5 28t7 21q0 8 -13.5 19t-34 24.5l-43.5 28.5t-42.5 30t-30 28.5t-6.5 24.5q7 18 15 28t17.5 15t21 6t25.5 1h10h13.5h11.5h5q20 -5 34 0t22 15.5t11.5 24.5t3.5 28q0 24 -10 28t-27 4q-13 0 -38.5 -10t-55 -26t-60 -37.5t-55 -43.5
t-40.5 -42.5t-16 -37.5q0 -43 19 -69t48.5 -42.5t65.5 -30t69 -31.5q7 -4 6.5 -7.5t-3 -6.5t-3 -4.5t8.5 -1.5z" />
    <glyph glyph-name="FL0152h" unicode="&#x152;" horiz-adv-x="724" 
d="M430 394q-12 -16 -35 -42t-42 -66q-10 -19 -18 -38.5t-14 -36.5t-9 -30t-3 -19q0 -38 13 -72h-112q-25 0 -47 21.5t-40 50.5q-17 32 -21 65q-4 36 44 100q48 65 67 65q9 1 18.5 0.5t18.5 -1.5q17 -1 34 -1.5t38 -0.5q38 0 70.5 10.5t57.5 43.5q-6 17 -24 24t-39.5 9
t-43 0.5t-33.5 -1.5h-12q-8 0 -18 -0.5t-19 -0.5h-11q-7 -6 -20 -14t-26 -18q-12 -9 -22.5 -19.5t-23.5 -21.5q-67 -71 -94 -111q-26 -37 -34 -62q-7 -24 -13.5 -43t-6.5 -32v-5l25.5 -57.5t29 -48t39 -32t56.5 -11.5q22 0 40 1.5t36.5 4t38 7l45.5 10.5q6 8 14 13t18 9
q19 -21 45 -33t58 -12q23 0 42 2.5t38 7.5t39 13t46 20q4 3 14 13.5t19 17.5q5 5 7 8.5l6 10.5l4 10q0 2 -4 6t-6 4q-30 -4 -58.5 -13t-58.5 -9q-5 0 -13.5 1t-9.5 1q-5 1 -16.5 6t-24.5 12l-24.5 13t-14.5 9q-9 9 -10 19t-1 21q0 24 14 35t36 16.5t48.5 8t51 8.5t44 20
t27.5 42h-13h-19.5h-19.5h-13q-35 0 -67.5 -5t-68.5 -5q-17 0 -18.5 10t-1.5 24v15t1.5 13.5t6.5 13.5t16 16q21 18 31 22t12 4h10q8 0 29.5 1t45.5 2.5t45.5 3t29.5 3.5q6 6 16.5 12.5t20 14t17 15.5t7.5 18q0 4 -1.5 12.5t-9.5 7.5l-150 -10q-18 -22 -39 -36l-33 -22z" />
    <glyph glyph-name="FL017Dh" unicode="&#x17d;" horiz-adv-x="466" 
d="M397 36q0 24 -16 36t-37 12q-25 0 -49.5 -5l-48.5 -10q-13 -3 -25 -5t-24 -6q-25 -6 107 140.5t137 164.5q5 19 -19 43q-17 19 -36.5 35t-37.5 28t-35 18.5t-30 6.5q-37 0 -71 -7t-67 -15.5t-66.5 -15t-70.5 -5.5q0 -1 -1 -2.5t-1 -2.5q0 -12 12.5 -24t30 -21.5t36 -15
t29.5 -5.5h184q7 6 -25.5 -22.5l-103.5 -91.5q-142 -124 -121 -147q10 -11 22 -25.5t28 -31.5q29 -33 104 -62h162q1 0 4.5 3.5t8.5 9t10.5 10.5t8.5 8l0.5 2t0.5 3zM70 695q0 -11 8.5 -19t15.5 -17q15 -20 25 -39t23 -34.5t33 -25t55 -9.5q13 0 29.5 11t33.5 27.5t33 37
t28.5 40.5t20 36t7.5 25v11q0 7 -2 13t-7 10.5t-15 4.5q-11 0 -22.5 -4.5t-22.5 -10.5t-20.5 -13.5t-14.5 -12.5l24 -19v-3v-6.5v-7.5v-7q0 -8 0.5 -20t-2 -23.5t-9.5 -21t-21 -12.5q-9 -4 -20.5 5t-24 24t-25.5 33l-25 33.5t-21.5 26t-15.5 10.5q-5 0 -16.5 -4.5t-23 -11
t-20 -13.5t-8.5 -14z" />
    <glyph glyph-name="FL2018h" unicode="&#x2018;" horiz-adv-x="150" 
d="M130 442q0 12 -12 22.5t-28 19.5t-31.5 15.5t-20.5 12.5l-28 -30v-100q0 -9 8.5 -21.5t21 -23.5t26 -18.5t23.5 -7.5q1 0 6.5 0.5t6.5 0.5q0 5 1.5 16t3.5 24t3.5 24t2.5 16q0 2 2.5 9.5t6 15.5t6 15.5t2.5 9.5z" />
    <glyph glyph-name="FL2019h" unicode="&#x2019;" horiz-adv-x="150" 
d="M10 442q0 12 12.5 22.5t28.5 19.5t31.5 15.5t20.5 12.5l28 -30v-100q0 -9 -8.5 -21.5t-21 -23.5t-26 -18.5t-23.5 -7.5q-2 0 -7 0.5t-7 0.5q0 5 -1 16t-3 24t-3.5 24t-2.5 16q0 2 -3 9.5l-6 15.5l-6 15.5t-3 9.5z" />
    <glyph glyph-name="FL201Ch" unicode="&#x201c;" horiz-adv-x="306" 
d="M130 446q0 12 -12 22.5t-28 19.5t-31.5 15.5t-20.5 12.5l-28 -30v-100q0 -9 8.5 -21.5t21 -23.5t26 -18.5t23.5 -7.5q1 0 6.5 0.5t6.5 0.5q0 5 1.5 16t3.5 24t3.5 24t2.5 16q0 2 2.5 9.5t6 15.5t6 15.5t2.5 9.5zM282 442q0 12 -12 22.5t-28 19.5t-31.5 15.5t-20.5 12.5
l-28 -30v-100q0 -9 8.5 -21.5t21 -23.5t26 -18.5t23.5 -7.5q1 0 6.5 0.5t6.5 0.5q0 5 1.5 16t3.5 24t3.5 24t2.5 16q0 2 2.5 9.5t6 15.5t6 15.5t2.5 9.5z" />
    <glyph glyph-name="FL201Dh" unicode="&#x201d;" horiz-adv-x="306" 
d="M162 446q0 12 12.5 22.5t28.5 19.5t31.5 15.5t20.5 12.5l28 -30v-100q0 -9 -8.5 -21.5t-21 -23.5t-26 -18.5t-23.5 -7.5q-2 0 -7 0.5t-7 0.5q0 5 -1 16t-3 24t-3.5 24t-2.5 16q0 2 -3 9.5l-6 15.5l-6 15.5t-3 9.5zM10 442q0 12 12.5 22.5t28.5 19.5t31.5 15.5t20.5 12.5
l28 -30v-100q0 -9 -8.5 -21.5t-21 -23.5t-26 -18.5t-23.5 -7.5q-2 0 -7 0.5t-7 0.5q0 5 -1 16t-3 24t-3.5 24t-2.5 16q0 2 -3 9.5l-6 15.5l-6 15.5t-3 9.5z" />
    <glyph glyph-name="FL2022h" unicode="&#x2022;" horiz-adv-x="321" 
d="M7 160q0 120 103 159q25 10 47.5 14.5t50.5 4.5q39 0 60 -22t21 -61q0 -4 -0.5 -8.5t-0.5 -5.5q-1 -3 -3.5 -12.5l-5.5 -20l-6 -20.5t-3 -12q-17 -28 -31 -47.5t-31.5 -32t-43 -18.5t-64.5 -6h-9q-6 0 -13 0.5t-13 0.5h-9q-14 10 -23.5 19t-15 19t-8 21.5t-2.5 27.5z" />
    <glyph glyph-name="FL2013h" unicode="&#x2013;" horiz-adv-x="282" 
d="M9 207q0 12 10.5 25.5t26.5 24.5q17 11 35.5 18t27.5 7h70q31 0 49 -4q16 -3 37 -28q-8 -28 -14 -38t-15 -16q-8 -6 -16 -10t-21 -8l-141 -7q-18 0 -26 7q-4 4 -9.5 10t-13.5 14v5z" />
    <glyph glyph-name="FL2014h" unicode="&#x2014;" horiz-adv-x="410" 
d="M9 207q0 12 10.5 25.5t26.5 24.5q17 11 35.5 18t27.5 7l197 1q31 0 48 -4q16 -3 37 -28q-8 -28 -14 -38t-15 -16q-8 -6 -16 -10t-20 -8l-268 -8q-18 0 -26 7q-4 4 -9.5 10t-13.5 14v5z" />
    <glyph glyph-name="FL02DCh" unicode="&#x2dc;" horiz-adv-x="285" 
d="M8 541q0 22 7 41.5t19 32.5q23 29 62 29q24 0 66 -22v0l15.5 -7t9.5 -3q5 0 10 -1t12 1t18.5 11.5t29.5 30.5l20 -20q0 -36 -7.5 -56.5t-19.5 -31.5t-28 -13.5t-35 -2.5q-28 0 -66 23q-18 11 -26 11q-5 0 -9 -2.5t-8 -6.5q-8 -7 -19.5 -14.5t-32.5 -11.5z" />
    <glyph glyph-name="FL2122h" unicode="&#x2122;" horiz-adv-x="638" 
d="M148 428q0 14 5.5 24t5.5 22q0 9 -4.5 12.5t-10.5 4.5l-12 2t-8 8h-50q-9 0 -14.5 -8.5t-9 -19.5t-5 -22t-1.5 -15h-37q0 19 11 36.5t27.5 30.5t36 20.5t37.5 7.5h175v-10l-21 -31q-11 -8 -14 -4q-4 4 -8 4.5t-9 0.5h-11q-5 0 -12 -0.5t-14 -2.5t-11.5 -6t-4.5 -11v-140
q0 -3 -2.5 -8.5t-5.5 -11.5t-6.5 -10.5t-5.5 -4.5h-5q0 1 -2 8.5l-5 18.5t-3 18q-3 21 -4.5 43.5t-1.5 43.5zM322 455q-2 10 -9 16.5t-7 12.5v3l31 31l3.5 0.5t5.5 0.5q4 1 8 -2.5t7.5 -7.5t6.5 -6.5t6 1.5q3 3 8.5 5t14.5 5q9 1 15 2.5t10 3.5q6 2 13.5 2.5t14.5 0.5
q9 0 15.5 -4.5t10.5 -11.5q5 -5 31 4q14 6 22.5 9t12.5 5q8 2 16 2.5t15 0.5q8 0 12.5 -1t11.5 -9q2 -22 4 -39.5t3.5 -33t2 -31.5t0.5 -36q0 -8 -1 -21t-4.5 -26t-11 -23t-19.5 -10q-1 0 -2.5 1t-2.5 1l-15 182q0 11 -11 15q-6 3 -9.5 4t-16.5 -3q-12 -5 -17 -16l-6 -6
q0 -1 -0.5 -7.5t-0.5 -12.5v-6q0 -21 3.5 -37t3.5 -35q0 -24 -9.5 -40t-30.5 -28q-3 9 -4 22t-7 20q-1 18 -1.5 38t-3.5 38.5t-11 35t-24 28.5q-6 -2 -10.5 -4t-7.5 -2.5t-11 -11.5q0 -6 -1.5 -9.5t-3.5 -7.5t-3.5 -9t-2.5 -13v-19.5v-29.5v-30v-20q0 -5 -2.5 -11
t-6.5 -11.5t-9 -9.5t-9 -4h-2q-3 2 -5 8t-3 12t-2 10.5t-1 5.5q0 7 -1 24t-1.5 36t-1 36t-0.5 23z" />
    <glyph glyph-name="FL0161h" unicode="&#x161;" horiz-adv-x="300" 
d="M210 110q0 18 -14.5 28t-37 15.5t-48 8.5l-48 5.5t-37.5 8t-15 14.5q0 36 26 68t63.5 57t78.5 42t72 23q0 -2 0.5 -7.5t0.5 -7.5q0 -23 -12.5 -36t-31 -19t-39.5 -7.5t-38 -2.5q0 -2 -0.5 -7.5t-0.5 -7.5q0 -19 8.5 -29t22.5 -14t31.5 -5.5t35.5 -2.5t34.5 -3.5
t28.5 -10.5q0 -3 0.5 -12.5t0.5 -12.5q0 -46 -24.5 -83.5t-62 -63t-82 -39.5t-85.5 -14q0 26 7.5 42.5t19.5 25.5t27.5 12.5t31.5 3.5h31q16 0 28.5 2.5t20 9t7.5 19.5zM-3 609q0 6 8.5 13.5t20 13.5t22.5 10.5t16 4.5q6 0 16 -10.5t22 -26t24.5 -33.5t25 -32.5t24 -23.5
t20.5 -6q14 3 21.5 13t10 21.5t2 23.5t-0.5 20v6q0 4 -0.5 7.5t-0.5 7.5v3l-23 18q5 6 14 13t20 13.5t23 11t23 4.5q9 0 14 -4.5t7.5 -10.5t2.5 -13v-11q0 -9 -7.5 -25t-20 -36t-28.5 -40.5t-33.5 -37.5t-33.5 -27.5t-29 -10.5q-35 0 -55 9.5t-33.5 24.5t-23.5 34.5
t-25 39.5q-6 9 -14.5 17t-8.5 19z" />
    <glyph glyph-name="FL203Ah" unicode="&#x203a;" horiz-adv-x="332" 
d="M105 48q-11 0 -23.5 11t-23 25t-17.5 28t-7 21q0 8 13.5 19t34 24.5l43.5 28.5t42 30t30 28.5t6 24.5q-6 18 -14 28t-17.5 15t-21.5 6t-25 1h-11h-13h-11h-5q-21 -5 -34.5 0t-21.5 15.5t-11.5 24.5t-3.5 28q0 24 10 28t26 4q14 0 39 -10t55 -26t60 -37.5t55 -43.5
t41 -42.5t16 -37.5q0 -43 -19 -69t-49 -42.5t-66 -30t-68 -31.5q-8 -4 -7 -7.5t3.5 -6.5t3 -4.5t-8.5 -1.5z" />
    <glyph glyph-name="FL0153h" unicode="&#x153;" horiz-adv-x="455" 
d="M184 129q0 -24 3 -40q-21 5 -41 12.5t-34.5 20t-23.5 32t-9 46.5q0 29 14.5 42.5t36 20.5t46.5 10t46.5 10.5t36 23.5t14.5 47q-46 0 -93 -20.5t-85 -55t-62 -79t-24 -92.5q0 -34 5 -55.5t17.5 -33t34 -15.5t54.5 -4h26t30.5 2t30 6.5t25.5 13.5q26 -13 70 -13q18 0 37 4
t37 12t33 19t26 26q4 6 6 15.5l2 9.5h-88q-7 0 -9 10.5t-2 17.5v7q2 14 18 38l32 48t29 52.5t13 56.5q0 7 -1 15t-9 10q-3 0 -9 0.5t-12 0.5t-11.5 0.5t-7.5 0.5q-40 0 -76 -21t-64 -54t-45 -72t-17 -75zM264 219q0 17 1 30.5t10 29.5q3 0 13 1t12 1q27 0 36.5 -12t9.5 -38
q0 -12 -1.5 -24t-6 -23t-12.5 -20.5t-20 -14.5t-20 4t-13 22t-7 26.5t-2 17.5z" />
    <glyph glyph-name="FL017Eh" unicode="&#x17e;" horiz-adv-x="300" 
d="M181 210q0 8 -11 14t-27.5 11.5t-36.5 10t-39.5 7.5t-34.5 4.5t-22 2.5q25 35 66.5 51.5t83.5 18.5q7 0 26 -1t39.5 -3t39 -3.5t25.5 -2.5q-5 -8 -19.5 -29t-32.5 -44l-17 -22.5t-18 -24.5q-17 -24 -53 -70q1 -2 4.5 -10t5.5 -10q5 0 17.5 -1.5t27 -3l28 -3t17.5 -2.5
t9 -3.5t10 -5.5t8.5 -7t3.5 -9q0 -9 -8.5 -22t-20.5 -25t-26 -20.5t-25 -8.5q-17 0 -36 4t-38 9.5t-38.5 10.5t-38.5 7v30q7 6 17 20q11 16 21 28l24 30l15 17.5t17 18.5q18 18 27.5 24t9.5 12zM-2 603q0 7 8.5 14t20 13.5t23 11t16.5 4.5q6 0 15.5 -10.5t21.5 -26l25 -33.5
t25.5 -33t24 -24t20.5 -5q14 3 21 12.5t9.5 21t2 23.5t-0.5 20v7v7.5v6.5v3l-24 19q5 5 14.5 12.5t20.5 13.5t22.5 10.5t22.5 4.5q10 0 15 -4.5t7 -10.5t2 -13v-11q0 -9 -7.5 -25t-20 -36t-28.5 -40.5t-33 -37t-33.5 -27.5t-29.5 -11q-35 0 -55 9.5t-33 25t-23 34.5t-25 39
q-7 9 -15.5 17t-8.5 19z" />
    <glyph glyph-name="FL0178h" unicode="&#x178;" horiz-adv-x="420" 
d="M39 35q0 11 6.5 21t16 18t20 14.5l18.5 11.5l11.5 6t8.5 4q2 0 11 -3l19 -6.5t19 -7t11 -3.5q6 -1 21.5 -2.5t33 -3.5t33.5 -3t22 -1q49 23 48 50q-1 13 -2.5 26.5t-3.5 26.5q-5 27 -17 46.5t-36 19.5q-14 0 -31.5 -8l-37.5 -18t-42 -18t-46 -8q-39 0 -61.5 15t-34 40
t-14.5 56.5t-3 64.5v11q0 8 0.5 16.5t0.5 16.5v11q2 8 8 18.5t13.5 20t17 16t16.5 6.5q12 0 18.5 -16.5t10.5 -41t6.5 -53t8 -53t15.5 -41t26 -16.5l112 20q28 4 32 18q3 14 4.5 27.5t1.5 18.5v16l-10 70v6q0 14 8 25.5t20 20t26 13.5t26 5t19.5 -15t12 -33t6.5 -34t2 -18
v-16q0 -14 0.5 -33.5t0.5 -39.5v-31v-24q0 -17 -0.5 -36t-0.5 -36v-24q-3 -10 -10.5 -22.5t-17 -24t-20.5 -20.5l-41 -31q-30 -22 -51.5 -36t-49.5 -22q-27 -7 -53.5 -9.5t-36.5 -2.5q-4 0 -18.5 1.5t-30.5 6t-29 11.5t-13 16zM71 586q0 12 9 25.5t22 24t28.5 18t27.5 7.5
q16 0 20.5 -7.5t4.5 -22.5q0 -13 -6 -27t-16 -26t-22.5 -20t-27.5 -8q-7 0 -11.5 1.5t-8.5 5t-8 9.5l-10 15l-1 1t-1 4zM255 586q0 12 9 26t22 24.5t28.5 18t27.5 7.5q16 0 20.5 -8t4.5 -22q0 -13 -6 -27.5t-16 -26.5t-22.5 -20t-27.5 -8q-7 0 -11.5 2t-8.5 5.5t-8 9.5
l-10 15l-1 1t-1 3z" />
    <glyph glyph-name="FL00A0h" unicode="&#xa0;" horiz-adv-x="396" 
 />
    <glyph glyph-name="FL00A1h" unicode="&#xa1;" horiz-adv-x="160" 
d="M156 281q0 9 -2.5 24.5t-8.5 31t-16.5 27t-26.5 11.5q-2 0 -4 -0.5l-2 -0.5q-2 -3 -10 -12.5t-10 -12.5q-1 -8 -2 -23.5t-2.5 -35t-3.5 -40.5l-4 -40.5t-4 -34.5t-4 -22q-2 -15 -5.5 -27.5t-7.5 -23.5t-6.5 -23t-6.5 -12t-14 -5q-8 0 -8 -8t7 -15l11 -5q5 -3 7.5 -4
l2.5 -1l80 -31q2 0 5 3t5 4q6 9 11 30.5t8 49.5t5 59t3.5 58.5t2 49t0.5 29.5zM158 496q0 -12 -9.5 -25.5t-22.5 -24.5t-28 -18t-27 -7q-17 0 -21 7.5t-4 21.5q0 13 6 27.5t16 26.5t22.5 20t27.5 8q7 0 11.5 -1.5t8.5 -5t8 -9.5l10 -15l1 -1.5t1 -3.5z" />
    <glyph glyph-name="FL00A2h" unicode="&#xa2;" horiz-adv-x="301" 
d="M5 185q0 -35 5 -56t17.5 -32.5t34 -15.5t54.5 -4h32q3 -24 7 -41.5t9 -25.5q2 -2 5.5 -6t4.5 -4l17 23q5 9 7 25.5t4 36.5q19 6 32.5 19.5t13.5 37.5q0 2 -15 0l-31 -4q0 16 -0.5 29t-1.5 23q-2 8 -4 26t-4 40.5t-4 48t-3 48.5q17 3 32 7.5t26.5 13t18.5 22.5t7 36
q-23 0 -45 -5t-43 -14q-1 5 -1 9v8l-4.5 7l-5.5 8.5t-6 8.5t-4 6l-2 0.5t-4 0.5q-11 0 -17 -7t-8 -17.5t-1 -24l2 -26.5q-26 -17 -49 -39.5t-40 -48.5t-26.5 -55t-9.5 -58zM134 343q0 -11 0.5 -33t1.5 -50t2.5 -60t3.5 -63q-21 5 -34.5 15t-20.5 27t-9.5 41t-2.5 58
q0 31 17 45t42 20z" />
    <glyph glyph-name="FL00A3h" unicode="&#xa3;" horiz-adv-x="495" 
d="M7 233v-5l13.5 -15t9.5 -10q8 -6 27 -6l70 3q-1 -9 -1 -18v-17v-5q1 -18 3 -44t3.5 -51l2.5 -42.5l1 -17.5h150q8 -10 20.5 -16.5t26.5 -10.5t28 -6t25 -2q1 0 8.5 4t11.5 5l14 10.5l21.5 15.5l21 14.5t13.5 10.5q-14 24 -45.5 35.5t-67.5 15t-71 2t-56 -2.5l-10 10
q-8 35 -16 60t-12 53l51 3q13 4 21 8t16 9q4 3 5 3t1.5 1t1 6t4.5 20q-20 25 -36 28q-18 4 -49 4h-17q2 33 10.5 62.5t26.5 49.5q22 25 37 19l22 -10.5l23 -10.5t21 -8t15 -3q11 0 23 7t21.5 17t15.5 22t6 23q0 27 -15 34t-38 7q-18 0 -30 -1.5t-23 -5.5t-23.5 -12.5
l-31.5 -20.5q-2 -3 -6 -10q-4 -10 -28 -26l-44.5 -59t-31.5 -59q-3 -7 -5 -16l-50 -1q-9 0 -27 -7t-35 -18q-8 -5 -12.5 -7.5t-6.5 -4.5t-2.5 -5t-0.5 -8z" />
    <glyph glyph-name="currency" unicode="&#xa4;" horiz-adv-x="436" 
d="M86 323l-60 73l48 47l40 -77q12 7 25.5 13.5t25.5 11t22.5 7.5t17.5 3q18 0 31.5 -3t26 -6.5t25 -7.5t28.5 -6l42 55l52 -43l-60 -45q7 -12 14.5 -26.5t12.5 -28t5 -25t-7 -18.5q0 -9 1 -21t-1 -26t-8.5 -28t-20.5 -29l68 -48l-56 -41l-49 44q-14 -7 -23.5 -12.5
t-18 -8.5t-17 -1t-20.5 11q-22 -9 -39.5 -10.5t-31 2t-22 10t-14.5 13.5l-44 -54l-65 51l73 51q-7 8 -14.5 18.5t-12.5 23t-5.5 25t7.5 21.5q-9 30 -6.5 49t30.5 36zM116 241l10 10q-8 -24 -2.5 -41.5t11.5 -28.5q8 -15 18.5 -22t21.5 -9.5t21 -2t18 0.5q16 -14 32 -6t32 24
l21 20.5t15 16t7.5 15.5t-2.5 18q-3 23 -11.5 42.5t-25.5 33.5q-9 12 -24.5 19t-38.5 13q-20 -8 -36.5 -14t-32.5 -15q-12 -7 -19 -15.5t-10 -18t-3.5 -20t-1.5 -20.5z" />
    <glyph glyph-name="FL00A5h" unicode="&#xa5;" horiz-adv-x="510" 
d="M209 380v-5q8 -8 13.5 -14t9.5 -10t11 -7t15 0l47 15q0 -4 2.5 -11.5l5.5 -16.5t5 -17t1 -12t-7 -6t-15 -4t-18 -2.5t-17 -1.5l-112 -20q-16 0 -26 16.5t-15 41t-8 53t-7 53t-10.5 41t-18.5 16.5q-7 0 -16.5 -6.5t-17 -16t-13.5 -20t-8 -18.5v-11l-1 -44q0 -33 3 -64.5
t14.5 -56.5t34 -40t61.5 -15q24 0 46 8t42 18l37.5 18t31.5 8q18 0 27.5 -11t9.5 -28q-11 0 -24 -2t-23 -9q-8 -5 -14 -7t-9.5 -3t-5.5 -3.5t-2 -7.5v-5q8 -8 13.5 -14t9.5 -10q8 -7 26 -7l49 2q1 -4 1.5 -7t0.5 -7v-1q0 -27 -48 -49q-6 0 -22 1t-33.5 3t-33 3.5t-21.5 2.5
l-60 20q-1 0 -8.5 -4l-11.5 -6q-1 -1 -2 -1l-1 -1q-9 -4 -19 -10.5t-18.5 -14.5t-14.5 -17.5t-6 -20.5q0 -9 13 -16t29 -11t30.5 -6t18.5 -2q10 0 36.5 2.5t53.5 9.5q28 8 49.5 22t51.5 36l41 31q11 9 21 21t18 25l27 2q7 -1 11.5 -2t7.5 -1.5t6.5 0t8.5 2.5l16 9q4 0 7.5 4
t7.5 17q-19 24 -37 28t-46 4l1 54v55q0 9 -0.5 17t-0.5 17q4 1 8 1h7h11h12.5t9.5 3q4 2 7 2l9 -1q4 0 7.5 4t7.5 17q-19 24 -37 28q-6 2 -17.5 2.5t-24.5 1.5q0 7 -2.5 23t-7.5 32.5t-12 29t-18 12.5q-12 0 -26 -5t-26 -13t-20 -20t-8 -26v-6l4 -25h-8q-12 0 -24 -2t-22 -9
q-8 -5 -14 -7t-9.5 -3.5t-5.5 -3.5t-2 -8z" />
    <glyph glyph-name="FL00A6h" unicode="&#xa6;" horiz-adv-x="160" 
d="M142 101q0 -12 -2 -37t-8.5 -49.5t-17.5 -43t-27 -18.5q-1 0 -3 2.5l-2 2.5q-2 2 -11 17q-8 16 -9 19q-1 20 -3.5 63.5l-5.5 93.5q-2 26 -3 50.5t-2.5 46t-3 38t-2.5 24.5q-2 24 -5.5 43.5t-7.5 38.5q-2 10 -3.5 19.5t-3 18l-4.5 26.5l-7 44q6 4 8.5 5.5l2.5 1.5l80 52
q1 0 4.5 -5t5.5 -9q5 -7 8.5 -29t6.5 -52t5.5 -66t4 -73l3 -72.5t2 -65.5t0.5 -53v-33z" />
    <glyph glyph-name="FL00A7h" unicode="&#xa7;" horiz-adv-x="510" 
d="M400 445q0 1 -1 3l-1 2q-2 4 -7 9t-9.5 10t-8 8t-4.5 3h-151q-68 -28 -96 -60q-14 -17 -24.5 -28l-19.5 -20l-17 -17t-16 -17q-16 -18 -26.5 -37.5t-10.5 -40.5q0 -24 11.5 -37t29.5 -20t40 -8.5t43 -1.5q4 -19 15 -31t31 -28h9h13.5h13.5h8q34 0 54 1t32.5 6t20 15
t17.5 27q18 -5 35 -12t37 -11q-12 -6 -16 -16.5t-8 -20t-11 -17t-27 -7.5q-6 0 -17 -7l-23 -14.5t-22.5 -12.5t-15.5 0l-142 23q-11 2 -27.5 0t-32.5 -8t-27 -14.5t-11 -20.5v-2.5v-2.5q36 1 67.5 -5.5t62 -14l61.5 -14.5t65 -7q16 0 38 11.5t45.5 30.5t45.5 43t39 48.5
t27.5 47.5t10.5 40q0 12 -12 21t-27.5 15t-31 9.5t-20.5 4.5q-7 0 -14.5 -0.5t-14.5 -1.5q1 3 1 10q0 39 -22.5 52.5t-61.5 13.5q-18 0 -32 2t-27 2q-9 0 -17.5 -1t-18.5 -5q-30 -12 -45 -22.5t-22 -28.5q-6 7 -11.5 15t-9.5 19q-12 28 34 66t66 32q12 -3 23.5 -5.5
t22.5 -4.5q22 -5 45 -9.5t45 -4.5q20 0 35 11.5t15 34.5zM302 213q0 -20 -4.5 -31.5t-19.5 -13.5q-5 0 -14.5 1t-20 2.5t-19 3.5t-11.5 4q-2 3 -5.5 11.5t-7 20t-6.5 23t-3 20.5q0 29 9 39.5t23 10.5q3 0 13 -1t21 -1.5t18 -1.5t3 -1q11 -2 16 -5.5t7 -10t1.5 -16.5
t-0.5 -25v-29z" />
    <glyph glyph-name="FL00A8h" unicode="&#xa8;" horiz-adv-x="332" 
d="M15 569q0 12 9 25.5t22 24.5t28.5 18t27.5 7q16 0 20.5 -7.5t4.5 -22.5q0 -12 -6 -26.5t-16 -26.5t-22.5 -20t-27.5 -8q-7 0 -11.5 1.5t-8.5 5t-8 9.5l-10 15l-1 1t-1 4zM199 570q0 12 9 25.5t22 24t28.5 18t27.5 7.5q16 0 20.5 -7.5t4.5 -22.5q0 -13 -6 -27t-16 -26
t-22.5 -20t-27.5 -8q-7 0 -11.5 1.5t-8.5 5t-8 9.5l-10 15l-1 1t-1 4z" />
    <glyph glyph-name="FL00A9h" unicode="&#xa9;" 
d="M10 76q15 -24 27.5 -39t26.5 -23t31 -11.5t39 -3.5q23 0 49.5 3.5t46.5 11.5q21 12 43 32.5t43.5 47.5t40 58.5t32.5 64t22.5 64.5t8.5 60q0 25 -12.5 50.5t-31 46t-40.5 33t-40 12.5q-58 0 -110 -28.5t-91.5 -76.5t-62.5 -112t-23 -134v-13q0 -6 0.5 -15.5t0.5 -16.5
v-11zM85 138q0 19 4 44.5t11.5 53t18 54.5t22.5 47.5t25.5 34t27.5 13.5q25 0 51 0.5t46.5 -5.5t33.5 -24t13 -55q0 -19 -9 -45.5t-21.5 -52t-25 -45.5t-17.5 -24t-12.5 -11.5t-16.5 -15.5t-19 -13.5t-19 -5.5q-19 0 -39 -3t-36.5 -1t-27 13.5t-10.5 40.5zM135 212
q0 -18 2.5 -28t9 -16t17 -8t27.5 -2h19.5t21.5 3t17.5 10t7.5 19v4q0 3 -1 4q-14 2 -29.5 4.5t-28 9t-20.5 17.5t-8 29q0 15 7.5 21.5t18 10t23 5t23.5 5.5t18 11.5t7 23.5q-23 0 -46 -10.5t-42.5 -27.5t-31.5 -39t-12 -46z" />
    <glyph glyph-name="FL00AAh" unicode="&#xaa;" horiz-adv-x="310" 
d="M10 365q0 38 18.5 67t47.5 48t64 28.5t68 9.5h7q7 0 14 -0.5t13 -0.5h8q6 -38 8 -73.5t13 -73.5q0 -1 2 -4t5 -6.5t5 -6.5t2 -4t0.5 -5t0.5 -6q0 -12 -5 -19.5t-13 -12t-17 -6.5t-19 -2h-12t-12 2q-4 11 -9 16.5t-16 5.5q-9 0 -17.5 -5t-19.5 -10t-25 -10t-32 -5
q-38 0 -58.5 16.5t-20.5 56.5zM67 418q0 -16 6 -26t15.5 -18t19 -15t16.5 -17q3 0 12 -0.5t12 -0.5q14 0 26 1.5t20 13.5v7v27v8q0 17 -1 31.5t-6 24.5t-17 15.5t-32 5.5q-33 0 -52 -12.5t-19 -44.5z" />
    <glyph glyph-name="FL00ABh" unicode="&#xab;" horiz-adv-x="649" 
d="M225 48q10 0 23 11t23.5 25t17.5 28t7 21q0 8 -13.5 19t-34 24.5l-43.5 28.5t-42.5 30t-30 28.5t-6.5 24.5q7 18 15 28t17.5 15t21 6t25.5 1h10h13.5h11.5h5q20 -5 34 0t22 15.5t11.5 24.5t3.5 28q0 24 -10 28t-27 4q-13 0 -38.5 -10t-55 -26t-60 -37.5t-55 -43.5
t-40.5 -42.5t-16 -37.5q0 -43 19 -69t48.5 -42.5t65.5 -30t69 -31.5q7 -4 6.5 -7.5t-3 -6.5t-3 -4.5t8.5 -1.5zM534 48q10 0 23 11t23 25t17.5 28t7.5 21q0 8 -13.5 19t-34 24.5l-44 28.5t-42.5 30t-30 28.5t-6 24.5q7 18 15 28t17.5 15t21 6t25.5 1h10h13h12h5q20 -5 34 0
t22 15.5t11.5 24.5t3.5 28q0 24 -10 28t-27 4q-14 0 -39 -10t-54.5 -26t-60 -37.5t-55.5 -43.5t-41 -42.5t-16 -37.5q0 -43 19.5 -69t49 -42.5t65.5 -30t69 -31.5q7 -4 6 -7.5t-3 -6.5t-2.5 -4.5t8.5 -1.5z" />
    <glyph glyph-name="FL00ACh" unicode="&#xac;" horiz-adv-x="410" 
d="M9 207v-5q8 -8 13.5 -14t9.5 -10q8 -7 26 -7l230 3l-3 -106q5 0 18 -1t26 -3t25 -3t16 -1l-3 20q5 3 8 25t5 49.5t4.5 55t6.5 41.5q-19 24 -37 28q-20 4 -48 4l-197 -1q-9 0 -27.5 -7t-35.5 -18q-16 -11 -26.5 -24.5t-10.5 -25.5z" />
    <glyph glyph-name="FL00ADh" unicode="&#xad;" horiz-adv-x="235" 
d="M9 207q0 12 10.5 25.5t26.5 24.5q17 11 35.5 18t27.5 7h19q31 0 49 -4q16 -3 37 -28q-8 -28 -14 -38t-15 -16q-8 -6 -16 -10t-21 -8l-90 -7q-18 0 -26 7q-4 4 -9.5 10t-13.5 14v5z" />
    <glyph glyph-name="FL00AEh" unicode="&#xae;" 
d="M10 76q15 -24 27.5 -39t26.5 -23t31 -11.5t39 -3.5q23 0 49.5 3.5t46.5 11.5q21 12 43 32.5t43.5 47.5t40 58.5t32.5 64t22.5 64.5t8.5 60q0 25 -12.5 50.5t-31 46t-40.5 33t-40 12.5q-58 0 -110 -28.5t-91.5 -76.5t-62.5 -112t-23 -134v-13q0 -6 0.5 -15.5t0.5 -16.5
v-11zM85 138q0 19 4 44.5t11.5 53t18 54.5t22.5 47.5t25.5 34t27.5 13.5q25 0 51 0.5t46.5 -5.5t33.5 -24t13 -55q0 -19 -9 -45.5t-21.5 -52t-25 -45.5t-17.5 -24t-12.5 -11.5t-16.5 -15.5t-19 -13.5t-19 -5.5q-19 0 -39 -3t-36.5 -1t-27 13.5t-10.5 40.5zM142 272
q0 8 4.5 14t11 10t14.5 6t14 2t9 -2.5t5 -5.5t4 -5.5t9 -2.5q9 0 17 5t16 11t16 10.5t18 4.5q6 0 10 -1.5t4 -8.5q0 -6 -4.5 -12.5t-10.5 -13.5t-12 -12t-9 -7q-7 2 -13 8.5t-15 6.5l-1 -0.5l-1 -0.5q-4 -4 -12 -11t-8 -9v-74q0 -5 -4 -11t-9 -11.5t-11 -9.5t-10 -4
q-2 0 -3.5 0.5t-2.5 0.5q0 5 -1 16t-3 23.5t-3.5 24t-2.5 16.5q0 1 -2 6.5t-5 11l-5.5 10.5t-2.5 7l-0.5 3t-0.5 5z" />
    <glyph glyph-name="FL00AFh" unicode="&#xaf;" horiz-adv-x="354" 
d="M2 605q0 9 14 19.5t36 18.5t47.5 13t37.5 5h93q44 0 67 -3q24 -2 49 -20q-10 -21 -18 -28.5t-20 -11.5q-11 -5 -22.5 -8t-27.5 -6l-190 -6q-26 0 -35 6q-4 2 -11.5 7t-19.5 11v3z" />
    <glyph glyph-name="FL00B0h" unicode="&#xb0;" horiz-adv-x="229" 
d="M207 303v7v16v8q0 37 -11.5 71t-31 60t-45.5 41.5t-55 15.5q-9 0 -19.5 -7t-20.5 -18t-16 -24.5t-6 -26.5q0 -24 9 -50.5t22.5 -51.5t30.5 -44.5t33 -29.5q10 -6 23.5 -7t24.5 -1t19.5 1.5t15.5 6t13.5 12.5t13.5 21zM146 397v-29q0 -13 -2 -23t-7 -15.5t-15 -6.5
q-4 0 -11.5 2t-14 5.5t-12.5 7.5t-8 6t-6 10.5t-7.5 20t-6 23.5t-2.5 21q0 20 5 31t12.5 15.5t18.5 3t23 -4.5q21 -6 27 -21.5t6 -45.5z" />
    <glyph glyph-name="FL00B1h" unicode="&#xb1;" horiz-adv-x="282" 
d="M12 230q0 5 1 7.5t3.5 4t8 3.5t13.5 7q16 11 26 13.5t26 2.5l12 72q12 24 56 4l12 -76q32 0 49 -4q16 -3 37 -28l-5 -17.5t-2.5 -2t-3 3.5t-6.5 -2q-4 -3 -8 -5.5t-8 -4t-15.5 -4t-29.5 -3.5l-8 -64q-16 -24 -60 -8l-8 68l-40 -3q-19 0 -27 6q-4 4 -9.5 10l-13.5 15v5z
M15 40q0 6 1.5 7.5t3.5 1.5q3 0 8.5 1t13.5 6q16 11 34.5 18.5t27.5 7.5h70q32 0 49 -4q16 -4 37 -28q-4 -15 -5.5 -18.5t-3 -3t-3 2t-6.5 -1.5q-8 -6 -16 -10t-20 -8l-141 -7q-19 0 -27 6q-4 4 -9.5 10l-13.5 15v5z" />
    <glyph glyph-name="FL00B2h" unicode="&#xb2;" horiz-adv-x="270" 
d="M19 497q-17 -28 14 -26q16 2 26 2.5t15 0.5q16 0 33.5 4.5l33.5 8.5q12 3 33 -17q24 -20 17 -36q-9 -28 -41 -32q-8 -1 -16 -1.5t-17 -0.5q-22 2 -46.5 -8t-40.5 -26q-21 -21 -22 -59q0 -37 10 -41q11 -3 42 -4q17 -1 27 -1h15q16 0 32 3.5t31 7.5t31 7.5t34 2.5v4
q0 6 -5.5 11t-13 9t-15.5 6t-14 2l-77 -4q-11 -2 -19.5 1t-15.5 3q-5 1 -7 0t-2.5 -2.5t0.5 -2.5t1 1q0 4 6 10.5t15.5 13t20 11t19.5 4.5q2 0 8 1t12.5 3t12.5 3.5t8 1.5q10 0 24 0.5t26.5 5t21.5 13t9 23.5q0 11 -5.5 21.5t-13.5 20.5q-4 4 -8 8.5t-8 8.5l-10 10.5
t-13 15.5q-13 18 -48 33h-75l-0.5 -0.5l-1.5 -1.5q-2 -2 -14.5 -6t-28.5 -13z" />
    <glyph glyph-name="FL00B3h" unicode="&#xb3;" horiz-adv-x="242" 
d="M162 470l-29.5 19.5t-18.5 11.5q-13 8 -20 17l-82 5q-4 1 -5 -3.5t-1 -5.5q0 -6 4 -10t9.5 -7.5l11 -7t8.5 -7.5q5 0 16 -0.5t24.5 -1.5t24.5 -1.5t16 -0.5h4h2q1 0 6.5 -2t16.5 -11q12 -10 12 -15q1 -4 1 -15q0 -7 -1 -12t-10 -5q-19 0 -36.5 2.5t-36.5 2.5h-8
q-4 0 -10 -0.5t-10 -0.5h-8q4 -14 14.5 -21t24 -10t27.5 -4t26 -3.5t20 -8.5t8 -18q0 -6 -0.5 -10.5t-5.5 -9.5q-2 -2 -8 -5l-13 -6.5t-13.5 -6t-8.5 -3.5h-13q-16 0 -31 4t-31 6q-2 0 -4 -2l-2 -2l2 -6q2 -4 3 -5l4 -4q5 -4 10.5 -9.5t6.5 -7.5q15 -4 25.5 -8t21 -7
t20.5 -4.5t23 -1.5q18 0 32.5 6.5t24.5 18.5t15.5 27t5.5 31q0 6 -6 25t-18 37q-9 21 -21.5 34.5t-18.5 21.5z" />
    <glyph glyph-name="FL00B4h" unicode="&#xb4;" horiz-adv-x="250" 
d="M98 502q0 -2 -11 -18.5l-24 -35.5l-24 -36t-11 -20q2 -9 -3 -19t-5 -19l12 -17q6 -9 17 -3t22.5 17t22.5 23.5t16 16.5l112 79l-34 49q-5 -5 -19.5 -3.5t-30.5 2.5t-28 -1.5t-12 -14.5z" />
    <glyph glyph-name="FL00B5h" unicode="&#xb5;" horiz-adv-x="495" 
d="M265 -3h-60q-7 0 -8.5 1.5t-5.5 1.5q-3 0 -8.5 -1t-5.5 6v4q-14 0 -24.5 4.5t-18.5 10.5t-13.5 10.5t-8.5 4.5q-1 0 -1 -11q0 -10 0.5 -26t1 -35.5t0 -36t-2 -28.5t-4.5 -13l-72 -35l-2 10.5t-4 19.5t-2 10q-2 0 0 10l5 25t7 32.5l8 34t6.5 28.5t2.5 16v140q0 11 -5 19
t-12.5 14.5l-15 12.5t-12.5 14l-0.5 2t-0.5 3q0 15 9.5 30.5t24 27.5t31.5 19.5t32 7.5q14 0 17.5 -16.5t3.5 -41.5v-45q-1 -2 -1 -6q0 -21 3 -41t11 -36t23 -25.5t39 -9.5h13q11 0 21 3.5t14 17.5q0 5 1.5 18t3 27.5t3 27t2.5 17.5q1 10 5.5 26t12 30.5t18 25t25.5 10.5
q13 0 14.5 -8l4.5 -24l10 -70q1 -5 2 -23.5t2 -39.5t2.5 -39t2.5 -22q2 -1 6 -1q8 0 22.5 4l29.5 8.5l29 8.5t22 4q7 0 7 -4q0 -9 -9.5 -20.5t-24.5 -23.5t-34 -23t-36.5 -20t-33 -14.5t-22.5 -5.5q-13 0 -17 -0.5t-6 -0.5t-7 -0.5t-20 -0.5z" />
    <glyph glyph-name="FL00B6h" unicode="&#xb6;" horiz-adv-x="480" 
d="M168 44q0 2 -5 10t-5 10v5q0 33 10 69t10 72q0 12 -8.5 16t-22.5 3t-31 -4t-32.5 -4.5t-28.5 1.5t-18 14q-5 8 -10 32.5t-9 52.5t-6.5 53t-2.5 36q0 10 8 19t19 16q14 8 24 11q12 5 163 34q76 15 115 22t42 8q10 2 18 -5t12.5 -18t7 -21.5t2.5 -15.5q1 -10 2.5 -35.5
t3.5 -54.5t3 -54.5t1 -35.5q11 -10 15 -30t6.5 -44t6 -49t12.5 -47v-5q0 -15 -7.5 -31.5t-20 -31t-28 -24t-30.5 -9.5q-12 0 -18 8t-8.5 20.5t-2 29t0.5 33.5q0 11 1 36.5t0.5 56.5t-3 64t-9.5 60t-19 44.5t-30 17.5h-22q-19 0 -39.5 -2.5t-34.5 -8.5q11 -12 20.5 -43
t14 -72t4 -85t-9 -80.5t-26 -60.5t-45.5 -24q-2 0 -5.5 0.5t-4.5 0.5q0 2 1 6.5t3 9.5l3.5 9t2.5 5q0 1 5 5t5 5z" />
    <glyph glyph-name="FL00B7h" unicode="&#xb7;" horiz-adv-x="154" 
d="M8 198q0 12 9 26t22 24.5t28 18t27 7.5q17 0 21.5 -8t4.5 -22q0 -13 -6 -27.5t-16 -26.5t-23 -20t-27 -8q-7 0 -11.5 2t-8.5 5.5t-8 9.5l-10 15l-1 1t-1 3z" />
    <glyph glyph-name="FL00B8h" unicode="&#xb8;" horiz-adv-x="130" 
d="M-36 -106q0 3 13 7l31 9.5t34 12.5t22 15q1 3 -0.5 8t-3 11t-3.5 12t-2 9q0 2 -2.5 3.5t-6.5 3t-7.5 3.5t-4.5 5q-3 6 -3 12q0 3 4 4t10 1.5t13 0.5h12l16 -19t8 -11t4.5 -10t5.5 -16q7 -19 9.5 -38.5t2.5 -28.5v-12q0 -12 -2.5 -22.5t-12.5 -10.5q-15 0 -38.5 3.5
t-45.5 9.5t-37.5 15.5t-15.5 22.5z" />
    <glyph glyph-name="FL00B9h" unicode="&#xb9;" horiz-adv-x="148" 
d="M98 509l2 -34v-53v-52q0 -4 -1.5 -12.5t-1.5 -24.5q0 -12 3.5 -15.5t10 -5.5t12 -2.5t7.5 -0.5q-8 -11 -18.5 -20t-23 -15t-26 -9t-25.5 -3q-2 0 -5.5 1t-7.5 1q-5 0 -9 0.5t-5 0.5q4 11 11 18t14 13t13 12t9 15q-2 34 -2.5 66t-0.5 64q-2 6 -7.5 9t-11.5 5.5l-11.5 5
t-9.5 8.5q6 5 11 12.5t9.5 13.5t10.5 10t15 4q13 0 25 -5q13 -5 13 -7z" />
    <glyph glyph-name="FL00BAh" unicode="&#xba;" horiz-adv-x="229" 
d="M207 303v7v16v8q0 37 -11.5 71t-31 60t-45.5 41.5t-55 15.5q-9 0 -19.5 -7t-20.5 -18t-16 -24.5t-6 -26.5q0 -24 9 -50.5t22.5 -51.5t30.5 -44.5t33 -29.5q10 -6 23.5 -7t24.5 -1t19.5 1.5t15.5 6t13.5 12.5t13.5 21zM146 397v-29q0 -13 -2 -23t-7 -15.5t-15 -6.5
q-4 0 -11.5 2t-14 5.5t-12.5 7.5t-8 6t-6 10.5t-7.5 20t-6 23.5t-2.5 21q0 20 5 31t12.5 15.5t18.5 3t23 -4.5q21 -6 27 -21.5t6 -45.5z" />
    <glyph glyph-name="FL00BBh" unicode="&#xbb;" horiz-adv-x="649" 
d="M414 48q-12 0 -24 11t-22.5 25t-18 28t-7.5 21q0 8 14 19t34 24.5l43.5 28.5t42.5 30t30 28.5t6 24.5q-6 18 -14 28t-18 15t-21.5 6t-24.5 1h-11h-13h-12h-4q-21 -5 -34.5 0t-21.5 15.5t-12 24.5t-4 28q0 24 10 28t27 4q14 0 39 -10t54.5 -26t60 -37.5t55.5 -43.5
t41 -42.5t16 -37.5q0 -43 -19.5 -69t-49 -42.5t-65.5 -30t-69 -31.5q-7 -4 -6 -7.5t3.5 -6.5t2.5 -4.5t-8 -1.5zM105 48q-11 0 -23.5 11t-23 25t-17.5 28t-7 21q0 8 13.5 19t34 24.5l43.5 28.5t42 30t30 28.5t6 24.5q-6 18 -14 28t-17.5 15t-21.5 6t-25 1h-11h-13h-11h-5
q-21 -5 -34.5 0t-21.5 15.5t-11.5 24.5t-3.5 28q0 24 10 28t26 4q14 0 39 -10t55 -26t60 -37.5t55 -43.5t41 -42.5t16 -37.5q0 -43 -19 -69t-49 -42.5t-66 -30t-68 -31.5q-8 -4 -7 -7.5t3.5 -6.5t3 -4.5t-8.5 -1.5z" />
    <glyph glyph-name="FL00BCh" unicode="&#xbc;" horiz-adv-x="550" 
d="M56 47l-2 13l202 318l58 88q0 8 7.5 17t17.5 16t20 11t15 5q11 3 18.5 -4.5t12.5 -18t7 -21.5t2 -16q-4 -24 -153 -213l-114 -146t-43 -61q-8 -17 -19.5 -29t-30.5 -12q-1 0 -4.5 0.5t-4.5 0.5q1 2 2 6.5t2 8.5q4 12 5.5 18.5t1.5 18.5zM504 42q0 -6 1 -9l3 -9q0 -5 2 -8
h-5q-14 0 -20.5 13t-10.5 29t-9 30t-15 18q-6 4 -17 5t-20 1h-11q-10 0 -22.5 1t-27.5 5q-32 4 -32 38q0 5 0.5 18t1 27.5t1.5 27.5t2 17q0 3 1 8t4 10.5t6.5 9.5t8.5 2q3 0 8 -2.5t9.5 -6t8 -8t3.5 -8.5v-95q0 -1 6 -2.5l10 -2.5h4q3 0 7.5 -0.5t8.5 -0.5h7h5q4 0 9 0.5
t9 0.5h5q1 7 5 23t10 32t14 28t20 12q10 0 23 -7.5t13 -16.5q0 -12 -8 -20t-12 -16q-9 -16 -12.5 -32t-3.5 -35t6 -36q5 -18 5 -33zM94 474v-53v-52q0 -4 -2 -13t-2 -25q0 -10 4 -14.5t10 -6t12 -2t8 -1.5q-17 -22 -42.5 -34t-51.5 -12q-1 0 -4.5 0.5t-7.5 0.5q-5 0 -9 0.5
t-5 0.5q4 11 11 18.5t14 13.5t13 12t8 15q-1 33 -1.5 65t-0.5 64q-2 6 -7.5 9.5t-11.5 6l-12 5t-9 7.5q6 6 10.5 13t9.5 13t11 10t15 4q12 0 24 -5q14 -4 14 -7z" />
    <glyph glyph-name="FL00BDh" unicode="&#xbd;" horiz-adv-x="578" 
d="M56 47l-2 13l202 318l58 88q0 8 7.5 17t17.5 16t20 11t15 5q11 3 18.5 -4.5t12.5 -18t7 -21.5t2 -16q-4 -24 -153 -213l-114 -146t-43 -61q-8 -17 -19.5 -29t-30.5 -12q-1 0 -4.5 0.5t-4.5 0.5q1 2 2 6.5t2 8.5q4 12 5.5 18.5t1.5 18.5zM94 474v-53v-52q0 -4 -2 -13
t-2 -25q0 -10 4 -14.5t10 -6t12 -2t8 -1.5q-17 -22 -42.5 -34t-51.5 -12q-1 0 -4.5 0.5t-7.5 0.5q-5 0 -9 0.5t-5 0.5q4 11 11 18.5t14 13.5t13 12t8 15q-1 33 -1.5 65t-0.5 64q-2 6 -7.5 9.5t-11.5 6l-12 5t-9 7.5q6 6 10.5 13t9.5 13t11 10t15 4q12 0 24 -5q14 -4 14 -7z
M336 241q16 9 28.5 13t14.5 6l1.5 1.5l0.5 0.5h75q34 -16 48 -33q7 -9 13 -15.5l10 -10.5t8 -8.5t8 -8.5q8 -10 13.5 -20.5t5.5 -21.5q0 -15 -9 -23.5t-21.5 -12.5t-26.5 -5t-24 -1q-2 0 -8 -1.5l-12.5 -3l-12.5 -3t-8 -1.5q-9 0 -19.5 -4.5t-20 -11t-15.5 -13t-6 -10.5
q0 -1 -0.5 -0.5t-0.5 1.5q0 2 2 3t7 0q7 0 15.5 -3t19.5 -1l77 4q6 0 14 -2t15.5 -6t13 -9t5.5 -11v-4q-18 1 -34 -2t-31.5 -7.5t-30.5 -8t-32 -3.5h-15q-6 0 -12 0.5t-15 0.5q-16 1 -26 2t-16 2q-10 4 -10 41q1 39 22 59q16 16 40.5 26t46.5 8q9 0 17 0.5t16 1.5
q32 4 41 32q7 16 -17 36q-21 20 -33 17l-33.5 -8.5t-33.5 -4.5q-5 0 -15 -0.5t-26 -2.5q-31 -2 -14 26z" />
    <glyph glyph-name="FL00BEh" unicode="&#xbe;" horiz-adv-x="638" 
d="M139 52l-1 13l201 317l59 88q0 9 7 18t17 15.5t20 11t16 5.5q10 2 17.5 -5t12.5 -18t7.5 -21.5t2.5 -15.5q-5 -24 -154 -213l-114 -146t-43 -61q-8 -18 -19.5 -29.5t-29.5 -11.5q-2 0 -5.5 0.5t-4.5 0.5q1 2 2 6t2 9q4 12 5.5 18.5t1.5 18.5zM587 47q0 -6 1 -9l3 -9
q0 -5 2 -8h-5q-14 0 -20 12.5t-10.5 28.5t-9.5 30.5t-15 18.5q-6 3 -17 4.5t-20 1.5h-11q-10 0 -22.5 1t-27.5 4q-32 5 -32 39q0 5 0.5 18t1.5 27.5t1.5 27t1.5 17.5q0 3 1 8t4 10.5t6.5 9t8.5 2.5q3 0 8 -2.5t9.5 -6t8.5 -8t4 -8.5v-95q0 -1 5.5 -2.5t9.5 -2.5h4
q3 0 7.5 -0.5t9.5 -0.5h6h6q4 0 8.5 0.5t8.5 0.5h5q2 7 5.5 22.5t9.5 32t14.5 28.5t20.5 12q9 0 22.5 -7.5t13.5 -17.5q0 -11 -8 -19t-13 -16q-9 -17 -12 -33t-3 -34q0 -19 5 -36q5 -18 5 -34zM164 460q6 -8 18 -21.5t22 -34.5q12 -18 18 -37t6 -25q0 -16 -5.5 -31
t-15.5 -26.5t-25 -19t-32 -7.5q-13 0 -23 2t-20 5t-21.5 7t-25.5 8q-2 2 -7 7.5t-11 9.5q-2 3 -3 4t-3 5q-2 3 -2 4.5v1.5l2 2t4 2q16 -2 31 -6t31 -4h12q3 0 9.5 3l13.5 6t13 6.5t8 4.5q4 6 5 10.5t1 9.5q0 13 -7.5 18.5t-19.5 8.5t-27 4t-28 4t-23.5 10t-14.5 21h8
q4 0 10 0.5t10 0.5h8q18 0 36 -2.5t37 -2.5q9 0 10 5t1 12q0 10 -2 15q0 5 -12 14q-10 10 -15.5 12t-6.5 2h-2h-4q-5 0 -16.5 1t-24.5 1t-24 1t-16 1q-3 4 -9 7t-11 7t-9 8t-4 10q0 1 1 5.5t5 3.5l82 -5q3 -5 8.5 -9.5t11.5 -8.5t18 -11t30 -19z" />
    <glyph glyph-name="FL00BFh" unicode="&#xbf;" horiz-adv-x="510" 
d="M458 42q36 56 -26 50q-31 -3 -51.5 -4.5t-30.5 -1.5q-33 0 -67.5 -8t-67.5 -17q-23 -7 -67 34q-45 40 -34 71q11 29 32.5 45t51.5 20q16 2 32 3t33 0q35 -1 84 15q50 14 90.5 55t20.5 47q-21 6 -41 3q-19 -4 -62 -24q-43 -21 -61 -21h-8q-6 0 -11.5 0.5t-10.5 0.5h-6
q-3 0 -16 1.5t-28.5 3t-28.5 3t-16 1.5q-21 0 -48.5 -2t-53 -10.5t-42.5 -25.5t-17 -47q0 -21 10.5 -42.5l22.5 -45.5q6 -12 13 -24t15 -24q15 -24 49 -46q32 -23 100 -53h151q1 0 5 4q1 3 8.5 5t19 6t26 11t30.5 17zM500 478q0 -12 -9 -25.5t-22.5 -24t-28 -18t-26.5 -7.5
q-17 0 -21.5 7.5t-4.5 22.5q0 13 6 27t16 26t23 20t27 8q7 0 11.5 -1.5t8.5 -5t8 -9.5l10 -15l1 -1t1 -4z" />
    <glyph glyph-name="FL00C0h" unicode="&#xc0;" horiz-adv-x="460" 
d="M9 39q0 12 8.5 47.5t21 81t28 96l30 94.5t26 75t17.5 37q6 8 17.5 15.5t24 13.5t25.5 9.5t23 3.5q51 0 90 -42q2 -1 5 -10t6 -19.5t6 -19t3 -11.5q6 -15 14.5 -31.5l17 -33t16 -33t12.5 -32.5l24.5 -90l25.5 -90q0 -1 1 -7.5t1 -9.5q0 -2 -1 -7t-1 -6l-60 -60l-3.5 -0.5
t-5.5 -0.5q-10 0 -24.5 5.5t-16.5 15.5l-20 120q-10 6 -15 15t-10.5 17t-13 13.5t-21.5 4.5t-41.5 -5t-54 -13t-46.5 -23.5t-20 -36.5q0 -13 4 -20.5t8 -13.5t7.5 -12t3.5 -16q0 -14 -8.5 -25t-20.5 -19t-26 -12.5t-26 -4.5t-18.5 2t-9 6.5t-3 12t-0.5 19.5zM109 244
q0 -14 7.5 -24.5t22.5 -10.5q10 0 24 5.5t28.5 12.5l28 14t20.5 9q1 1 2.5 5t3 9t3 9.5t1.5 6.5v10q0 16 -6 33.5t-16 32.5t-24 25t-29 10q-21 0 -34 -16.5t-20 -40t-9.5 -48.5t-2.5 -42zM210 696q0 -2 5 -10l13 -20l17 -25.5l17 -25t13 -20t5 -9.5q-1 -5 1 -8.5t4.5 -6
t5 -6t2.5 -7.5l-12 -18q-7 -9 -18.5 -4t-24 14.5t-24 20t-16.5 14.5l-112 78l34 50q6 -6 20 -4.5t30 3t28 -1t12 -14.5z" />
    <glyph glyph-name="FL00C1h" unicode="&#xc1;" horiz-adv-x="460" 
d="M9 39q0 12 8.5 47.5t21 81t28 96l30 94.5t26 75t17.5 37q6 8 17.5 15.5t24 13.5t25.5 9.5t23 3.5q51 0 90 -42q2 -1 5 -10t6 -19.5t6 -19t3 -11.5q6 -15 14.5 -31.5l17 -33t16 -33t12.5 -32.5l24.5 -90l25.5 -90q0 -1 1 -7.5t1 -9.5q0 -2 -1 -7t-1 -6l-60 -60l-3.5 -0.5
t-5.5 -0.5q-10 0 -24.5 5.5t-16.5 15.5l-20 120q-10 6 -15 15t-10.5 17t-13 13.5t-21.5 4.5t-41.5 -5t-54 -13t-46.5 -23.5t-20 -36.5q0 -13 4 -20.5t8 -13.5t7.5 -12t3.5 -16q0 -14 -8.5 -25t-20.5 -19t-26 -12.5t-26 -4.5t-18.5 2t-9 6.5t-3 12t-0.5 19.5zM109 244
q0 -14 7.5 -24.5t22.5 -10.5q10 0 24 5.5t28.5 12.5l28 14t20.5 9q1 1 2.5 5t3 9t3 9.5t1.5 6.5v10q0 16 -6 33.5t-16 32.5t-24 25t-29 10q-21 0 -34 -16.5t-20 -40t-9.5 -48.5t-2.5 -42zM242 698q0 12 12 14.5t27.5 1.5t30 -2.5t19.5 3.5l35 -49l-113 -79
q-5 -4 -16.5 -12.5t-25 -16t-25.5 -10.5t-18 6l-12 17q0 5 3 6t5.5 2.5t5 2.5t1.5 6q0 2 11 18.5l24 36l24.5 36.5t11.5 19z" />
    <glyph glyph-name="FL00C2h" unicode="&#xc2;" horiz-adv-x="460" 
d="M9 39q0 12 8.5 47.5t21 81t28 96l30 94.5t26 75t17.5 37q6 8 17.5 15.5t24 13.5t25.5 9.5t23 3.5q51 0 90 -42q2 -1 5 -10t6 -19.5t6 -19t3 -11.5q6 -15 14.5 -31.5l17 -33t16 -33t12.5 -32.5l24.5 -90l25.5 -90q0 -1 1 -7.5t1 -9.5q0 -2 -1 -7t-1 -6l-60 -60l-3.5 -0.5
t-5.5 -0.5q-10 0 -24.5 5.5t-16.5 15.5l-20 120q-10 6 -15 15t-10.5 17t-13 13.5t-21.5 4.5t-41.5 -5t-54 -13t-46.5 -23.5t-20 -36.5q0 -13 4 -20.5t8 -13.5t7.5 -12t3.5 -16q0 -14 -8.5 -25t-20.5 -19t-26 -12.5t-26 -4.5t-18.5 2t-9 6.5t-3 12t-0.5 19.5zM109 244
q0 -14 7.5 -24.5t22.5 -10.5q10 0 24 5.5t28.5 12.5l28 14t20.5 9q1 1 2.5 5t3 9t3 9.5t1.5 6.5v10q0 16 -6 33.5t-16 32.5t-24 25t-29 10q-21 0 -34 -16.5t-20 -40t-9.5 -48.5t-2.5 -42zM386 602q0 -7 -8 -14t-20 -13.5t-23 -11t-16 -4.5q-6 0 -15.5 10.5t-21.5 26
l-25 33.5t-25.5 33t-24 23.5t-20.5 5.5q-14 -4 -21.5 -13t-9.5 -20.5t-2 -23.5v-20v-7q0 -4 0.5 -7.5t0.5 -6.5v-3l23 -19q-4 -5 -13.5 -12.5t-20.5 -14t-23 -10.5t-23 -4q-9 0 -14 4t-7.5 10t-2.5 13v12q0 8 8 24.5t20 36.5t28 40t33.5 37t33.5 28t29 11q35 0 55.5 -10
t33.5 -25t23 -34t25 -39q7 -9 15 -17t8 -19z" />
    <glyph glyph-name="FL00C3h" unicode="&#xc3;" horiz-adv-x="460" 
d="M9 39q0 12 8.5 47.5t21 81t28 96l30 94.5t26 75t17.5 37q6 8 17.5 15.5t24 13.5t25.5 9.5t23 3.5q51 0 90 -42q2 -1 5 -10t6 -19.5t6 -19t3 -11.5q6 -15 14.5 -31.5l17 -33t16 -33t12.5 -32.5l24.5 -90l25.5 -90q0 -1 1 -7.5t1 -9.5q0 -2 -1 -7t-1 -6l-60 -60l-3.5 -0.5
t-5.5 -0.5q-10 0 -24.5 5.5t-16.5 15.5l-20 120q-10 6 -15 15t-10.5 17t-13 13.5t-21.5 4.5t-41.5 -5t-54 -13t-46.5 -23.5t-20 -36.5q0 -13 4 -20.5t8 -13.5t7.5 -12t3.5 -16q0 -14 -8.5 -25t-20.5 -19t-26 -12.5t-26 -4.5t-18.5 2t-9 6.5t-3 12t-0.5 19.5zM109 244
q0 -14 7.5 -24.5t22.5 -10.5q10 0 24 5.5t28.5 12.5l28 14t20.5 9q1 1 2.5 5t3 9t3 9.5t1.5 6.5v10q0 16 -6 33.5t-16 32.5t-24 25t-29 10q-21 0 -34 -16.5t-20 -40t-9.5 -48.5t-2.5 -42zM88 577q0 22 7.5 36.5t19.5 27.5q23 29 63 29q24 0 66 -23h-1l16.5 -6.5t9.5 -2.5
q5 0 9.5 -1.5t12 1t19 11.5t28.5 30l20 -20q0 -35 -7.5 -54t-20 -28t-28.5 -10t-35 -1q-28 0 -66 23q-18 11 -26 11q-5 0 -9 -2.5t-8 -6.5q-8 -7 -19.5 -14.5t-32.5 -11.5z" />
    <glyph glyph-name="FL00C4h" unicode="&#xc4;" horiz-adv-x="460" 
d="M9 39q0 12 8.5 47.5t21 81t28 96l30 94.5t26 75t17.5 37q6 8 17.5 15.5t24 13.5t25.5 9.5t23 3.5q51 0 90 -42q2 -1 5 -10t6 -19.5t6 -19t3 -11.5q6 -15 14.5 -31.5l17 -33t16 -33t12.5 -32.5l24.5 -90l25.5 -90q0 -1 1 -7.5t1 -9.5q0 -2 -1 -7t-1 -6l-60 -60l-3.5 -0.5
t-5.5 -0.5q-10 0 -24.5 5.5t-16.5 15.5l-20 120q-10 6 -15 15t-10.5 17t-13 13.5t-21.5 4.5t-41.5 -5t-54 -13t-46.5 -23.5t-20 -36.5q0 -13 4 -20.5t8 -13.5t7.5 -12t3.5 -16q0 -14 -8.5 -25t-20.5 -19t-26 -12.5t-26 -4.5t-18.5 2t-9 6.5t-3 12t-0.5 19.5zM109 244
q0 -14 7.5 -24.5t22.5 -10.5q10 0 24 5.5t28.5 12.5l28 14t20.5 9q1 1 2.5 5t3 9t3 9.5t1.5 6.5v10q0 16 -6 33.5t-16 32.5t-24 25t-29 10q-21 0 -34 -16.5t-20 -40t-9.5 -48.5t-2.5 -42zM74 621q0 12 9 25.5t22 24.5t28.5 18t27.5 7q17 0 21 -7.5t4 -22.5q0 -12 -6 -26.5
t-16 -26.5t-22.5 -20t-27.5 -8q-7 0 -11.5 1.5t-8.5 5t-8 9.5l-10 15l-1 1t-1 4zM258 622q0 12 9 25.5t22 24t28.5 18t27.5 7.5q17 0 21 -7.5t4 -22.5q0 -13 -6 -27t-16 -26t-22.5 -20t-27.5 -8q-7 0 -11.5 1.5t-8.5 5t-8 9.5l-10 15l-1 1t-1 4z" />
    <glyph glyph-name="FL00C5h" unicode="&#xc5;" horiz-adv-x="460" 
d="M9 39q0 12 8.5 47.5t21 81t28 96l30 94.5t26 75t17.5 37q6 8 17.5 15.5t24 13.5t25.5 9.5t23 3.5q51 0 90 -42q2 -1 5 -10t6 -19.5t6 -19t3 -11.5q6 -15 14.5 -31.5l17 -33t16 -33t12.5 -32.5l24.5 -90l25.5 -90q0 -1 1 -7.5t1 -9.5q0 -2 -1 -7t-1 -6l-60 -60l-3.5 -0.5
t-5.5 -0.5q-10 0 -24.5 5.5t-16.5 15.5l-20 120q-10 6 -15 15t-10.5 17t-13 13.5t-21.5 4.5t-41.5 -5t-54 -13t-46.5 -23.5t-20 -36.5q0 -13 4 -20.5t8 -13.5t7.5 -12t3.5 -16q0 -14 -8.5 -25t-20.5 -19t-26 -12.5t-26 -4.5t-18.5 2t-9 6.5t-3 12t-0.5 19.5zM109 244
q0 -14 7.5 -24.5t22.5 -10.5q10 0 24 5.5t28.5 12.5l28 14t20.5 9q1 1 2.5 5t3 9t3 9.5t1.5 6.5v10q0 16 -6 33.5t-16 32.5t-24 25t-29 10q-21 0 -34 -16.5t-20 -40t-9.5 -48.5t-2.5 -42zM297 607q-9 -15 -22 -21t-26 -7l-47 -2q-10 0 -17.5 4.5t-17.5 11.5q-16 9 -26.5 19
t-17 23.5t-9.5 31t-3 41.5q0 13 6.5 26.5t15.5 24.5t20 18t20 7q29 0 53.5 -10t43.5 -29.5t29.5 -48.5t10.5 -66zM249 693v6q0 12 -0.5 17t-3 6t-7.5 1q-6 0 -16 3q-12 3 -23 4t-18.5 -3.5t-12.5 -15t-5 -30.5q0 -19 5.5 -27l9.5 -14l21.5 -12.5t25.5 -8.5q14 2 19 13.5
t5 31.5v29z" />
    <glyph glyph-name="FL00C6h" unicode="&#xc6;" horiz-adv-x="748" 
d="M442 403q-10 -13 -27 -31t-33 -46l-23 43t-19 41q0 3 -3 11.5t-6 19t-6 19.5t-5 10q-39 42 -90 42q-10 0 -23 -3.5t-25.5 -9.5t-24 -13.5t-17.5 -15.5q-6 -7 -17.5 -37.5t-26 -74.5l-30 -94.5t-28 -96t-21 -81t-8.5 -47.5t0.5 -19.5t3 -12t9 -6.5t18.5 -2t26 4.5t26 12.5
t20.5 19t8.5 25q0 10 -3.5 16t-7.5 12t-8 13.5t-4 20.5q0 22 20 36.5t46.5 23.5t54 13t41.5 5t21.5 -4.5t13 -13.5t10.5 -17t15 -15l20 -120q2 -10 16.5 -15.5t24.5 -5.5q2 0 5.5 0.5l3.5 0.5l14 14q29 -15 63 -15q23 0 42 2.5t38 7.5t39 13l46 19q4 3 14 13.5t19 17.5
q5 6 7 9t6 11l4 9q0 3 -4 7t-6 4q-30 -4 -58.5 -13t-58.5 -9q-5 0 -13.5 1t-9.5 1q-5 0 -16.5 5.5l-24.5 12l-24.5 12.5t-14.5 10q-9 8 -10 18t-1 22q0 24 14 35t36 16t48.5 7.5t51 9t44 20t27.5 41.5h-13q-9 0 -19.5 0.5t-19.5 0.5h-13q-35 0 -67.5 -5t-68.5 -5
q-17 0 -18.5 10t-1.5 23v15q0 8 1.5 14t6.5 13.5t16 16.5q21 17 31 21.5t12 3.5h10q8 0 29.5 1.5t45.5 3t45.5 3t29.5 3.5q6 6 16.5 12.5t20 13.5t17 15t7.5 19q0 4 -1.5 12t-9.5 8l-150 -11q-18 -21 -39 -35q-11 -7 -33 -22.5zM109 244q0 17 2.5 42t9.5 48.5t20 40t34 16.5
q15 0 29 -10t24 -25t16 -32.5t6 -33.5v-10q0 -2 -1.5 -6.5t-3 -9.5t-3 -9t-2.5 -5q-7 -2 -20.5 -9l-28 -14t-28.5 -12.5t-24 -5.5q-15 0 -22.5 10.5t-7.5 24.5z" />
    <glyph glyph-name="FL00C7h" unicode="&#xc7;" horiz-adv-x="460" 
d="M90 -97q0 -13 16 -23t38 -16t45 -9t38 -3q11 0 13 10.5t2 22.5v12q0 9 -2 28.5t-10 38.5q-3 8 -4.5 12.5t-3 8t-3.5 7t-7 9.5q25 2 49.5 7.5l58.5 13.5q7 10 19.5 16t24 12.5t20.5 15t9 24.5h-183q-25 0 -47 21.5t-40 50.5q-17 34 -21 65q-4 37 44 100q48 65 67 65
q9 1 18.5 0.5t18.5 -1.5q17 -1 34 -1.5t38 -0.5q38 0 70.5 10.5t57.5 43.5q-6 17 -24 24t-39.5 9t-43 0.5t-33.5 -1.5h-12q-8 0 -18 -0.5t-19 -0.5h-11q-7 -6 -20 -14t-26 -18q-12 -9 -22.5 -19.5t-23.5 -21.5q-65 -70 -94 -111q-26 -37 -34 -62q-7 -24 -13.5 -43t-6.5 -32
v-5l25.5 -57t29 -47.5t39 -32.5t56.5 -12h2q4 -4 12 -6t8 -7q0 -2 2 -8t3.5 -12t2.5 -11t0 -8q-6 -9 -22 -15.5t-33.5 -12l-31 -9.5t-13.5 -7z" />
    <glyph glyph-name="FL00C8h" unicode="&#xc8;" 
d="M130 392l54 38.5t33 22.5q21 13 39 35l150 10q8 1 9.5 -7.5t1.5 -12.5q0 -10 -7.5 -18t-17 -15t-20 -13.5t-16.5 -13.5q-8 -1 -29.5 -2.5t-45.5 -3.5t-45.5 -3t-29.5 -1h-6h-4q-2 1 -12 -3.5t-31 -22.5q-11 -8 -16 -15.5t-6.5 -14t-1.5 -13.5v-15q0 -14 1.5 -24t18.5 -10
q36 0 68.5 5.5t67.5 5.5h13q9 0 19.5 -0.5t19.5 -0.5h13q-8 -28 -27.5 -41.5t-44 -20t-51 -9t-48.5 -7.5t-36 -16.5t-14 -35.5q0 -11 1 -21t10 -19q3 -3 14.5 -9l24.5 -12.5l24.5 -12t16.5 -6.5q1 0 9.5 -0.5t13.5 -0.5q30 0 58.5 8.5t58.5 12.5q2 0 6 -4t4 -6l-4 -10
q-4 -7 -6 -10t-7 -9q-9 -7 -19 -17.5t-14 -13.5l-46 -19t-39 -13.5t-38 -7.5t-42 -2q-33 0 -60 13t-46 35.5t-29.5 51.5t-10.5 62q0 6 3 19.5t9 30t14 36.5t18 38q19 41 42 66.5t35 41.5zM245 701q0 -2 5 -10.5t13 -20.5l17 -25l17 -24.5t13 -20t5 -10.5q-1 -4 1 -7.5
t4.5 -6t5 -6t2.5 -8.5l-12 -17q-6 -9 -18 -4t-24.5 14.5t-24 20t-15.5 14.5l-113 78l34 50q6 -6 20.5 -4.5l30 3t27.5 -1t12 -14.5z" />
    <glyph glyph-name="FL00C9h" unicode="&#xc9;" 
d="M130 392l54 38.5t33 22.5q21 13 39 35l150 10q8 1 9.5 -7.5t1.5 -12.5q0 -10 -7.5 -18t-17 -15t-20 -13.5t-16.5 -13.5q-8 -1 -29.5 -2.5t-45.5 -3.5t-45.5 -3t-29.5 -1h-6h-4q-2 1 -12 -3.5t-31 -22.5q-11 -8 -16 -15.5t-6.5 -14t-1.5 -13.5v-15q0 -14 1.5 -24t18.5 -10
q36 0 68.5 5.5t67.5 5.5h13q9 0 19.5 -0.5t19.5 -0.5h13q-8 -28 -27.5 -41.5t-44 -20t-51 -9t-48.5 -7.5t-36 -16.5t-14 -35.5q0 -11 1 -21t10 -19q3 -3 14.5 -9l24.5 -12.5l24.5 -12t16.5 -6.5q1 0 9.5 -0.5t13.5 -0.5q30 0 58.5 8.5t58.5 12.5q2 0 6 -4t4 -6l-4 -10
q-4 -7 -6 -10t-7 -9q-9 -7 -19 -17.5t-14 -13.5l-46 -19t-39 -13.5t-38 -7.5t-42 -2q-33 0 -60 13t-46 35.5t-29.5 51.5t-10.5 62q0 6 3 19.5t9 30t14 36.5t18 38q19 41 42 66.5t35 41.5zM240 697q0 12 12 14.5t27.5 1l30 -3t20.5 4.5l34 -50l-113 -78l-16.5 -13t-24.5 -16
t-25 -10.5t-19 5.5l-12 18q0 4 3 5.5t6 2.5t5 2.5t2 5.5q0 3 10.5 19.5l24 36l24.5 36t11 19.5z" />
    <glyph glyph-name="FL00CAh" unicode="&#xca;" 
d="M130 392l54 38.5t33 22.5q21 13 39 35l150 10q8 1 9.5 -7.5t1.5 -12.5q0 -10 -7.5 -18t-17 -15t-20 -13.5t-16.5 -13.5q-8 -1 -29.5 -2.5t-45.5 -3.5t-45.5 -3t-29.5 -1h-6h-4q-2 1 -12 -3.5t-31 -22.5q-11 -8 -16 -15.5t-6.5 -14t-1.5 -13.5v-15q0 -14 1.5 -24t18.5 -10
q36 0 68.5 5.5t67.5 5.5h13q9 0 19.5 -0.5t19.5 -0.5h13q-8 -28 -27.5 -41.5t-44 -20t-51 -9t-48.5 -7.5t-36 -16.5t-14 -35.5q0 -11 1 -21t10 -19q3 -3 14.5 -9l24.5 -12.5l24.5 -12t16.5 -6.5q1 0 9.5 -0.5t13.5 -0.5q30 0 58.5 8.5t58.5 12.5q2 0 6 -4t4 -6l-4 -10
q-4 -7 -6 -10t-7 -9q-9 -7 -19 -17.5t-14 -13.5l-46 -19t-39 -13.5t-38 -7.5t-42 -2q-33 0 -60 13t-46 35.5t-29.5 51.5t-10.5 62q0 6 3 19.5t9 30t14 36.5t18 38q19 41 42 66.5t35 41.5zM389 604q0 -6 -8.5 -13.5t-20 -14t-23 -10.5t-15.5 -4q-7 0 -16.5 10t-21.5 26
l-25 34t-25 32.5t-24 23.5t-20 6q-15 -4 -22 -13.5t-9.5 -21t-2 -23.5t0.5 -20v-6q0 -4 0.5 -8t0.5 -7v-3l23 -18q-5 -6 -14 -13t-20.5 -13.5t-23.5 -11t-22 -4.5t-14.5 4.5t-7 10.5t-2.5 12v12q0 8 7.5 24.5t20 36.5t28.5 40.5t33 37t33.5 27.5t29.5 11q34 0 54.5 -9.5
t33.5 -25t23 -34.5t26 -39q6 -9 14.5 -17t8.5 -19z" />
    <glyph glyph-name="FL00CBh" unicode="&#xcb;" 
d="M130 392l54 38.5t33 22.5q21 13 39 35l150 10q8 1 9.5 -7.5t1.5 -12.5q0 -10 -7.5 -18t-17 -15t-20 -13.5t-16.5 -13.5q-8 -1 -29.5 -2.5t-45.5 -3.5t-45.5 -3t-29.5 -1h-6h-4q-2 1 -12 -3.5t-31 -22.5q-11 -8 -16 -15.5t-6.5 -14t-1.5 -13.5v-15q0 -14 1.5 -24t18.5 -10
q36 0 68.5 5.5t67.5 5.5h13q9 0 19.5 -0.5t19.5 -0.5h13q-8 -28 -27.5 -41.5t-44 -20t-51 -9t-48.5 -7.5t-36 -16.5t-14 -35.5q0 -11 1 -21t10 -19q3 -3 14.5 -9l24.5 -12.5l24.5 -12t16.5 -6.5q1 0 9.5 -0.5t13.5 -0.5q30 0 58.5 8.5t58.5 12.5q2 0 6 -4t4 -6l-4 -10
q-4 -7 -6 -10t-7 -9q-9 -7 -19 -17.5t-14 -13.5l-46 -19t-39 -13.5t-38 -7.5t-42 -2q-33 0 -60 13t-46 35.5t-29.5 51.5t-10.5 62q0 6 3 19.5t9 30t14 36.5t18 38q19 41 42 66.5t35 41.5zM84 607q0 12 9 25.5t22 24.5t28 18t27 7q17 0 21.5 -7.5t4.5 -21.5q0 -13 -6 -27.5
t-16 -26.5t-23 -20t-27 -8q-7 0 -11.5 1.5t-8.5 5.5t-8 10t-10 14l-1 1.5t-1 3.5zM268 608q0 12 9 25.5t22 24.5t28 18t27 7q17 0 21.5 -7.5t4.5 -21.5q0 -13 -6 -27.5t-16 -26.5t-23 -20t-27 -8q-7 0 -11.5 1.5t-8.5 5t-8 9.5l-10 15l-1 1.5t-1 3.5z" />
    <glyph glyph-name="FL00CCh" unicode="&#xcc;" horiz-adv-x="260" 
d="M50 21q0 1 -0.5 5t-0.5 6q0 14 5.5 25.5t15.5 26.5q0 11 -0.5 39.5t-0.5 59.5t0.5 59.5t0.5 39.5q0 3 2 13.5t3.5 23t3 23.5t1.5 13v6q0 12 -9.5 19t-21.5 10.5t-23.5 5t-15.5 1.5q14 21 36 37.5t47 27.5t52 16t50 5q3 0 11 -1t16 -1q9 0 17 -0.5t11 -0.5
q-8 -22 -22 -35.5t-29.5 -24.5t-28.5 -23t-20 -31q8 -60 10 -120t0 -120q6 -11 17 -17t23 -10t23 -9t17 -16q-12 -12 -21 -25t-18 -24t-21 -18.5t-30 -7.5q-26 0 -50 9t-50 13zM137 710q0 -2 5 -10.5t13 -20.5l17 -25l17 -24.5t13 -20t5 -10.5q-1 -5 1 -8t4.5 -6l5 -6
t2.5 -8l-12 -17q-6 -9 -18 -4.5t-24.5 14.5l-24 20t-15.5 14l-113 79l34 49q6 -5 20.5 -3.5t30 2.5t27.5 -1t12 -14z" />
    <glyph glyph-name="FL00CDh" unicode="&#xcd;" horiz-adv-x="260" 
d="M50 21q0 1 -0.5 5t-0.5 6q0 14 5.5 25.5t15.5 26.5q0 11 -0.5 39.5t-0.5 59.5t0.5 59.5t0.5 39.5q0 3 2 13.5t3.5 23t3 23.5t1.5 13v6q0 12 -9.5 19t-21.5 10.5t-23.5 5t-15.5 1.5q14 21 36 37.5t47 27.5t52 16t50 5q3 0 11 -1t16 -1q9 0 17 -0.5t11 -0.5
q-8 -22 -22 -35.5t-29.5 -24.5t-28.5 -23t-20 -31q8 -60 10 -120t0 -120q6 -11 17 -17t23 -10t23 -9t17 -16q-12 -12 -21 -25t-18 -24t-21 -18.5t-30 -7.5q-26 0 -50 9t-50 13zM142 701q0 12 12 14.5t27.5 1l30 -3t19.5 4.5l35 -50l-113 -78l-16.5 -13t-25 -16t-25.5 -10.5
t-18 5.5l-12 18q0 4 3 5.5t5.5 2.5t5 2.5t1.5 5.5q0 3 11 19.5l24 36l24.5 36t11.5 19.5z" />
    <glyph glyph-name="FL00CEh" unicode="&#xce;" horiz-adv-x="260" 
d="M50 21q0 1 -0.5 5t-0.5 6q0 14 5.5 25.5t15.5 26.5q0 11 -0.5 39.5t-0.5 59.5t0.5 59.5t0.5 39.5q0 3 2 13.5t3.5 23t3 23.5t1.5 13v6q0 12 -9.5 19t-21.5 10.5t-23.5 5t-15.5 1.5q14 21 36 37.5t47 27.5t52 16t50 5q3 0 11 -1t16 -1q9 0 17 -0.5t11 -0.5
q-8 -22 -22 -35.5t-29.5 -24.5t-28.5 -23t-20 -31q8 -60 10 -120t0 -120q6 -11 17 -17t23 -10t23 -9t17 -16q-12 -12 -21 -25t-18 -24t-21 -18.5t-30 -7.5q-26 0 -50 9t-50 13zM290 608q0 -6 -8.5 -13.5t-20 -14t-23 -10.5t-16.5 -4q-6 0 -15 9.5t-19.5 24l-22 30.5
t-23.5 30t-22.5 21.5t-19.5 4.5q-14 -4 -21.5 -11.5t-10 -17t-2 -20t0.5 -18.5v-6q0 -4 0.5 -7.5t0.5 -7.5v-3l23 -18q-5 -6 -14 -13t-20 -13.5t-23 -11t-23 -4.5q-9 0 -14 4.5t-7.5 10.5t-2.5 12v12q0 8 7.5 24t20 34.5t28.5 38t33.5 35t33.5 25.5t29 10q35 0 53.5 -7.5
t30 -21t20 -31t23.5 -37.5q7 -9 15.5 -17t8.5 -19z" />
    <glyph glyph-name="FL00CFh" unicode="&#xcf;" horiz-adv-x="260" 
d="M50 21q0 1 -0.5 5t-0.5 6q0 14 5.5 25.5t15.5 26.5q0 11 -0.5 39.5t-0.5 59.5t0.5 59.5t0.5 39.5q0 3 2 13.5t3.5 23t3 23.5t1.5 13v6q0 12 -9.5 19t-21.5 10.5t-23.5 5t-15.5 1.5q14 21 36 37.5t47 27.5t52 16t50 5q3 0 11 -1t16 -1q9 0 17 -0.5t11 -0.5
q-8 -22 -22 -35.5t-29.5 -24.5t-28.5 -23t-20 -31q8 -60 10 -120t0 -120q6 -11 17 -17t23 -10t23 -9t17 -16q-12 -12 -21 -25t-18 -24t-21 -18.5t-30 -7.5q-26 0 -50 9t-50 13zM-10 602q0 12 9 26t22 24.5t28.5 18t27.5 7.5q17 0 21 -8t4 -22q0 -13 -6 -27.5t-16 -26.5
t-22.5 -20t-27.5 -8q-7 0 -11.5 2t-8.5 5.5t-8 9.5l-10 15l-1 1t-1 3zM174 603q0 12 9 25.5t22 24.5t28.5 18t27.5 7q17 0 21 -7.5t4 -21.5q0 -13 -6 -27.5t-16 -26.5t-22.5 -20t-27.5 -8q-7 0 -11.5 1.5t-8.5 5.5t-8 10t-10 14l-1 1.5t-1 3.5z" />
    <glyph glyph-name="FL00D0h" unicode="&#xd0;" horiz-adv-x="535" 
d="M8 215v-5q8 -8 13.5 -14t9.5 -10q8 -7 27 -7l102 3q2 -35 5 -67.5t10 -58.5t18 -41.5t29 -15.5q8 0 19.5 1l22.5 2t21 3.5t17.5 5.5t17.5 9.5t19.5 13.5l16 12t6.5 7l35 29q45 64 70.5 106t31.5 66q14 47 14 88q0 39 -17.5 66t-44 44.5t-60 25.5t-65.5 8q-28 0 -70 -1.5
t-85 -11.5q-21 -5 -40 -12.5t-35 -19t-27 -27t-16 -35.5h80q12 0 16.5 -25t6.5 -64h-48q-9 0 -27.5 -7t-34.5 -18t-27 -24.5t-11 -25.5zM361 90q-48 -13 -69.5 -8t-30.5 18q-7 10 -9 30.5t-6 54.5l79 2q13 4 21 8t16 10t14 16t14 38q-20 25 -36 28q-18 4 -49 4l-80 -1
q-2 9 -2.5 18.5t-0.5 19.5q0 34 15.5 53.5t49.5 19.5q32 0 56 -7q12 -4 27 -10t32 -15q3 -3 7.5 -10.5t8.5 -16t8 -16t7 -10.5q1 -4 5 -12t4 -9q1 -6 3 -22.5t-3 -35.5q-5 -18 -11.5 -34.5t-69.5 -112.5z" />
    <glyph glyph-name="FL00D1h" unicode="&#xd1;" horiz-adv-x="404" 
d="M40 317q-1 10 -6 18t-10.5 14.5t-10 12.5t-4.5 13q0 1 0.5 3.5l0.5 2.5l60 63q1 1 8 2t10 1q8 2 15.5 -5.5l15 -15.5t14 -12.5t13.5 3.5q9 9 45 18q38 9 49 13q13 5 28.5 6.5t29.5 1.5q18 0 30 -9.5t20 -22t18 -39.5l14 -26q0 -1 -1 -14.5t-1 -26.5v-13q0 -21 2 -39
t4.5 -35t4.5 -35t2 -37q0 -49 -18.5 -81.5t-62.5 -55.5q-3 8 -4 19.5t-3 23.5t-4.5 23t-8.5 18q-2 39 -2.5 78t-7.5 77.5t-22.5 71.5t-39.5 52q-17 -2 -28 -3.5t-16 -3.5q-9 -2 -23 -23q0 -12 -2.5 -19.5t-6.5 -15.5t-7.5 -18t-4.5 -27q0 -12 -0.5 -40.5t-0.5 -59.5
q0 -32 0.5 -60.5t0.5 -40.5q0 -9 -5.5 -22t-13.5 -25t-18 -20t-18 -8q-1 0 -3 1l-2 1q-4 5 -8 16t-6.5 23t-4 22t-1.5 12q0 8 -1 20t-1.5 28t-1 35t-1.5 38q-2 39 -3.5 74t-1.5 48zM62 561q0 22 7.5 36.5t19.5 27.5q23 29 62 29q24 0 67 -23h-1q9 -4 15.5 -6.5t9.5 -2.5
q5 0 10 -1.5t12 1t18.5 11.5t29.5 30l20 -20q0 -35 -7.5 -54t-20 -28t-29 -10t-34.5 -1q-28 0 -67 23q-17 11 -25 11q-6 0 -9.5 -2.5t-7.5 -6.5q-9 -7 -20 -14.5t-33 -11.5z" />
    <glyph glyph-name="FL00D2h" unicode="&#xd2;" 
d="M10 76v11l-1 32l-1 13q0 70 23.5 134t63 112t91.5 76.5t110 28.5q18 0 40 -12.5t40 -33t31 -46t13 -50.5q0 -43 -18 -93t-46 -95.5t-61.5 -82.5t-64.5 -55q-20 -11 -47.5 -13.5t-48.5 -2.5q-22 0 -39 3.5t-31 11.5t-26.5 23t-27.5 39zM119 182q0 -28 4 -43t12.5 -22
t21.5 -8t31 -1h5q20 0 40.5 9t31.5 17q5 4 11.5 21t12 39.5t9 46t3.5 41.5q0 32 -5.5 50.5t-15 28t-24 12t-32.5 2.5h-14h-13q-22 0 -36.5 -19t-24 -48.5t-13.5 -63.5t-4 -62zM215 701q0 -2 5.5 -10.5l13.5 -20.5l16.5 -25l16.5 -24.5l13.5 -20t5.5 -10.5v-2q0 -8 6 -12.5
t6 -13.5l-12 -17q-4 -5 -10 -5q-8 0 -19 7t-21 15t-19 16t-13 12l-113 78l35 50q4 -4 16 -4q11 0 23.5 1.5t23.5 1.5t18.5 -3.5t7.5 -12.5z" />
    <glyph glyph-name="FL00D3h" unicode="&#xd3;" 
d="M10 76v11q0 7 -0.5 16.5t-0.5 15.5v13q0 70 23 134t62.5 112t91.5 76.5t110 28.5q18 0 40 -12.5t40 -33t31 -46t13 -50.5q0 -43 -18 -93t-46 -96t-61 -83t-65 -55q-9 -4 -21.5 -7.5t-25.5 -5t-25.5 -2t-23.5 -0.5q-22 0 -39 3.5t-31 11.5t-26.5 23t-27.5 39zM119 182
q0 -29 4.5 -44t13.5 -21.5t23 -7.5t33 -1q20 0 40.5 9t31.5 17q5 4 11.5 21t12 39.5t9 46t3.5 41.5q0 38 -7 57t-20 27t-32.5 8.5t-44.5 0.5q-22 0 -36.5 -19t-24 -48.5t-13.5 -63.5t-4 -62zM246 690q0 12 12 14t27.5 1t30 -2.5t19.5 3.5l35 -49l-113 -79q-5 -4 -16.5 -12.5
t-25 -16t-25.5 -10.5t-18 6l-12 17q0 5 3 6.5t5.5 2.5l5 2t1.5 6q0 3 11 19l24 36l24.5 36.5t11.5 19.5z" />
    <glyph glyph-name="FL00D4h" unicode="&#xd4;" 
d="M10 76v11q0 7 -0.5 16.5t-0.5 15.5v13q0 70 23 134t62.5 112t91.5 76.5t110 28.5q18 0 40 -12.5t40 -33t31 -46t13 -50.5q0 -43 -18 -93t-46 -96t-61 -83t-65 -55q-9 -4 -21.5 -7.5t-25.5 -5t-25.5 -2t-23.5 -0.5q-22 0 -39 3.5t-31 11.5t-26.5 23t-27.5 39zM119 182
q0 -29 4.5 -44t13.5 -21.5t23 -7.5t33 -1q20 0 40.5 9t31.5 17q5 4 11.5 21t12 39.5t9 46t3.5 41.5q0 38 -7 57t-20 27t-32.5 8.5t-44.5 0.5q-22 0 -36.5 -19t-24 -48.5t-13.5 -63.5t-4 -62zM389 597q0 -7 -8.5 -14t-20 -13.5t-23 -11t-15.5 -4.5q-7 0 -16.5 10.5t-21.5 26
l-25 33.5t-25 33t-24 23.5t-20 5.5q-15 -4 -22 -13t-9.5 -20.5t-2 -23.5t0.5 -20v-7q0 -4 0.5 -7.5t0.5 -6.5v-3l23 -19q-5 -5 -14 -12.5t-20.5 -13.5t-23.5 -10.5t-22 -4.5t-14.5 4.5t-7 10.5t-2.5 12v12q0 8 7.5 24.5t20 36.5t28.5 40.5t33 37t33.5 27.5t29.5 11
q34 0 54.5 -9.5t33.5 -25t23 -34.5t26 -39q6 -9 14.5 -17t8.5 -19z" />
    <glyph glyph-name="FL00D5h" unicode="&#xd5;" 
d="M10 76v11q0 7 -0.5 16.5t-0.5 15.5v13q0 70 23 134t62.5 112t91.5 76.5t110 28.5q18 0 40 -12.5t40 -33t31 -46t13 -50.5q0 -43 -18 -93t-46 -96t-61 -83t-65 -55q-9 -4 -21.5 -7.5t-25.5 -5t-25.5 -2t-23.5 -0.5q-22 0 -39 3.5t-31 11.5t-26.5 23t-27.5 39zM119 182
q0 -29 4.5 -44t13.5 -21.5t23 -7.5t33 -1q20 0 40.5 9t31.5 17q5 4 11.5 21t12 39.5t9 46t3.5 41.5q0 38 -7 57t-20 27t-32.5 8.5t-44.5 0.5q-22 0 -36.5 -19t-24 -48.5t-13.5 -63.5t-4 -62zM114 574q0 22 7.5 36.5t19.5 27.5q23 28 62 28q24 0 67 -22h-1l15.5 -7t9.5 -3
q5 0 10 -1t12 1.5t18.5 11.5t29.5 30l20 -20q0 -35 -7.5 -54.5t-20 -28t-29 -10t-34.5 -1.5q-28 0 -67 24q-17 11 -25 11q-6 0 -9.5 -2.5t-7.5 -6.5q-9 -7 -20 -14.5t-33 -11.5z" />
    <glyph glyph-name="FL00D6h" unicode="&#xd6;" 
d="M10 76v11q0 7 -0.5 16.5t-0.5 15.5v13q0 70 23 134t62.5 112t91.5 76.5t110 28.5q18 0 40 -12.5t40 -33t31 -46t13 -50.5q0 -43 -18 -93t-46 -96t-61 -83t-65 -55q-9 -4 -21.5 -7.5t-25.5 -5t-25.5 -2t-23.5 -0.5q-22 0 -39 3.5t-31 11.5t-26.5 23t-27.5 39zM119 182
q0 -29 4.5 -44t13.5 -21.5t23 -7.5t33 -1q20 0 40.5 9t31.5 17q5 4 11.5 21t12 39.5t9 46t3.5 41.5q0 38 -7 57t-20 27t-32.5 8.5t-44.5 0.5q-22 0 -36.5 -19t-24 -48.5t-13.5 -63.5t-4 -62zM94 587q0 12 8.5 25.5t22 24.5t28.5 18t27 7q17 0 21.5 -7.5t4.5 -21.5
q0 -13 -6 -27.5t-16 -26.5t-23 -20t-27 -8q-8 0 -12 1.5t-8 5.5t-8 10t-11 14l-0.5 1.5t-0.5 3.5zM278 588q0 12 8.5 25.5t22 24.5t28.5 18t27 7q17 0 21.5 -7.5t4.5 -21.5q0 -13 -6 -27.5t-16 -26.5t-23 -20t-27 -8q-8 0 -12 1.5t-8 5t-8 9.5t-11 15l-0.5 1.5t-0.5 3.5z
" />
    <glyph glyph-name="FL00D7h" unicode="&#xd7;" horiz-adv-x="300" 
d="M98 172q-16 0 -25 -11q-4 -6 -8.5 -10.5l-8.5 -8.5t-11 -12l-18 -20l-16 6l25.5 43.5t13.5 22.5q7 13 9.5 24t3.5 16q0 1 0.5 6.5t0.5 8.5q0 19 -9 31t-19 22.5t-18.5 20.5t-8.5 26q0 9 10 19t23.5 19.5t27 16t20.5 6.5q12 0 20.5 -6.5t17 -14t17 -14t20.5 -6.5h5
q2 1 6 1.5t10 2.5q10 3 44 37l16 -8q-50 -64 -44 -91q2 -13 5 -20.5t6.5 -12t8 -8.5t10.5 -10l19 -16.5t16 -15t11.5 -16t4.5 -18.5q0 -12 -10.5 -25t-25 -23.5t-30 -17t-24.5 -6.5q-18 0 -28 9.5t-18.5 21.5t-19 21.5t-29.5 9.5z" />
    <glyph glyph-name="FL00D8h" unicode="&#xd8;" 
d="M43 29q0 -12 -1.5 -18.5t-5.5 -18.5q-2 -6 -2.5 -10t-1.5 -5q1 0 4.5 -0.5t5.5 -0.5q15 0 25.5 8t17.5 21q20 -6 49 -6q11 0 23.5 0.5t25.5 2t25.5 5t21.5 7.5q32 18 65 55t61 83t46 96t18 93q0 19 -7.5 38.5t-20.5 37.5q9 14 10 20q0 5 -2.5 15.5t-7.5 21.5t-12.5 18
t-17.5 5q-7 -2 -18 -6.5t-22 -13.5q-15 6 -26 6q-58 0 -110 -28.5t-91.5 -76.5t-62.5 -112t-23 -134v-13q0 -6 0.5 -15.5t0.5 -16.5v-11q16 -28 32 -45zM129 233q0 29 2 52.5t9 40t20 25t34 8.5q24 0 44 -9l-105 -164q-4 22 -4 47zM248 224l20 25.5t18 23.5q5 -27 5 -61
q0 -36 -6 -52.5t-17 -25.5q-22 -15 -63 -15q-19 0 -34 7l35.5 45.5z" />
    <glyph glyph-name="FL00D9h" unicode="&#xd9;" horiz-adv-x="570" 
d="M50 360q-10 8 -17 12.5t-12 8t-7.5 7.5t-3.5 12q0 10 10.5 24t25 26t28.5 21t21 9h5q10 -26 14.5 -54t6 -56.5t0.5 -56.5t-1 -54v-9q0 -1 -1.5 -5.5t-3 -9.5t-3.5 -9.5t-2 -5.5q0 -21 10 -47.5t27 -49.5t38 -38.5t44 -15.5q2 0 6 0.5t5 0.5l98 26q8 10 14 19.5t10 18.5
q9 19 9 70v66v20q0 14 -0.5 30t-0.5 30v20q-7 16 -19 30t-12 31q0 13 6 22.5t15.5 16t21.5 9.5t23 3q6 0 15 -0.5t16.5 -3.5t13 -9.5t5.5 -18.5v-270q0 -20 10.5 -34.5t26.5 -24t34.5 -15t27.5 -10.5l-4 -28q-22 9 -44 -8q-12 -8 -26 -15.5t-30 -14.5q-2 2 -17 4t-23 0
q-7 -1 -13 -2.5t-7 -1.5q-4 0 -8.5 3.5t-10.5 7.5t-12.5 7t-13.5 3q-11 0 -19 -3.5t-15 -8.5l-14 -10.5t-17 -8.5q-30 -12 -49 -16.5t-41 -4.5h-35h-11q-8 0 -16.5 0.5t-16.5 0.5h-11q-8 3 -17 10.5t-16 18t-12 21.5t-5 20v290zM235 694q0 -1 5.5 -9.5l13.5 -20.5l16.5 -25
l16.5 -25l13.5 -20t5.5 -10q-1 -5 1 -8t4.5 -6t4.5 -6t2 -8l-12 -18q-6 -8 -17.5 -3.5t-24.5 14t-24 20t-16 14.5l-113 79l35 49q5 -5 19.5 -3.5t30 2.5t27.5 -1.5t12 -14.5z" />
    <glyph glyph-name="FL00DAh" unicode="&#xda;" horiz-adv-x="570" 
d="M50 360q-10 8 -17 12.5t-12 8t-7.5 7.5t-3.5 12q0 10 10.5 24t25 26t28.5 21t21 9h5q10 -26 14.5 -54t6 -56.5t0.5 -56.5t-1 -54v-9q0 -1 -1.5 -5.5t-3 -9.5t-3.5 -9.5t-2 -5.5q0 -21 10 -47.5t27 -49.5t38 -38.5t44 -15.5q2 0 6 0.5t5 0.5l98 26q8 10 14 19.5t10 18.5
q9 19 9 70v66v20q0 14 -0.5 30t-0.5 30v20q-7 16 -19 30t-12 31q0 13 6 22.5t15.5 16t21.5 9.5t23 3q6 0 15 -0.5t16.5 -3.5t13 -9.5t5.5 -18.5v-270q0 -20 10.5 -34.5t26.5 -24t34.5 -15t27.5 -10.5l-4 -28q-22 9 -44 -8q-12 -8 -26 -15.5t-30 -14.5q-2 2 -17 4t-23 0
q-7 -1 -13 -2.5t-7 -1.5q-4 0 -8.5 3.5t-10.5 7.5t-12.5 7t-13.5 3q-11 0 -19 -3.5t-15 -8.5l-14 -10.5t-17 -8.5q-30 -12 -49 -16.5t-41 -4.5h-35h-11q-8 0 -16.5 0.5t-16.5 0.5h-11q-8 3 -17 10.5t-16 18t-12 21.5t-5 20v290zM267 685q0 12 12 14.5t27.5 1l30 -3t20.5 4.5
l34 -50l-113 -78q-4 -4 -16 -13t-25 -16t-25 -10.5t-18 5.5l-12 18q0 4 2.5 5.5t5.5 2.5t5.5 2.5t1.5 5.5q0 3 10.5 19.5l24 36l24.5 36t11 19.5z" />
    <glyph glyph-name="FL00DBh" unicode="&#xdb;" horiz-adv-x="570" 
d="M50 360q-10 8 -17 12.5t-12 8t-7.5 7.5t-3.5 12q0 10 10.5 24t25 26t28.5 21t21 9h5q10 -26 14.5 -54t6 -56.5t0.5 -56.5t-1 -54v-9q0 -1 -1.5 -5.5t-3 -9.5t-3.5 -9.5t-2 -5.5q0 -21 10 -47.5t27 -49.5t38 -38.5t44 -15.5q2 0 6 0.5t5 0.5l98 26q8 10 14 19.5t10 18.5
q9 19 9 70v66v20q0 14 -0.5 30t-0.5 30v20q-7 16 -19 30t-12 31q0 13 6 22.5t15.5 16t21.5 9.5t23 3q6 0 15 -0.5t16.5 -3.5t13 -9.5t5.5 -18.5v-270q0 -20 10.5 -34.5t26.5 -24t34.5 -15t27.5 -10.5l-4 -28q-22 9 -44 -8q-12 -8 -26 -15.5t-30 -14.5q-2 2 -17 4t-23 0
q-7 -1 -13 -2.5t-7 -1.5q-4 0 -8.5 3.5t-10.5 7.5t-12.5 7t-13.5 3q-11 0 -19 -3.5t-15 -8.5l-14 -10.5t-17 -8.5q-30 -12 -49 -16.5t-41 -4.5h-35h-11q-8 0 -16.5 0.5t-16.5 0.5h-11q-8 3 -17 10.5t-16 18t-12 21.5t-5 20v290zM415 616q0 -6 -8.5 -13.5t-20 -14
t-22.5 -10.5t-16 -4q-6 0 -16 10t-22 26l-24.5 34t-25 32.5t-24 23.5t-20.5 6q-14 -4 -21.5 -13.5t-10 -21t-2 -23.5t0.5 -20v-6q0 -4 0.5 -8t0.5 -7v-3l23 -18q-5 -6 -14 -13t-20 -13.5t-23 -11t-23 -4.5q-9 0 -14 4.5t-7.5 10.5t-2.5 12v12q0 8 7.5 24.5t20 36.5
t28.5 40.5t33.5 37t33.5 27.5t29 11q35 0 55 -9.5t33.5 -25t23.5 -34.5t25 -39q6 -9 14.5 -17t8.5 -19z" />
    <glyph glyph-name="FL00DCh" unicode="&#xdc;" horiz-adv-x="570" 
d="M50 360q-10 8 -17 12.5t-12 8t-7.5 7.5t-3.5 12q0 10 10.5 24t25 26t28.5 21t21 9h5q10 -26 14.5 -54t6 -56.5t0.5 -56.5t-1 -54v-9q0 -1 -1.5 -5.5t-3 -9.5t-3.5 -9.5t-2 -5.5q0 -21 10 -47.5t27 -49.5t38 -38.5t44 -15.5q2 0 6 0.5t5 0.5l98 26q8 10 14 19.5t10 18.5
q9 19 9 70v66v20q0 14 -0.5 30t-0.5 30v20q-7 16 -19 30t-12 31q0 13 6 22.5t15.5 16t21.5 9.5t23 3q6 0 15 -0.5t16.5 -3.5t13 -9.5t5.5 -18.5v-270q0 -20 10.5 -34.5t26.5 -24t34.5 -15t27.5 -10.5l-4 -28q-22 9 -44 -8q-12 -8 -26 -15.5t-30 -14.5q-2 2 -17 4t-23 0
q-7 -1 -13 -2.5t-7 -1.5q-4 0 -8.5 3.5t-10.5 7.5t-12.5 7t-13.5 3q-11 0 -19 -3.5t-15 -8.5l-14 -10.5t-17 -8.5q-30 -12 -49 -16.5t-41 -4.5h-35h-11q-8 0 -16.5 0.5t-16.5 0.5h-11q-8 3 -17 10.5t-16 18t-12 21.5t-5 20v290zM109 602q0 12 8.5 26t22 24.5t28.5 18t27 7.5
q17 0 21.5 -8t4.5 -22q0 -13 -6 -27.5t-16 -26.5t-23 -20t-27 -8q-7 0 -11.5 2t-8.5 5.5t-8 9.5t-11 15l-0.5 1t-0.5 3zM293 603q0 12 8.5 25.5t22 24.5t28.5 18t27 7q17 0 21.5 -7.5t4.5 -21.5q0 -13 -6 -27.5t-16 -26.5t-23 -20t-27 -8q-7 0 -11.5 1.5t-8.5 5.5t-8 10
t-11 14l-0.5 1.5t-0.5 3.5z" />
    <glyph glyph-name="FL00DDh" unicode="&#xdd;" horiz-adv-x="420" 
d="M39 35q0 11 6.5 21t16 18t20 14.5l18.5 11.5l11.5 6t8.5 4q2 0 11 -3l19 -6.5t19 -7t11 -3.5q6 -1 21.5 -2.5t33 -3.5t33.5 -3t22 -1q49 23 48 50q-1 13 -2.5 26.5t-3.5 26.5q-5 27 -17 46.5t-36 19.5q-14 0 -31.5 -8l-37.5 -18t-42 -18t-46 -8q-39 0 -61.5 15t-34 40
t-14.5 56.5t-3 64.5v11q0 8 0.5 16.5t0.5 16.5v11q2 8 8 18.5t13.5 20t17 16t16.5 6.5q12 0 18.5 -16.5t10.5 -41t6.5 -53t8 -53t15.5 -41t26 -16.5l112 20q28 4 32 18q3 14 4.5 27.5t1.5 18.5v16l-10 70v6q0 14 8 25.5t20 20t26 13.5t26 5t19.5 -15t12 -33t6.5 -34t2 -18
v-16q0 -14 0.5 -33.5t0.5 -39.5v-31v-24q0 -17 -0.5 -36t-0.5 -36v-24q-3 -10 -10.5 -22.5t-17 -24t-20.5 -20.5l-41 -31q-30 -22 -51.5 -36t-49.5 -22q-27 -7 -53.5 -9.5t-36.5 -2.5q-4 0 -18.5 1.5t-30.5 6t-29 11.5t-13 16zM216 712q0 12 12 14.5t27.5 1l30 -3t20.5 4.5
l34 -50l-113 -78l-16.5 -13t-24.5 -16t-25 -10.5t-19 5.5l-12 18q0 5 3 6l6 2t5 2.5t2 6.5q0 2 10.5 18.5l24 36l24.5 36.5t11 19z" />
    <glyph glyph-name="FL00DEh" unicode="&#xde;" horiz-adv-x="450" 
d="M70 140l2 195q10 11 15.5 19t5.5 21q0 19 -11.5 25t-25.5 7.5t-27 4t-17 14.5q11 16 29.5 23t39.5 9.5t43 3t40 6.5l4 -70q1 -8 3 -8q3 0 7 3t9.5 7.5t11.5 4.5q14 0 31.5 -0.5t36.5 -1.5t39 -1t38 1q10 -1 26 -9t30 -19t24 -24.5t10 -27.5t-0.5 -27.5t-5 -27.5t-13 -30
t-22.5 -35q-14 -20 -31 -34.5t-34 -25t-32.5 -18t-26.5 -11.5q-3 -2 -11.5 -5t-18.5 -6t-19 -6t-11 -3q-16 -7 -22 -16t-8 -19.5t-2.5 -21t-5.5 -19t-18 -14t-39 -5.5q-15 0 -21.5 17.5t-9.5 41t-5 47t-8 35.5zM169 184q15 -15 31.5 -18.5t34.5 -3.5h24h10h15q21 12 35.5 22
t23 18.5t14 28.5t5.5 36q0 24 -10.5 33t-24.5 13l-27.5 8t-18.5 18h-100l-3 -4.5t-6 -11l-6.5 -13.5t-4.5 -11v-4v-6q0 -5 1 -20.5t2.5 -33t2.5 -32t2 -19.5z" />
    <glyph glyph-name="FL00DFh" unicode="&#xdf;" 
d="M95 394v28q6 4 15 7t19 4.5t19 2.5t14 1q17 0 33 -0.5t28 -4.5t19.5 -12.5t7.5 -25.5q0 -16 -11 -29.5t-28 -23.5q-17 -11 -18 -40q-2 -29 36 -29q12 0 27.5 -7.5t29 -19.5t23 -26t9.5 -26v-11q0 -3 -1.5 -10t-2.5 -15q-1 -7 -49 -37q-47 -27 -37 -50q10 -20 10 -19
q24 5 42 20.5t38 34.5q7 20 23.5 39t31.5 44q7 12 13.5 24.5t11 24t7.5 20t3 13.5q0 21 -14.5 34t-31 23.5t-30.5 20.5t-15 26q0 13 4.5 24t10.5 21t11 22t5 25q0 18 -14 28.5t-33 16t-38.5 7t-29.5 1.5q-53 0 -113 -12t-66 -72q-3 -30 -4 -47.5t-1 -21.5q0 -13 -6.5 -24.5
l-14.5 -24.5t-14.5 -28.5t-6.5 -35.5q0 -62 4.5 -122.5t26.5 -118.5q2 -47 12 -49t24 0l10 4q15 6 23 74q4 36 5.5 56.5t0.5 27.5q-3 13 -4.5 26t-1.5 20q-1 63 -2 102.5t-3 54.5q-5 31 -6 43.5t-1 21.5z" />
    <glyph glyph-name="FL00E0h" unicode="&#xe0;" horiz-adv-x="410" 
d="M8 103q0 55 26.5 96t67.5 68t91 40.5t97 13.5h11q9 0 19 -0.5t18 -0.5h12q4 -26 6.5 -52.5l5 -52t7 -52t11.5 -53.5q0 -1 3 -5.5t7 -9.5t7 -9.5t3 -5.5t0.5 -7t0.5 -9q0 -16 -7 -27t-18 -17.5t-24.5 -9.5t-26.5 -3h-7q-5 0 -10.5 0.5t-10 1.5t-7.5 1q-5 16 -12 23.5
t-24 7.5q-12 0 -24.5 -6.5l-28 -14.5t-35.5 -14.5t-46 -6.5q-53 0 -82.5 23.5t-29.5 80.5zM89 178q0 -21 8.5 -35.5t21.5 -25.5t27 -21.5t24 -25.5h7.5h9.5q6 0 10.5 -0.5t7.5 -0.5q18 0 36 2t29 19v11q0 9 0.5 19t0.5 18v12q0 25 -1.5 45t-9.5 34.5t-24 22.5t-46 8
q-48 0 -74.5 -18t-26.5 -64zM210 596q0 -2 5.5 -10l13.5 -20l16.5 -25.5t16.5 -25l13.5 -20t5.5 -9.5q-1 -5 1 -8.5t4.5 -6t5 -6t2.5 -7.5l-12 -18q-7 -9 -18.5 -4t-24.5 14.5t-24 20t-16 14.5l-113 78l35 50q5 -6 19.5 -4.5l30 3t27.5 -1t12 -14.5z" />
    <glyph glyph-name="FL00E1h" unicode="&#xe1;" horiz-adv-x="410" 
d="M8 103q0 55 26.5 96t67.5 68t91 40.5t97 13.5h11q9 0 19 -0.5t18 -0.5h12q4 -26 6.5 -52.5l5 -52t7 -52t11.5 -53.5q0 -1 3 -5.5t7 -9.5t7 -9.5t3 -5.5t0.5 -7t0.5 -9q0 -16 -7 -27t-18 -17.5t-24.5 -9.5t-26.5 -3h-7q-5 0 -10.5 0.5t-10 1.5t-7.5 1q-5 16 -12 23.5
t-24 7.5q-12 0 -24.5 -6.5l-28 -14.5t-35.5 -14.5t-46 -6.5q-53 0 -82.5 23.5t-29.5 80.5zM89 178q0 -21 8.5 -35.5t21.5 -25.5t27 -21.5t24 -25.5h7.5h9.5q6 0 10.5 -0.5t7.5 -0.5q18 0 36 2t29 19v11q0 9 0.5 19t0.5 18v12q0 25 -1.5 45t-9.5 34.5t-24 22.5t-46 8
q-48 0 -74.5 -18t-26.5 -64zM220 582q0 12 12 14.5t27.5 1.5t30 -2.5t20.5 3.5l34 -49l-113 -79q-5 -4 -16.5 -12.5t-24.5 -16t-25 -10.5t-19 6l-12 17q0 5 3 6t6 2.5l5 2.5t2 6q0 2 10.5 18.5l24 36l24.5 36.5t11 19z" />
    <glyph glyph-name="FL00E2h" unicode="&#xe2;" horiz-adv-x="410" 
d="M8 103q0 55 26.5 96t67.5 68t91 40.5t97 13.5h11q9 0 19 -0.5t18 -0.5h12q4 -26 6.5 -52.5l5 -52t7 -52t11.5 -53.5q0 -1 3 -5.5t7 -9.5t7 -9.5t3 -5.5t0.5 -7t0.5 -9q0 -16 -7 -27t-18 -17.5t-24.5 -9.5t-26.5 -3h-7q-5 0 -10.5 0.5t-10 1.5t-7.5 1q-5 16 -12 23.5
t-24 7.5q-12 0 -24.5 -6.5l-28 -14.5t-35.5 -14.5t-46 -6.5q-53 0 -82.5 23.5t-29.5 80.5zM89 178q0 -21 8.5 -35.5t21.5 -25.5t27 -21.5t24 -25.5h7.5h9.5q6 0 10.5 -0.5t7.5 -0.5q18 0 36 2t29 19v11q0 9 0.5 19t0.5 18v12q0 25 -1.5 45t-9.5 34.5t-24 22.5t-46 8
q-48 0 -74.5 -18t-26.5 -64zM370 480q0 -6 -8 -13.5t-20 -14t-23 -10.5t-16 -4q-6 0 -15.5 10t-21.5 26l-25 34t-25.5 32.5t-24 23t-20.5 6.5q-14 -4 -21.5 -13.5t-9.5 -21t-2 -23.5v-20v-6q0 -4 0.5 -8t0.5 -7v-3l23 -18q-4 -6 -13.5 -13t-20.5 -13.5t-23 -11t-23 -4.5
q-9 0 -14 4.5t-7.5 10.5t-2.5 12v12q0 8 8 24.5t20 36.5t28 40.5t33.5 37t34 27.5t28.5 11q35 0 55.5 -9.5t33.5 -25t23 -34.5t25 -39q7 -9 15 -17t8 -19z" />
    <glyph glyph-name="FL00E3h" unicode="&#xe3;" horiz-adv-x="410" 
d="M8 103q0 55 26.5 96t67.5 68t91 40.5t97 13.5h11q9 0 19 -0.5t18 -0.5h12q4 -26 6.5 -52.5l5 -52t7 -52t11.5 -53.5q0 -1 3 -5.5t7 -9.5t7 -9.5t3 -5.5t0.5 -7t0.5 -9q0 -16 -7 -27t-18 -17.5t-24.5 -9.5t-26.5 -3h-7q-5 0 -10.5 0.5t-10 1.5t-7.5 1q-5 16 -12 23.5
t-24 7.5q-12 0 -24.5 -6.5l-28 -14.5t-35.5 -14.5t-46 -6.5q-53 0 -82.5 23.5t-29.5 80.5zM89 178q0 -21 8.5 -35.5t21.5 -25.5t27 -21.5t24 -25.5h7.5h9.5q6 0 10.5 -0.5t7.5 -0.5q18 0 36 2t29 19v11q0 9 0.5 19t0.5 18v12q0 25 -1.5 45t-9.5 34.5t-24 22.5t-46 8
q-48 0 -74.5 -18t-26.5 -64zM79 462q0 22 7.5 36.5t19.5 27.5q24 28 63 28q24 0 66 -22h-1q10 -4 16.5 -7t9.5 -3q5 0 9.5 -1t12 1.5t19 11.5t29.5 30l20 -20q0 -35 -8 -54.5t-20 -28t-28.5 -10t-35.5 -1.5q-28 0 -66 24q-18 11 -26 11q-5 0 -8.5 -2.5t-7.5 -6.5
q-9 -7 -20.5 -14.5t-32.5 -11.5z" />
    <glyph glyph-name="FL00E4h" unicode="&#xe4;" horiz-adv-x="410" 
d="M8 103q0 55 26.5 96t67.5 68t91 40.5t97 13.5h11q9 0 19 -0.5t18 -0.5h12q4 -26 6.5 -52.5l5 -52t7 -52t11.5 -53.5q0 -1 3 -5.5t7 -9.5t7 -9.5t3 -5.5t0.5 -7t0.5 -9q0 -16 -7 -27t-18 -17.5t-24.5 -9.5t-26.5 -3h-7q-5 0 -10.5 0.5t-10 1.5t-7.5 1q-5 16 -12 23.5
t-24 7.5q-12 0 -24.5 -6.5l-28 -14.5t-35.5 -14.5t-46 -6.5q-53 0 -82.5 23.5t-29.5 80.5zM89 178q0 -21 8.5 -35.5t21.5 -25.5t27 -21.5t24 -25.5h7.5h9.5q6 0 10.5 -0.5t7.5 -0.5q18 0 36 2t29 19v11q0 9 0.5 19t0.5 18v12q0 25 -1.5 45t-9.5 34.5t-24 22.5t-46 8
q-48 0 -74.5 -18t-26.5 -64zM58 490q0 12 8.5 26t22 24.5t28.5 18t27 7.5q17 0 21.5 -8t4.5 -22q0 -13 -6 -27.5t-16 -26.5t-23 -20t-27 -8q-8 0 -12 2t-8 5.5t-8 9.5t-11 15l-0.5 1t-0.5 3zM242 491q0 12 8.5 25.5t22 24.5t28.5 18t27 7q17 0 21.5 -7.5t4.5 -21.5
q0 -13 -6 -27.5t-16 -26.5t-23 -20t-27 -8q-8 0 -12 1.5t-8 5.5t-8 10t-11 14l-0.5 1.5t-0.5 3.5z" />
    <glyph glyph-name="FL00E5h" unicode="&#xe5;" horiz-adv-x="410" 
d="M8 103q0 55 26.5 96t67.5 68t91 40.5t97 13.5h11h37l12 -1q4 -26 6.5 -52.5l5 -52t7 -52t11.5 -53.5q0 -1 3 -5.5t7 -9.5t7 -9.5t3 -5.5t0.5 -7t0.5 -9q0 -16 -7 -27t-18 -17.5t-24.5 -9.5t-26.5 -3h-7q-5 0 -10.5 0.5t-10 1.5t-7.5 1q-5 16 -12 23.5t-24 7.5
q-12 0 -24.5 -6.5l-28 -14.5t-35.5 -14.5t-46 -6.5q-53 0 -82.5 23.5t-29.5 80.5zM89 178q0 -21 8.5 -35.5t21.5 -25.5t27 -21.5t24 -25.5l35 -1h5q17 0 33 2.5t27 18.5v11v37l1 12q0 25 -1.5 45t-9.5 34.5t-24 22.5t-46 8q-48 0 -74.5 -18t-26.5 -64zM292 464
q-9 -15 -21.5 -21t-26.5 -7l-46 -2q-11 0 -18.5 4.5t-17.5 11.5q-16 9 -26.5 19t-17 23.5t-9.5 31t-3 41.5q0 13 6.5 26.5t16 24t20 18t19.5 7.5q29 0 53.5 -10t43.5 -29.5t29.5 -48.5t10.5 -66zM244 550v6q0 12 -0.5 17t-3 6t-7.5 1q-6 0 -16 2q-12 4 -23 5t-18.5 -3.5
t-12.5 -15t-5 -30.5q0 -19 6 -27.5t10 -13.5q6 -4 20.5 -12.5t25.5 -8.5q14 2 19 13.5t5 31.5v29z" />
    <glyph glyph-name="FL00E6h" unicode="&#xe6;" horiz-adv-x="566" 
d="M8 103q0 -57 29.5 -80.5t82.5 -23.5q26 0 46 6.5t35.5 14.5l28 14.5t24.5 6.5q8 0 14.5 -5t11 -12t8 -16l6.5 -17q4 -1 14 -2.5t14 -1.5q2 0 4 3.5l4 7l4 7t4 3.5q26 -12 68 -12q17 0 36 4t37 12t33 19t26 26q4 6 6 15.5l2 9.5h-88q-7 0 -9 10.5t-2 17.5v7q2 14 18 38
l32 48t29 52.5t13 56.5q0 7 -0.5 15t-9.5 10q-3 0 -9 0.5t-12 0.5t-11.5 0.5t-7.5 0.5q-37 0 -71 -18.5t-62 -48.5q-2 12 -3 24t-3 24h-12q-8 0 -18 0.5t-19 0.5h-11q-47 0 -97 -13.5t-91 -40.5t-67.5 -68t-26.5 -96zM89 178q0 46 26.5 64t74.5 18q30 0 46 -8t24 -22.5
t9.5 -34.5t1.5 -45v-12q0 -8 -0.5 -18t-0.5 -19v-11q-11 -17 -29 -19t-36 -2q-3 0 -7.5 0.5t-10.5 0.5h-9.5h-7.5q-10 15 -24 25.5t-27 21.5t-21.5 25.5t-8.5 35.5zM367 207q0 17 1.5 30.5t9.5 29.5q4 0 13.5 1t11.5 1q27 0 37 -12t10 -38q0 -12 -2 -24t-6 -23t-12 -20.5
t-21 -14.5q-12 -5 -20 4t-13 22t-7 26.5t-2 17.5z" />
    <glyph glyph-name="FL00E7h" unicode="&#xe7;" horiz-adv-x="280" 
d="M34 -97q0 -13 16 -23t38 -16t45 -9t38 -3q11 0 13 10.5t2 22.5v12q0 9 -2 28.5t-10 38.5q-3 7 -4.5 12t-3 8.5t-3.5 7t-6 8.5q16 1 32.5 3.5t30.5 10t23 20t9 31.5q0 2 -0.5 7.5t-1.5 7.5q-28 3 -58.5 8.5t-55.5 17.5t-41 34t-16 60q0 29 14.5 42.5t36 20.5t46.5 10
t46.5 10.5t36 23.5t14.5 47q-46 0 -93 -20.5t-85 -55t-62 -79t-24 -92.5q0 -33 4.5 -53.5t15.5 -32.5t30 -16.5t47 -5.5q4 -4 12 -6t8 -7q0 -2 2 -8t3.5 -12t2.5 -11t0 -8q-6 -9 -22 -15.5t-33.5 -12l-31 -9.5t-13.5 -7z" />
    <glyph glyph-name="FL00E8h" unicode="&#xe8;" horiz-adv-x="270" 
d="M9 120q0 36 16.5 75t44.5 72t64.5 54t75.5 21h8.5t11.5 -0.5l12 -1t8 -0.5q9 -2 10 -10t1 -15q0 -28 -13.5 -56.5t-29.5 -52.5l-32 -48t-17 -38v-7q0 -7 2 -17.5t9 -10.5h88l-2 -9.5t-6 -15.5q-11 -14 -26.5 -25.5t-33.5 -19.5t-36.5 -12t-36.5 -4q-65 0 -91.5 28
t-26.5 93zM89 210q0 -4 2 -17.5t6.5 -26.5t12.5 -22t20 -4q13 6 21 15t12.5 20t6 23t1.5 24q0 26 -9.5 38t-36.5 12q-3 0 -12.5 -1t-12.5 -1q-9 -16 -10 -29.5t-1 -30.5zM146 595q0 -1 5 -9.5t13 -20.5l17 -25.5l17 -25t13 -20t5 -9.5q-1 -5 1 -8t4.5 -6l5 -6t2.5 -8
l-12 -18q-7 -9 -18.5 -4t-24 14.5t-24 20t-16.5 14.5l-112 78l34 50q6 -6 20 -4t30 3t28 -1.5t12 -14.5z" />
    <glyph glyph-name="FL00E9h" unicode="&#xe9;" horiz-adv-x="270" 
d="M9 120q0 36 16.5 75t44.5 72t64.5 54t75.5 21h8.5t11.5 -0.5l12 -1t8 -0.5q9 -2 10 -10t1 -15q0 -28 -13.5 -56.5t-29.5 -52.5l-32 -48t-17 -38v-7q0 -7 2 -17.5t9 -10.5h88l-2 -9.5t-6 -15.5q-11 -14 -26.5 -25.5t-33.5 -19.5t-36.5 -12t-36.5 -4q-65 0 -91.5 28
t-26.5 93zM89 210q0 -4 2 -17.5t6.5 -26.5t12.5 -22t20 -4q13 6 21 15t12.5 20t6 23t1.5 24q0 26 -9.5 38t-36.5 12q-3 0 -12.5 -1t-12.5 -1q-9 -16 -10 -29.5t-1 -30.5zM138 579q0 12 12 14.5t28 1.5t30 -3t20 4l34 -50l-112 -78l-16.5 -13t-25 -16t-25.5 -10t-18 5l-12 18
q0 5 2.5 6t5.5 2.5t5.5 2.5t1.5 6q0 2 11 18.5l24 36l24 36.5t11 19z" />
    <glyph glyph-name="FL00EAh" unicode="&#xea;" horiz-adv-x="270" 
d="M9 120q0 36 16.5 75t44.5 72t64.5 54t75.5 21h8.5t11.5 -0.5l12 -1t8 -0.5q9 -2 10 -10t1 -15q0 -28 -13.5 -56.5t-29.5 -52.5l-32 -48t-17 -38v-7q0 -7 2 -17.5t9 -10.5h88l-2 -9.5t-6 -15.5q-11 -14 -26.5 -25.5t-33.5 -19.5t-36.5 -12t-36.5 -4q-65 0 -91.5 28
t-26.5 93zM89 210q0 -4 2 -17.5t6.5 -26.5t12.5 -22t20 -4q13 6 21 15t12.5 20t6 23t1.5 24q0 26 -9.5 38t-36.5 12q-3 0 -12.5 -1t-12.5 -1q-9 -16 -10 -29.5t-1 -30.5zM298 505q0 -7 -8 -14t-20 -13.5t-23 -11t-16 -4.5q-6 0 -15.5 10t-19.5 24l-22 30.5t-23.5 30
t-22 21.5t-19.5 5q-15 -4 -22 -11.5t-9.5 -17t-2 -20t0.5 -18.5v-6q0 -4 0.5 -8t0.5 -7v-3l23 -18q-5 -6 -14 -13t-20.5 -13.5t-23.5 -11t-22 -4.5t-14.5 4.5t-7 10.5t-2.5 12v12q0 8 7.5 23.5t20 34.5t28.5 38t33 35t33.5 26t29.5 10q34 0 53 -8t30 -21t20 -30.5t24 -37.5
q7 -9 15 -17t8 -19z" />
    <glyph glyph-name="FL00EBh" unicode="&#xeb;" horiz-adv-x="270" 
d="M9 120q0 36 16.5 75t44.5 72t64.5 54t75.5 21h8.5t11.5 -0.5l12 -1t8 -0.5q9 -2 10 -10t1 -15q0 -28 -13.5 -56.5t-29.5 -52.5l-32 -48t-17 -38v-7q0 -7 2 -17.5t9 -10.5h88l-2 -9.5t-6 -15.5q-11 -14 -26.5 -25.5t-33.5 -19.5t-36.5 -12t-36.5 -4q-65 0 -91.5 28
t-26.5 93zM89 210q0 -4 2 -17.5t6.5 -26.5t12.5 -22t20 -4q13 6 21 15t12.5 20t6 23t1.5 24q0 26 -9.5 38t-36.5 12q-3 0 -12.5 -1t-12.5 -1q-9 -16 -10 -29.5t-1 -30.5zM26 498q0 12 8.5 26t22 24.5t28.5 18t27 7.5q17 0 21.5 -8t4.5 -22q0 -13 -6 -27.5t-16 -26.5t-23 -20
t-27 -8q-8 0 -12 2t-8 5.5t-8 9.5t-11 15l-0.5 1t-0.5 3zM170 499q0 12 8.5 25.5t22 24.5t28.5 18t27 7q17 0 21.5 -7.5t4.5 -21.5q0 -13 -6 -27.5t-16 -26.5t-23 -20t-27 -8q-8 0 -12 1.5t-8 5.5t-8 10t-11 14l-0.5 1.5t-0.5 3.5z" />
    <glyph glyph-name="FL00ECh" unicode="&#xec;" horiz-adv-x="168" 
d="M26 212q0 12 6.5 25t17.5 24t24.5 18t27.5 7h5l4.5 -2t10 -5.5l10.5 -7t5 -6.5v-183q0 -13 -9.5 -25.5t-22 -22.5t-26 -19l-22.5 -15q-2 21 -7 47.5l-10.5 54.5t-9.5 56.5t-4 53.5zM87 534q0 -2 5.5 -10.5l13.5 -20.5l16.5 -25l16.5 -24.5l13.5 -20t5.5 -10.5q-1 -5 1 -8
t4.5 -6t4.5 -6t2 -8l-12 -17q-6 -9 -17.5 -4.5t-24.5 14.5t-24 20t-16 14l-113 79l35 49q5 -5 19.5 -3.5t30 2.5t27.5 -1t12 -14z" />
    <glyph glyph-name="FL00EDh" unicode="&#xed;" horiz-adv-x="166" 
d="M22 213q0 12 7 25t18 24t24.5 18t26.5 7h6l4.5 -2.5l10 -5.5t10.5 -6.5t5 -6.5v-183q0 -13 -9.5 -25.5t-22 -22.5t-26.5 -19t-22 -15q-2 21 -7 47.5l-10.5 54.5t-10 56.5t-4.5 53.5zM76 530q0 12 12 14t27.5 1t30 -2.5t20.5 3.5l34 -49l-113 -79q-5 -4 -16.5 -12.5
t-24.5 -16t-25 -10.5t-19 6l-12 17q0 5 3 6.5t6 2.5t5 2t2 6q0 3 10.5 19l24 36l24.5 36.5t11 19.5z" />
    <glyph glyph-name="FL00EEh" unicode="&#xee;" horiz-adv-x="203" 
d="M49 206q0 12 6.5 25.5t17.5 24t24.5 18t27.5 7.5h5l4.5 -2.5l10 -5.5t10.5 -7t5 -7v-182q0 -14 -9 -26.5t-22 -22.5t-26.5 -18.5t-22.5 -15.5q-2 21 -7 48l-10 55t-9.5 56.5t-4.5 52.5zM261 448q0 -6 -8.5 -13.5t-20 -14t-23 -10.5t-15.5 -4q-7 0 -16 9.5t-19.5 24
l-22 30.5t-23 30t-22.5 21.5t-20 4.5q-14 -4 -21.5 -11.5t-9.5 -17t-2 -20v-18.5v-6q0 -4 0.5 -7.5t0.5 -7.5v-3l23 -18q-4 -6 -13.5 -13t-20.5 -13.5t-23 -11t-23 -4.5q-9 0 -14 4.5t-7.5 10.5t-2.5 12v12q0 8 8 24t20 34.5t28 38t33.5 35t34 25.5t28.5 10q35 0 53.5 -7.5
t30 -21t20 -31t24.5 -37.5q6 -9 14.5 -17t8.5 -19z" />
    <glyph glyph-name="FL00EFh" unicode="&#xef;" horiz-adv-x="182" 
d="M34 212q0 12 7 25t18 24t24.5 18t26.5 7h6l4.5 -2t10 -5.5l10.5 -7t5 -6.5v-183q0 -13 -9.5 -25.5t-22 -22.5t-26.5 -19t-22 -15q-2 21 -7 47.5l-10.5 54.5t-10 56.5t-4.5 53.5zM-34 428q0 12 8.5 25.5t22 24.5t28.5 18t27 7q17 0 21.5 -7.5t4.5 -21.5q0 -13 -6 -27.5
t-16 -26.5t-23 -20t-27 -8q-8 0 -12 1.5t-8 5t-8 9.5t-11 15l-0.5 1.5t-0.5 3.5zM110 429q0 12 8.5 25.5t22 24.5t28.5 18t27 7q17 0 21.5 -7.5t4.5 -22.5q0 -12 -6 -26.5t-16 -26.5t-23 -20t-27 -8q-8 0 -12 1.5t-8 5t-8 9.5t-11 15l-0.5 1t-0.5 4z" />
    <glyph glyph-name="FL00F0h" unicode="&#xf0;" horiz-adv-x="390" 
d="M252 494q0 -4 -13 -19.5l-29 -33.5l-30 17q0 12 -9 21.5t-22 16t-27 9.5t-24 3h-13q-12 0 -23 -4.5t-13 -19.5q-3 -11 1 -21t12 -17.5t17.5 -12t18.5 -4.5q2 0 7 -0.5t10 0.5t9 3.5t5 8.5q1 -10 9 -11t16 -1q16 0 20 1q2 0 16 -13l-14.5 -16.5t-5.5 -8.5q2 -9 -3 -19
t-5 -19l12 -17q5 -7 12.5 -5t15.5 8t16.5 14t15.5 16q51 -52 52 -59q3 -7 3 -10q0 -18 -8.5 -20.5t-20.5 -2.5q-20 0 -39.5 9t-39 20t-41 19.5t-43.5 8.5q-18 0 -34 -4t-28 -13t-19 -23.5t-7 -35.5q0 -10 1.5 -29.5t4.5 -41t6.5 -41t7.5 -29.5q1 -1 6.5 -10.5t16.5 -26.5
q22 -35 54 -48l29.5 -13l24.5 -11q22 -10 53 -10q77 0 122 41.5t45 126.5q0 24 -9 54t-23 61q-14 32 -32 57.5t-46 56.5l-4 4t-4 3l67 82q-5 7 -18 14t-26 10t-23 0t-10 -15zM281 185q0 -34 -14 -55t-35.5 -32.5t-47 -15.5t-47.5 -4q-5 0 -16 1t-12 1l-11 11v17q-1 8 -1 14
v10q0 6 0.5 25t4.5 38.5t12 35t24 15.5h111q11 0 17.5 -7t9.5 -16.5t4 -20t1 -17.5z" />
    <glyph glyph-name="FL00F1h" unicode="&#xf1;" horiz-adv-x="374" 
d="M9 257q0 13 9.5 23t23 16.5t28.5 9.5t26 3q10 0 16.5 -5.5t12.5 -11.5t12.5 -11t16.5 -5q17 0 31 7t28 15t29 14.5t33 6.5q20 0 31.5 -8.5t21.5 -18.5t21 -18.5t9 -20.5l-18 -27q0 -7 0.5 -24.5t0.5 -36.5q0 -20 -0.5 -37.5t-0.5 -24.5q-1 -9 -6.5 -22t-14 -24t-19 -18.5
t-20.5 -7.5q-3 0 -10.5 4t-9.5 7q-1 5 -1.5 12.5t-0.5 17.5q0 24 -1 56.5t-7 61.5t-19 49t-36 20q-24 0 -34.5 -13.5t-14.5 -35t-5 -49.5t-6 -57t-17 -56t-38 -48q-14 9 -21 22.5t-9 29.5q-1 5 -2.5 26t-3 45.5t-2.5 45.5t-2 26q-1 11 -6 18.5t-10.5 14t-10 13.5t-4.5 16z
M58 446q0 22 8 36.5t20 27.5q23 28 62 28q24 0 66 -22v0l15.5 -7t9.5 -3q5 0 10 -1t12 1.5t18.5 11.5t29.5 30l20 -20q0 -35 -7.5 -54.5t-20 -28t-29 -10t-34.5 -1.5q-28 0 -67 24q-17 11 -25 11q-6 0 -9.5 -2.5t-7.5 -6.5q-9 -7 -20 -14.5t-33 -11.5z" />
    <glyph glyph-name="FL00F2h" unicode="&#xf2;" horiz-adv-x="370" 
d="M9 109q-4 51 18 92t58.5 70t82.5 44.5t92 15.5q49 0 75 -27.5t26 -75.5q0 -4 -0.5 -10.5t-0.5 -7.5q-10 -44 -30 -83t-50 -67.5t-68.5 -44.5t-86.5 -16h-11q-8 0 -16.5 0.5t-16.5 0.5h-11q-17 13 -29 24t-19.5 23.5t-10 27.5t-2.5 34zM99 208q0 -62 29.5 -95.5
t92.5 -33.5q21 0 35 15t14 40q0 28 -6.5 51t-21 40t-36 26.5t-51.5 9.5q-25 0 -40.5 -14.5t-15.5 -38.5zM193 598q0 -1 5 -9.5t13 -20.5l17 -25l17 -25l13 -20t5 -10q-1 -5 1 -8t4.5 -6l5 -6t2.5 -8l-12 -18q-6 -8 -18 -3.5t-24.5 14t-24 20t-15.5 14.5l-113 79l34 49
q6 -5 20.5 -3.5t30 2.5t27.5 -1.5t12 -14.5z" />
    <glyph glyph-name="FL00F3h" unicode="&#xf3;" horiz-adv-x="370" 
d="M9 109q-4 51 18 92t58.5 70t82.5 44.5t92 15.5q49 0 75 -27.5t26 -75.5q0 -4 -0.5 -10.5t-0.5 -7.5q-10 -44 -30 -83t-50 -67.5t-68.5 -44.5t-86.5 -16h-11q-8 0 -16.5 0.5t-16.5 0.5h-11q-17 13 -29 24t-19.5 23.5t-10 27.5t-2.5 34zM99 208q0 -62 29.5 -95.5
t92.5 -33.5q21 0 35 15t14 40q0 28 -6.5 51t-21 40t-36 26.5t-51.5 9.5q-25 0 -40.5 -14.5t-15.5 -38.5zM208 595q0 12 12 14.5t27.5 1.5t30 -3t20.5 4l34 -50l-113 -78l-16.5 -13t-24.5 -16t-25 -10t-19 5l-12 18q0 5 3 6t6 2.5l5 2.5t2 6q0 2 10.5 18.5l24 36l24.5 36.5
t11 19z" />
    <glyph glyph-name="FL00F4h" unicode="&#xf4;" horiz-adv-x="370" 
d="M9 109q-4 51 18 92t58.5 70t82.5 44.5t92 15.5q49 0 75 -27.5t26 -75.5q0 -4 -0.5 -10.5t-0.5 -7.5q-10 -44 -30 -83t-50 -67.5t-68.5 -44.5t-86.5 -16h-11q-8 0 -16.5 0.5t-16.5 0.5h-11q-17 13 -29 24t-19.5 23.5t-10 27.5t-2.5 34zM99 208q0 -62 29.5 -95.5
t92.5 -33.5q21 0 35 15t14 40q0 28 -6.5 51t-21 40t-36 26.5t-51.5 9.5q-25 0 -40.5 -14.5t-15.5 -38.5zM346 474q0 -7 -8 -14t-20 -13.5t-23 -11t-16 -4.5q-6 0 -15.5 10.5t-21.5 26l-25 33.5t-25.5 33t-24 23.5t-20.5 5.5q-14 -4 -21.5 -13t-9.5 -20.5t-2 -23.5v-20v-7
q0 -4 0.5 -7.5t0.5 -6.5v-3l23 -19q-4 -5 -13.5 -12.5t-20.5 -14t-23 -10.5t-23 -4q-9 0 -14 4t-7.5 10t-2.5 13v12q0 8 8 24.5t20 36.5t28 40t33.5 37t34 28t28.5 11q35 0 55.5 -10t33.5 -25t23 -34t25 -39q7 -9 15 -17t8 -19z" />
    <glyph glyph-name="FL00F5h" unicode="&#xf5;" horiz-adv-x="370" 
d="M9 109q-4 51 18 92t58.5 70t82.5 44.5t92 15.5q49 0 75 -27.5t26 -75.5q0 -4 -0.5 -10.5t-0.5 -7.5q-10 -44 -30 -83t-50 -67.5t-68.5 -44.5t-86.5 -16h-11q-8 0 -16.5 0.5t-16.5 0.5h-11q-17 13 -29 24t-19.5 23.5t-10 27.5t-2.5 34zM99 208q0 -62 29.5 -95.5
t92.5 -33.5q21 0 35 15t14 40q0 28 -6.5 51t-21 40t-36 26.5t-51.5 9.5q-25 0 -40.5 -14.5t-15.5 -38.5zM62 458q0 22 7.5 36.5t19.5 27.5q23 28 62 28q24 0 67 -22h-1l15.5 -7t9.5 -3q5 0 10 -1t12 1.5t18.5 11.5t29.5 30l20 -20q0 -35 -7.5 -54.5t-20 -28t-29 -10
t-34.5 -1.5q-28 0 -67 24q-17 11 -25 11q-6 0 -9.5 -2.5t-7.5 -6.5q-9 -7 -20 -14.5t-33 -11.5z" />
    <glyph glyph-name="FL00F6h" unicode="&#xf6;" horiz-adv-x="370" 
d="M9 109q-4 51 18 92t58.5 70t82.5 44.5t92 15.5q49 0 75 -27.5t26 -75.5q0 -4 -0.5 -10.5t-0.5 -7.5q-10 -44 -30 -83t-50 -67.5t-68.5 -44.5t-86.5 -16h-11q-8 0 -16.5 0.5t-16.5 0.5h-11q-17 13 -29 24t-19.5 23.5t-10 27.5t-2.5 34zM99 208q0 -62 29.5 -95.5
t92.5 -33.5q21 0 35 15t14 40q0 28 -6.5 51t-21 40t-36 26.5t-51.5 9.5q-25 0 -40.5 -14.5t-15.5 -38.5zM53 483q0 12 8.5 25.5t22 24.5t28.5 18t27 7q17 0 21.5 -7.5t4.5 -21.5q0 -13 -6 -27.5t-16 -26.5t-23 -20t-27 -8q-7 0 -11.5 1.5t-8.5 5.5t-8 10t-11 14l-0.5 1.5
t-0.5 3.5zM237 484q0 12 8.5 25.5t22 24.5t28.5 18t27 7q17 0 21.5 -7.5t4.5 -21.5q0 -13 -6 -27.5t-16 -26.5t-23 -20t-27 -8q-7 0 -11.5 1.5t-8.5 5t-8 9.5t-11 15l-0.5 1.5t-0.5 3.5z" />
    <glyph glyph-name="FL00F7h" unicode="&#xf7;" horiz-adv-x="410" 
d="M9 207q0 6 2.5 7.5t6.5 1.5q5 0 12 1t15 6q17 11 35 18.5t27 7.5l197 1q31 0 49 -4q16 -4 37 -28q-4 -15 -7.5 -18.5t-6 -3t-6 2t-8.5 -1.5q-8 -6 -16 -10t-20 -8l-268 -8q-18 0 -26 7q-4 4 -9.5 10t-13.5 14v5zM163 322q0 12 9 25.5t22 24t28.5 18t27.5 7.5
q16 0 20.5 -7.5t4.5 -22.5q0 -13 -6 -27t-16 -26t-22.5 -20t-27.5 -8q-7 0 -11.5 1.5t-8.5 5t-8 9.5l-10 15l-1 1t-1 4zM139 70q0 12 9 25.5t22 24t28.5 18t27.5 7.5q16 0 20.5 -7.5t4.5 -22.5q0 -13 -6 -27t-16 -26t-22.5 -20t-27.5 -8q-7 0 -11.5 1.5t-8.5 5t-8 9.5
l-10 15l-1 1t-1 4z" />
    <glyph glyph-name="FL00F8h" unicode="&#xf8;" horiz-adv-x="370" 
d="M14 -35q0 -12 -1.5 -18.5t-5.5 -18.5q-1 -6 -2 -10t-2 -5q1 0 4.5 -0.5t5.5 -0.5q18 0 29.5 11.5t19.5 29.5q2 4 10.5 15.5l22.5 31.5q5 -1 10 -1h9h11q49 0 79 9t51 26.5t37.5 44l37.5 60.5q0 3 5 13t10 22l9.5 23t5.5 13q0 1 0.5 7.5t0.5 10.5q0 51 -30 78
q10 14 16.5 22t11.5 13l7.5 7.5t3.5 5.5q0 5 -2.5 16t-7.5 21.5t-12.5 18t-17.5 4.5q-6 0 -16 -4.5t-20 -11.5t-17 -15.5t-7 -17.5l-33 -36q-27 -4 -49 -16.5t-48 -22.5q-31 -12 -55.5 -27.5t-41.5 -37t-25.5 -50t-8.5 -66.5q0 -31 7 -49.5t26 -36.5l-29 -45zM219 160l36 46
q15 -30 15 -72q0 -25 -14 -40t-35 -15q-34 0 -58 10l26.5 33.5zM99 208q0 24 15.5 38.5t40.5 14.5q10 0 18.5 -1.5t16.5 -2.5l-77 -121q-14 27 -14 72z" />
    <glyph glyph-name="FL00F9h" unicode="&#xf9;" horiz-adv-x="400" 
d="M245 71q-19 0 -35.5 -8t-33 -18t-34 -18t-38.5 -8h-12q-11 0 -24 4.5t-13 16.5v140q0 11 -5 19t-12.5 14.5l-15 12.5t-12.5 14l-0.5 2t-0.5 3q0 15 9.5 30.5t24 27.5t31.5 19.5t32 7.5q14 0 17.5 -16.5t3.5 -41.5q0 -24 -0.5 -52.5t5.5 -53t22 -41t48 -16.5q7 0 14 -0.5
t14 1.5t12.5 6.5t7.5 13.5q0 5 1.5 18t3 27.5t3 27t2.5 17.5q1 10 5.5 26t12 30.5t18 25t25.5 10.5q13 0 14.5 -8l4.5 -24l10 -70q1 -5 4 -18t6 -27.5t6 -27t4 -17.5q13 -6 16.5 -21.5t3.5 -28.5t-7.5 -26t-18.5 -23t-24.5 -16t-24.5 -6q-13 0 -20 11.5t-13 25t-14 24.5
t-23 11zM209 594q0 -2 5 -10.5t13 -20.5l17 -25l17 -24.5t13 -20t5 -10.5q-1 -5 1 -8t4.5 -6l5 -6t2.5 -8l-12 -17q-6 -9 -18 -4.5t-24.5 14.5l-24 20t-15.5 14l-113 79l34 49q6 -5 20.5 -3.5t30 2.5t27.5 -1t12 -14z" />
    <glyph glyph-name="FL00FAh" unicode="&#xfa;" horiz-adv-x="400" 
d="M245 71q-19 0 -35.5 -8t-33 -18t-34 -18t-38.5 -8h-12q-11 0 -24 4.5t-13 16.5v140q0 11 -5 19t-12.5 14.5l-15 12.5t-12.5 14l-0.5 2t-0.5 3q0 15 9.5 30.5t24 27.5t31.5 19.5t32 7.5q14 0 17.5 -16.5t3.5 -41.5q0 -24 -0.5 -52.5t5.5 -53t22 -41t48 -16.5q7 0 14 -0.5
t14 1.5t12.5 6.5t7.5 13.5q0 5 1.5 18t3 27.5t3 27t2.5 17.5q1 10 5.5 26t12 30.5t18 25t25.5 10.5q13 0 14.5 -8l4.5 -24l10 -70q1 -5 4 -18t6 -27.5t6 -27t4 -17.5q13 -6 16.5 -21.5t3.5 -28.5t-7.5 -26t-18.5 -23t-24.5 -16t-24.5 -6q-13 0 -20 11.5t-13 25t-14 24.5
t-23 11zM218 598q0 12 12 14.5t27.5 1.5t30 -2.5t19.5 3.5l35 -49l-113 -79q-5 -4 -16.5 -12.5t-25 -16t-25.5 -10.5t-18 6l-12 17q0 5 3 6t5.5 2.5t5 2.5t1.5 6q0 2 11 18.5l24 36l24.5 36.5t11.5 19z" />
    <glyph glyph-name="FL00FBh" unicode="&#xfb;" horiz-adv-x="400" 
d="M245 71q-19 0 -35.5 -8t-33 -18t-34 -18t-38.5 -8h-12q-11 0 -24 4.5t-13 16.5v140q0 11 -5 19t-12.5 14.5l-15 12.5t-12.5 14l-0.5 2t-0.5 3q0 15 9.5 30.5t24 27.5t31.5 19.5t32 7.5q14 0 17.5 -16.5t3.5 -41.5q0 -24 -0.5 -52.5t5.5 -53t22 -41t48 -16.5q7 0 14 -0.5
t14 1.5t12.5 6.5t7.5 13.5q0 5 1.5 18t3 27.5t3 27t2.5 17.5q1 10 5.5 26t12 30.5t18 25t25.5 10.5q13 0 14.5 -8l4.5 -24l10 -70q1 -5 4 -18t6 -27.5t6 -27t4 -17.5q13 -6 16.5 -21.5t3.5 -28.5t-7.5 -26t-18.5 -23t-24.5 -16t-24.5 -6q-13 0 -20 11.5t-13 25t-14 24.5
t-23 11zM352 501q0 -7 -8.5 -14t-20 -13.5t-22.5 -11t-16 -4.5q-7 0 -16 10t-19.5 24l-22 30.5t-23 30t-22.5 21.5t-20 5q-14 -4 -21 -11.5t-9.5 -17t-2 -20t0.5 -18.5v-6v-8v-7v-3l24 -18q-5 -6 -14.5 -13t-20.5 -13.5t-23 -11t-22 -4.5t-15 4.5t-7 10.5t-2 12v12
q0 8 7.5 23.5t20 34.5t28.5 38t33 35t33.5 26t29.5 10q34 0 53 -8t30 -21t20 -30.5t24 -37.5q6 -9 14.5 -17t8.5 -19z" />
    <glyph glyph-name="FL00FCh" unicode="&#xfc;" horiz-adv-x="400" 
d="M245 71q-19 0 -35.5 -8t-33 -18t-34 -18t-38.5 -8h-12q-11 0 -24 4.5t-13 16.5v140q0 11 -5 19t-12.5 14.5l-15 12.5t-12.5 14l-0.5 2t-0.5 3q0 15 9.5 30.5t24 27.5t31.5 19.5t32 7.5q14 0 17.5 -16.5t3.5 -41.5q0 -24 -0.5 -52.5t5.5 -53t22 -41t48 -16.5q7 0 14 -0.5
t14 1.5t12.5 6.5t7.5 13.5q0 5 1.5 18t3 27.5t3 27t2.5 17.5q1 10 5.5 26t12 30.5t18 25t25.5 10.5q13 0 14.5 -8l4.5 -24l10 -70q1 -5 4 -18t6 -27.5t6 -27t4 -17.5q13 -6 16.5 -21.5t3.5 -28.5t-7.5 -26t-18.5 -23t-24.5 -16t-24.5 -6q-13 0 -20 11.5t-13 25t-14 24.5
t-23 11zM48 493q0 12 9 25.5t22 24.5t28 18t27 7q17 0 21.5 -7.5t4.5 -22.5q0 -12 -6 -26.5t-16 -26.5t-23 -20t-27 -8q-7 0 -11.5 1.5t-8.5 5t-8 9.5l-10 15l-1 1t-1 4zM232 494q0 12 9 25.5t22 24t28 18t27 7.5q17 0 21.5 -7.5t4.5 -22.5q0 -13 -6 -27t-16 -26t-23 -20
t-27 -8q-7 0 -11.5 1.5t-8.5 5t-8 9.5l-10 15l-1 1t-1 4z" />
    <glyph glyph-name="FL00FDh" unicode="&#xfd;" horiz-adv-x="370" 
d="M280 -30v16q0 6 -1 20.5t-3 30t-3.5 29.5t-2.5 20q-1 0 -5 0.5t-9 1t-10 0.5h-6q-19 0 -34 -9.5t-28.5 -21t-28.5 -21.5t-34 -10q-21 0 -34 13.5t-21.5 32t-13 39t-6.5 35.5q0 4 -1 18.5t-3 31.5t-3.5 31.5t-2.5 18.5q0 1 -2.5 7t-6 13t-7 13t-4.5 7l-0.5 2t-0.5 3
q0 9 7.5 18.5t18.5 18t23.5 13.5t21.5 5q11 0 17 -15.5t10 -39l8.5 -50.5t14 -51t26.5 -39.5t45 -15.5q22 0 36 3.5t21.5 12.5t10 23.5t2.5 36.5q0 24 -6 45.5t-6 45.5t15.5 39t40.5 15q7 0 13 -7.5t11 -16.5t8 -17t3 -9q9 -38 10 -80.5t1 -80.5q0 -16 1 -37.5t0 -43.5
t-6 -43t-16 -35q-5 -7 -19 -23.5l-30 -36l-30.5 -36.5l-20.5 -24q-2 -1 -6 -2.5t-8.5 -3.5t-8.5 -3t-7 -1q-5 0 -20 -1t-31.5 -1t-31.5 -1t-21 -1q0 9 2 23.5t7 28t13.5 23t21.5 9.5h120q7 0 8.5 9t1.5 16v9zM196 586q0 12 12 14.5t27.5 1.5t30 -2.5t20.5 3.5l34 -49
l-113 -79q-5 -4 -16.5 -12.5t-24.5 -16t-25 -10.5t-19 6l-12 17q0 5 3 6t6 2.5l5 2.5t2 6q0 2 10.5 18.5l24 36l24.5 36.5t11 19z" />
    <glyph glyph-name="FL00FEh" unicode="&#xfe;" horiz-adv-x="360" 
d="M9 222q0 25 7 35t18.5 12t26.5 -0.5t31 -2.5h20q-6 -26 -8 -38.5t2 -16t14 -0.5l27.5 8.5t42.5 10t59 4.5q41 0 58.5 -15t17.5 -56v-25t-1.5 -12.5t-4 -9t-7.5 -14.5l-9.5 -15.5t-8.5 -12.5q-8 -10 -36 -58l-126 -94q-1 -12 -1.5 -23t-5.5 -20t-16.5 -14.5t-33.5 -5.5
q-1 0 -2.5 0.5t-2.5 0.5q-3 70 -14.5 141t-25.5 139q-5 22 -13 41t-8 41zM234 36q36 49 31 71q-3 11 -7 22t-9 20q-11 19 -28 31.5t-44 12.5q-6 0 -15 -2t-18 -6t-15.5 -9.5t-6.5 -13.5v-120q0 -17 14 -24t31 -8q9 -1 17.5 -1.5t16.5 1.5t16.5 8t16.5 18z" />
    <glyph glyph-name="FL00FFh" unicode="&#xff;" horiz-adv-x="370" 
d="M280 -30v16q0 6 -1 20.5t-3 30t-3.5 29.5t-2.5 20q-1 0 -5 0.5t-9 1t-10 0.5h-6q-19 0 -34 -9.5t-28.5 -21t-28.5 -21.5t-34 -10q-21 0 -34 13.5t-21.5 32t-13 39t-6.5 35.5q0 4 -1 18.5t-3 31.5t-3.5 31.5t-2.5 18.5q0 1 -2.5 7t-6 13t-7 13t-4.5 7l-0.5 2t-0.5 3
q0 9 7.5 18.5t18.5 18t23.5 13.5t21.5 5q11 0 17 -15.5t10 -39l8.5 -50.5t14 -51t26.5 -39.5t45 -15.5q22 0 36 3.5t21.5 12.5t10 23.5t2.5 36.5q0 24 -6 45.5t-6 45.5t15.5 39t40.5 15q7 0 13 -7.5t11 -16.5t8 -17t3 -9q9 -38 10 -80.5t1 -80.5q0 -16 1 -37.5t0 -43.5
t-6 -43t-16 -35q-5 -7 -19 -23.5l-30 -36l-30.5 -36.5l-20.5 -24q-2 -1 -6 -2.5t-8.5 -3.5t-8.5 -3t-7 -1q-5 0 -20 -1t-31.5 -1t-31.5 -1t-21 -1q0 9 2 23.5t7 28t13.5 23t21.5 9.5h120q7 0 8.5 9t1.5 16v9zM47 492q0 12 9 25.5t22 24.5t28.5 18t27.5 7q16 0 20.5 -7.5
t4.5 -21.5q0 -13 -6 -27.5t-16 -26.5t-22.5 -20t-27.5 -8q-7 0 -11.5 1.5t-8.5 5t-8 9.5l-10 15l-1 1.5t-1 3.5zM231 493q0 12 9 25.5t22 24.5t28.5 18t27.5 7q16 0 20.5 -7.5t4.5 -22.5q0 -12 -6 -26.5t-16 -26.5t-22.5 -20t-27.5 -8q-7 0 -11.5 1.5t-8.5 5t-8 9.5l-10 15
l-1 1t-1 4z" />
    <glyph glyph-name="sf271" horiz-adv-x="340" 
 />
    <glyph glyph-name="sf259" horiz-adv-x="160" 
 />
    </font>
</defs>
</svg>
